<svg xmlns="http://www.w3.org/2000/svg" viewBox="0 0 54.85 59.58"><defs><style>.cls-1{fill:#fff;}</style></defs><g id="图层_2" data-name="图层 2"><g id="图层_1-2" data-name="图层 1"><path class="cls-1" d="M10.11,19.52a74.05,74.05,0,0,0-8.38.58V14.21a30.27,30.27,0,0,0,3.61.35c1.39.06,3,.12,4.77.16,0-2,0-3.69-.06-5.18S10,6.75,9.89,5.66s-.14-2-.23-2.78-.17-1.43-.25-2a25.89,25.89,0,0,0,3.23.6c.92.11,1.8.19,2.66.23q2.88.06,1,1.92a3.47,3.47,0,0,0-.93,1.21A4.35,4.35,0,0,0,15.1,6.4v8.32c1.92,0,3.63-.1,5.12-.16a35.43,35.43,0,0,0,3.91-.35V20.1a84.84,84.84,0,0,0-9-.58v9.66q4.55-1.28,8.07-2.62a25.58,25.58,0,0,0-.23,2.72,22.32,22.32,0,0,0,.1,2.66q-1.86.45-3.87,1c-1.35.36-2.7.78-4.07,1.25V52.1a10.75,10.75,0,0,1-.28,2.68,3.09,3.09,0,0,1-1.35,1.8,9.49,9.49,0,0,1-3.07,1.15,47,47,0,0,1-5.47.77,13.37,13.37,0,0,0-.39-3.11A15.21,15.21,0,0,0,3.26,52a25.22,25.22,0,0,0,3.52.41,5,5,0,0,0,2.08-.28,1.82,1.82,0,0,0,1-1,4.59,4.59,0,0,0,.25-1.67V36a44.94,44.94,0,0,0-4.38,1.92,32.2,32.2,0,0,0-3.55,2,16.82,16.82,0,0,0-.71-3.81A14.33,14.33,0,0,0,0,32.77q4.6-.84,10.11-2.24ZM31.62,33.15a53.41,53.41,0,0,1-.9,7.36,47.68,47.68,0,0,1-1.92,7A44.45,44.45,0,0,1,25.89,54a36.5,36.5,0,0,1-3.75,5.56,11,11,0,0,0-2.56-1.88,20,20,0,0,0-2.94-1.32,30.84,30.84,0,0,0,7.42-11.2,42.65,42.65,0,0,0,2.56-15.61V16.32q0-1.73-.06-2.82a17.83,17.83,0,0,0-.26-2.17l2.05.13c.73,0,1.61.07,2.66.09s2.34,0,3.9,0H46.59q2.31,0,3.84,0c1,0,1.87-.05,2.53-.09l1.89-.13c-.09.6-.16,1.25-.23,1.95s-.09,1.72-.09,3V29.5c0,1.41,0,2.79.09,4.13s.14,2.77.23,4.26H49.47V33.15ZM49.47,28.8V15.94H31.68V28.8ZM38.34,10.37A25.67,25.67,0,0,0,37.25,6a21.17,21.17,0,0,0-2-4.22L40.9,0c.59,1.37,1.16,2.77,1.69,4.22s1,2.91,1.38,4.36Z"/></g></g></svg>