<svg xmlns="http://www.w3.org/2000/svg" viewBox="0 0 57.66 60.1"><defs><style>.cls-1{fill:#fff;}</style></defs><g id="图层_2" data-name="图层 2"><g id="图层_1-2" data-name="图层 1"><path class="cls-1" d="M7.55,7.68l.32.19c.13.39.31.84.55,1.38a4,4,0,0,0,.8,1.25,4.12,4.12,0,0,0,1,.09l2.47.07c1,0,2,0,3.23,0h7.77c.34,0,.57-.27.68-.8a9.77,9.77,0,0,0,.12-2c0-.78-.07-1.64-.16-2.56s-.13-1.77-.16-2.56a9.59,9.59,0,0,1,.13-2c.11-.53.33-.8.67-.8s1.07,0,1.92.06,1.73.11,2.63.2,1.76.18,2.59.28A10.41,10.41,0,0,1,34,.9c.35.08.52.23.52.44L34,1.82a5.72,5.72,0,0,0-.48.55,2.6,2.6,0,0,0-.29,1.28c-.07.72-.13,1.51-.19,2.37S33,7.7,32.93,8.51s0,1.35,0,1.6a.46.46,0,0,0,.22.45,1.27,1.27,0,0,0,.54.16l.61,0h.48l2.5,0c1.28,0,2.64-.06,4.09-.13s2.76-.14,3.91-.22a5.24,5.24,0,0,0,1.92-.32l3.52-3.52.38-.13.39.13a11.83,11.83,0,0,0,1.28,1.21c.68.6,1.38,1.24,2.11,1.92l1.95,1.89c.58.58.86.93.86,1.06a.39.39,0,0,1-.16.32l-.28.25-2.15,1.64c-.92.7-1.86,1.41-2.85,2.14a28.89,28.89,0,0,1-2.88,1.89,5,5,0,0,1-2.24.8.59.59,0,0,1-.64-.61,4.45,4.45,0,0,1,.16-1.5c.15-.6.36-1.25.61-2a14.34,14.34,0,0,0,.58-1.95,4,4,0,0,0,.09-1.5.66.66,0,0,0-.73-.61H9.92a.56.56,0,0,0-.64.64c0,.9,0,1.93-.06,3.1a14.14,14.14,0,0,1-.52,3.33,6.14,6.14,0,0,1-1.5,2.66,4,4,0,0,1-3,1.09,4.19,4.19,0,0,1-3-1.16,4,4,0,0,1-1.18-3,4.73,4.73,0,0,1,.9-2.72A21.93,21.93,0,0,1,3,12.86c.79-.85,1.57-1.69,2.36-2.52A11.62,11.62,0,0,0,7.17,7.87ZM.7,26.88H31.3a.27.27,0,0,1,.19.06l-.13.2-.45.19H.7l-.25-.26ZM14.08,44.67c-.13-.51-.26-1-.38-1.5a8.56,8.56,0,0,0-.52-1.44c-.25-.6-.57-1.35-1-2.24s-.75-1.83-1.12-2.79-.67-1.88-.92-2.78a8.35,8.35,0,0,1-.39-2.24.57.57,0,0,1,.64-.64,10.07,10.07,0,0,1,4,.9,15.7,15.7,0,0,1,3.84,2.33,12.14,12.14,0,0,1,2.88,3.36,7.64,7.64,0,0,1,1.12,3.91A5.67,5.67,0,0,1,21.15,45,3.67,3.67,0,0,1,18,46.53a5.33,5.33,0,0,1-2.17-.48A4.1,4.1,0,0,1,14.08,44.67ZM42.75,16.38a1.18,1.18,0,0,1-.29.58,4.72,4.72,0,0,1-.44.45,4.07,4.07,0,0,0-.42.41.72.72,0,0,0-.19.48c0,5.47-.06,10.86-.16,16.2s-.16,10.73-.16,16.19q0,.77,0,1.53a7.21,7.21,0,0,1-.1,1.54,5.5,5.5,0,0,1-1.6,2.94A7.5,7.5,0,0,1,37.7,58,18,18,0,0,1,35.36,59a18.77,18.77,0,0,1-2.46.77,9.59,9.59,0,0,1-2.12.29c-.38,0-.71-.33-1-1s-.6-1.44-1-2.33a23.11,23.11,0,0,0-1.28-2.66,5.39,5.39,0,0,0-1.89-2,7.5,7.5,0,0,0-1.12-.52,1.71,1.71,0,0,1-.92-.7,8.67,8.67,0,0,1,1.31-.1c.74,0,1.57,0,2.46,0s1.75,0,2.56,0,1.37,0,1.67,0a1.47,1.47,0,0,0,1.28-1.28v-34a.57.57,0,0,1,.64-.64,32.23,32.23,0,0,1,9,1.28Zm.19,10.76L42.82,27c0-.09.24-.15.6-.19l1.16-.16c.4-.07.8-.14,1.18-.23a1.29,1.29,0,0,0,.77-.38l3.84-5.12.25-.13a3.77,3.77,0,0,1,1.7.83,28,28,0,0,1,2.37,1.89,26.34,26.34,0,0,1,2.05,2c.57.64.82,1.06.73,1.28a.79.79,0,0,1-.83.51H43.39Z"/></g></g></svg>