<svg xmlns="http://www.w3.org/2000/svg" viewBox="0 0 60.54 59.84"><defs><style>.cls-1{fill:#fff;}</style></defs><g id="图层_2" data-name="图层 2"><g id="图层_1-2" data-name="图层 1"><path class="cls-1" d="M0,34.3A.79.79,0,0,1,.06,34q1.74-4.53,3.65-9t3.46-9q.9-2.56,1.53-5.12T9.92,5.57c.21-.86.38-1.71.51-2.56A16.21,16.21,0,0,1,11,.51L11.2.13c0-.09.17-.13.38-.13a8.6,8.6,0,0,1,2,.45c1,.3,2,.64,3.1,1s2.12.77,3.11,1.15,1.66.67,2,.84l.13.25c-.08.22-.37.43-.86.64A3,3,0,0,0,20,5.06a3.57,3.57,0,0,0-.7,1.28,8,8,0,0,1-.58,1.34C18.5,8.19,18.08,9,17.5,10s-1.15,2.11-1.72,3.24-1.08,2.18-1.51,3.16a6.48,6.48,0,0,0-.64,2.18c0,.13.13.26.39.38a8.68,8.68,0,0,0,.89.39l1,.35.64.22.13.32-.13.32a4.24,4.24,0,0,0-.61.42.8.8,0,0,0-.35.61v36q0,.63-1,1.05a14.79,14.79,0,0,1-2.34.71,21.74,21.74,0,0,1-2.59.41c-.85.09-1.43.13-1.73.13a.56.56,0,0,1-.64-.64V32.38a6.55,6.55,0,0,1,.23-1.72,7.07,7.07,0,0,0,.22-1.73,7.3,7.3,0,0,0-.06-.83A.53.53,0,0,0,7,27.58a2.47,2.47,0,0,0-1.6.9,20.25,20.25,0,0,0-1.79,2.08c-.6.79-1.2,1.56-1.79,2.3A6.53,6.53,0,0,1,.19,34.43ZM53.57,8.9,54,9l6.47,5.76.12.32-.19.2q-5.18.51-10.4.51h-24l-1.18,0c-.58,0-1.17,0-1.76,0a11.25,11.25,0,0,1-1.64-.16c-.49-.08-.73-.23-.73-.45a.47.47,0,0,1,.22-.41.72.72,0,0,1,.42-.16H49c.3,0,.65-.25,1.06-.74a20.5,20.5,0,0,0,1.22-1.66c.4-.62.77-1.24,1.12-1.86s.59-1.06.76-1.31ZM50.11,36.22a17.24,17.24,0,0,1,1.51,1c.74.52,1.52,1.08,2.33,1.7s1.56,1.21,2.24,1.76a6.67,6.67,0,0,1,1.22,1.15c0,.13-.11.26-.32.39l-.71.41a2.73,2.73,0,0,0-.67.55,1.11,1.11,0,0,0-.29.76V56.26a1.5,1.5,0,0,1-.92,1.28,9.83,9.83,0,0,1-2.15.83,17.27,17.27,0,0,1-2.43.45c-.81.08-1.41.12-1.79.12a.56.56,0,0,1-.64-.64V56.54q0-.54,0-1a2.16,2.16,0,0,0-.1-.57,1.72,1.72,0,0,0-.29-.42.65.65,0,0,1-.16-.48,1.17,1.17,0,0,1,.23-.7,1.22,1.22,0,0,0,.22-.71V42a.57.57,0,0,0-.64-.64H33a.57.57,0,0,0-.64.64V53.06a.57.57,0,0,0,.64.64H45.31a.6.6,0,0,1,.64.51.38.38,0,0,1-.25.13H32.83c-.21,0-.36.12-.45.38a5.06,5.06,0,0,0-.19.93A10.83,10.83,0,0,1,32,56.74a1.39,1.39,0,0,1-.45.8,3.88,3.88,0,0,1-1.37.83,13.29,13.29,0,0,1-1.8.51c-.61.13-1.23.22-1.85.29s-1.17.09-1.63.09a.49.49,0,0,1-.48-.32,2.07,2.07,0,0,1-.2-.73,5.75,5.75,0,0,1,0-.83,6,6,0,0,0,0-.61q0-4.8-.2-9.6c-.12-3.2-.19-6.4-.19-9.6,0-.39.21-.58.64-.58a4.08,4.08,0,0,1,1.89.48c.62.32,1.25.67,1.89,1.06s1.3.73,2,1a4.92,4.92,0,0,0,2.11.48h14c.12,0,.36-.17.7-.51s.69-.72,1.06-1.15.7-.84,1-1.25.54-.67.67-.8Zm6.4-12.35c-.85.05-1.7.12-2.56.23a21.86,21.86,0,0,1-2.56.16q-4.1,0-8.16.06t-8.16.06c-1.49,0-3,0-4.45-.06s-2.95-.06-4.44-.06h-.45a3.91,3.91,0,0,1-.61,0,1.91,1.91,0,0,1-.51-.12c-.15-.07-.23-.16-.23-.29a.49.49,0,0,1,.26-.42.94.94,0,0,1,.45-.16H46.14c.3,0,.62-.26,1-.8s.7-1.12,1.06-1.76.72-1.23,1.09-1.79.71-.83,1-.83a14.33,14.33,0,0,1,1.44,1c.66.51,1.34,1.06,2,1.63s1.31,1.15,1.89,1.7a5.62,5.62,0,0,1,1.05,1.22ZM24.45,32.32a.34.34,0,0,1,.25-.13H46.08a1.73,1.73,0,0,0,1.28-.86,19.21,19.21,0,0,0,1.22-1.89l1.05-1.89c.32-.57.59-.86.8-.86a3.51,3.51,0,0,1,1.12.77c.62.51,1.29,1.1,2,1.76s1.37,1.29,2,1.88a11.74,11.74,0,0,1,1,1.09q.14.33-.06.48a.67.67,0,0,1-.45.16H25.09C24.66,32.83,24.45,32.66,24.45,32.32ZM44.1,6a19.62,19.62,0,0,0,2.08-2.62c.61-.94,1.24-1.86,1.88-2.75l.39-.2c.13,0,.51.21,1.15.74S50.93,2.27,51.68,3s1.44,1.38,2.08,2A7.75,7.75,0,0,1,54.91,6.4c0,.26-.21.46-.64.61a3.17,3.17,0,0,1-1,.22l-27-.45A.28.28,0,0,1,26,6.46a.29.29,0,0,1,.32-.32H43.65Z"/></g></g></svg>