<svg xmlns="http://www.w3.org/2000/svg" viewBox="0 0 64 64"><defs><style>.cls-1{fill:#fff;}.cls-2{fill:none;}</style></defs><g id="图层_2" data-name="图层 2"><g id="图层_1-2" data-name="图层 1"><path class="cls-1" d="M32.42,26.9c-.39,0-.94,0-1.67.1a14,14,0,0,0-2.14.35,6.63,6.63,0,0,0-1.86.74,1.48,1.48,0,0,0-.8,1.32,1.19,1.19,0,0,0,.55.83,8.7,8.7,0,0,0,1.24.86c.47.28.93.54,1.38.77a9.89,9.89,0,0,0,1,.48l.26.26a3.33,3.33,0,0,1-1.19,1.12,29.1,29.1,0,0,1-2.65,1.6c-1.07.57-2.22,1.17-3.46,1.79s-2.42,1.18-3.55,1.7-2.14.92-3,1.24a7,7,0,0,1-1.79.48c-.13,0-.19-.08-.19-.25s.35-.55,1.05-1.25,1.49-1.54,2.37-2.5a27.85,27.85,0,0,0,2.37-3,5.29,5.29,0,0,0,1.05-2.85,1.09,1.09,0,0,0-.12-.61,1.14,1.14,0,0,0-.32-.26,1.35,1.35,0,0,1-.32-.19c-.09-.06-.13-.2-.13-.42,0-2.95-.07-5.9-.19-8.83s-.2-5.88-.2-8.83c0-.38.22-.57.64-.57a6,6,0,0,1,2.31.48c.77.32,1.55.68,2.37,1.08s1.62.77,2.43,1.09a6.89,6.89,0,0,0,2.56.48l.77,0a1.27,1.27,0,0,0,.7-.29,4.05,4.05,0,0,0,.22-1.14,11.65,11.65,0,0,0,.07-1.77,9.73,9.73,0,0,0-.19-1.62c-.11-.48-.31-.73-.61-.73q-3.78,0-7.49-.22t-7.49-.22a.69.69,0,0,0-.57.38,4.07,4.07,0,0,0-.07.79v.79c0,3.18-.05,6.17-.16,9A43.3,43.3,0,0,1,14.5,27.1a29,29,0,0,1-2.88,7.43A33,33,0,0,1,6,41.76a7.5,7.5,0,0,1-.6.54,6.7,6.7,0,0,1-1,.74,2.76,2.76,0,0,1-1,.38c-.28,0-.41-.12-.41-.51a10.46,10.46,0,0,1,.76-3.77c.52-1.33,1.08-2.68,1.7-4.07s1.18-2.8,1.7-4.25A13.26,13.26,0,0,0,7.9,26.4V4.51a.29.29,0,0,1,.32-.32,5.35,5.35,0,0,1,1.83.48c.79.32,1.61.67,2.46,1.06s1.7.73,2.53,1a5.93,5.93,0,0,0,2,.48H48.22a1.76,1.76,0,0,0,1.38-.73A14.69,14.69,0,0,0,50.75,4.9c.36-.6.73-1.15,1.09-1.64a1.54,1.54,0,0,1,1.25-.73,3.83,3.83,0,0,1,1.47.67,25.4,25.4,0,0,1,2.21,1.54,23.72,23.72,0,0,1,2,1.69c.58.56.87,1,.87,1.22a.32.32,0,0,1-.2.29l-.32.16a8.48,8.48,0,0,1-2,.28c-1,.07-2.12.11-3.42.13l-4.2.07q-2.23,0-4.32,0c-1.38,0-2.65,0-3.8,0H38.82l-.39.32-.06.26a.69.69,0,0,0,.35.48,2.92,2.92,0,0,0,.67.26l.74.19.61.16.19.25-.19.26c-.73.38-1.48.72-2.24,1A7.79,7.79,0,0,0,36.38,13l-.12.32.12.37.45.32h7.55a1.72,1.72,0,0,0,1.19-.61,14.56,14.56,0,0,0,1.15-1.31l1-1.31c.3-.41.56-.61.77-.61a2.31,2.31,0,0,1,.77.13,5.92,5.92,0,0,1,1.28.83c.68.51,1.38,1.08,2.11,1.69s1.39,1.21,2,1.77.88.9.84,1a1.06,1.06,0,0,1-.36.41,7.09,7.09,0,0,1-.64.45c-.23.15-.44.3-.64.45a.62.62,0,0,0-.28.48V27.74c0,.21-.31.43-.93.64a19.69,19.69,0,0,1-2.08.58,21.41,21.41,0,0,1-2.24.38,14.4,14.4,0,0,1-1.47.13.72.72,0,0,1-.58-.22A1.6,1.6,0,0,1,46,28.7c-.06-.21-.14-.44-.22-.67a1.81,1.81,0,0,0-.39-.62c-1.06-.21-1.92-.35-2.56-.41a7,7,0,0,0-1.72,0c-.52.06-.77.24-.77.54V38a1.74,1.74,0,0,1-.71,1.48,10.51,10.51,0,0,1-1.53.92,16.9,16.9,0,0,0-1.54.87,1.37,1.37,0,0,0-.7,1.21,1.5,1.5,0,0,0,.73,1.19c.49.36,1,.74,1.64,1.15a9.94,9.94,0,0,1,1.63,1.41,2.84,2.84,0,0,1,.73,2,3.64,3.64,0,0,1-.76,2.44A4.49,4.49,0,0,1,38,51.94a4.75,4.75,0,0,1-1.95.32,1.83,1.83,0,0,1-1.25-.45A11.17,11.17,0,0,1,34,50.72a9.79,9.79,0,0,0-.83-1.09c-.21-.25-.62-.68-1.22-1.28s-1.2-1.22-1.82-1.89-1.16-1.28-1.63-1.85a2.61,2.61,0,0,1-.71-1.25c0-.17.17-.3.52-.38a4.63,4.63,0,0,1,1.18-.13c.45,0,.89,0,1.31,0l.83,0c.22,0,.34-.15.39-.45a5.34,5.34,0,0,0,.06-.64,3,3,0,0,0-.41-1.53,15.83,15.83,0,0,0-.9-1.35c-.32-.42-.61-.83-.86-1.21a2,2,0,0,1-.39-1.09c0-.17.18-.29.55-.35s.74-.15,1.15-.26a4.74,4.74,0,0,0,1.15-.45,1,1,0,0,0,.54-1c0-.38,0-.94,0-1.66s0-1.47,0-2.24,0-1.5,0-2.18a6.64,6.64,0,0,0-.16-1.42ZM3.36,55.71A3,3,0,0,1,4,54.59c.43-.57,1-1.24,1.63-2S7,51.08,7.81,50.27,9.35,48.7,10.08,48s1.35-1.28,1.89-1.73.88-.67,1-.67.46.23.61.7A7.94,7.94,0,0,1,14,47.9c.07.6.11,1.19.13,1.76s0,1,0,1.12a10.85,10.85,0,0,1-.8,4.48,7.51,7.51,0,0,1-2,2.79A5.67,5.67,0,0,1,6.14,59.2a4.21,4.21,0,0,1-2-1.25A3.25,3.25,0,0,1,3.36,55.71Zm24-9.85a1.14,1.14,0,0,1-.51.73.68.68,0,0,0-.39.61v6.34l.2.44.44.45.45.19H40.93a2.13,2.13,0,0,0,1.57-.8,11,11,0,0,0,1.31-1.76c.38-.64.71-1.22,1-1.76s.52-.8.74-.8.27.19.32.55a11.12,11.12,0,0,1,.06,1.21q0,.68,0,1.35c0,.45,0,.73,0,.86a.67.67,0,0,0,.44.61,7.43,7.43,0,0,1,1,.58,3.79,3.79,0,0,1,1,1,3.18,3.18,0,0,1,.45,1.85,2.66,2.66,0,0,1-.73,1.92,5.31,5.31,0,0,1-1.8,1.22,9.65,9.65,0,0,1-2.24.64,12.92,12.92,0,0,1-2.08.19H22.18a3.1,3.1,0,0,1-1.48-.38,4,4,0,0,1-1.21-1,5.63,5.63,0,0,1-.83-1.4,3.77,3.77,0,0,1-.32-1.48V45.41a.56.56,0,0,1,.64-.64,23.49,23.49,0,0,1,4,.35c1.32.23,2.66.42,4,.54Zm1-30.92a.57.57,0,0,0-.64.64v9.8a.57.57,0,0,0,.64.64H45a.57.57,0,0,0,.64-.64v-9.8a.57.57,0,0,0-.64-.64Zm.9,5.64a.24.24,0,0,1,.19-.07h1.7l2.88,0q1.64,0,3.39,0c1.17,0,2.26,0,3.26,0l2.53,0a4.37,4.37,0,0,1,1.15.07l-.44.19a1.81,1.81,0,0,1-.45.13H30ZM54.37,41.44a2.33,2.33,0,0,1-1.86-.83c-.34-.39-.68-.8-1-1.25s-.68-.86-1-1.25c-.81-.89-1.64-1.76-2.49-2.59S46.26,33.85,45.41,33a2.52,2.52,0,0,1-.48-.38,6.65,6.65,0,0,1-.64-.67,1.07,1.07,0,0,1-.29-.61c0-.17.19-.26.58-.26,1.11,0,2.43.08,4,.23a19,19,0,0,1,4.42,1,10.57,10.57,0,0,1,3.62,2.08,4.56,4.56,0,0,1,1.5,3.58,3.39,3.39,0,0,1-1,2.69A4.11,4.11,0,0,1,54.37,41.44Zm3,17.09a4.16,4.16,0,0,1-2.85-1.19,13.66,13.66,0,0,1-2.37-2.81,31.17,31.17,0,0,1-1.89-3.39c-.55-1.18-1-2.15-1.47-2.92-.09-.12-.24-.37-.45-.73l-.67-1.15L47,45.22a2.37,2.37,0,0,1-.29-.64c0-.13.12-.21.35-.23l.48,0a16,16,0,0,1,4.36.67,17.39,17.39,0,0,1,4.38,1.92A12.07,12.07,0,0,1,59.68,50,6.88,6.88,0,0,1,61,54.18a5.58,5.58,0,0,1-.8,3.1A3.11,3.11,0,0,1,57.38,58.53Z"/><rect class="cls-2" width="64" height="64"/></g></g></svg>