<svg xmlns="http://www.w3.org/2000/svg" viewBox="0 0 58.05 58.94"><defs><style>.cls-1{fill:#fff;}</style></defs><g id="图层_2" data-name="图层 2"><g id="图层_1-2" data-name="图层 1"><path class="cls-1" d="M29.44,24.37c-.38,0-.94,0-1.66.1a14.17,14.17,0,0,0-2.15.35,6.57,6.57,0,0,0-1.85.74,1.46,1.46,0,0,0-.8,1.32,1.19,1.19,0,0,0,.54.83,9.76,9.76,0,0,0,1.25.87c.47.27.93.53,1.37.76a8.86,8.86,0,0,0,1,.48l.25.26c-.08.26-.48.63-1.18,1.12a29.42,29.42,0,0,1-2.66,1.6c-1.07.58-2.22,1.17-3.45,1.79s-2.43,1.19-3.56,1.7-2.14.93-3,1.25a6.85,6.85,0,0,1-1.79.48c-.13,0-.19-.09-.19-.26s.35-.54,1.06-1.25S14.07,35,14.94,34a25.66,25.66,0,0,0,2.37-3,5.23,5.23,0,0,0,1.06-2.85,1.08,1.08,0,0,0-.13-.61,1,1,0,0,0-.32-.25,2.23,2.23,0,0,1-.32-.2c-.09-.06-.13-.2-.13-.41q0-4.44-.19-8.84c-.13-2.93-.19-5.88-.19-8.83,0-.38.21-.57.64-.57a5.93,5.93,0,0,1,2.3.48c.77.32,1.56.68,2.37,1.09s1.62.76,2.43,1.08a6.93,6.93,0,0,0,2.56.48c.26,0,.51,0,.77,0a1.23,1.23,0,0,0,.7-.28,4.11,4.11,0,0,0,.23-1.14,13.29,13.29,0,0,0,.06-1.78A8.78,8.78,0,0,0,29,6.73c-.11-.48-.31-.73-.61-.73-2.52,0-5-.07-7.49-.22s-5-.22-7.48-.22a.72.72,0,0,0-.58.38,5.06,5.06,0,0,0-.06.79v.8c0,3.17-.06,6.17-.16,9a42.58,42.58,0,0,1-1.06,8.07A29,29,0,0,1,8.64,32,32.93,32.93,0,0,1,3,39.23l-.61.55a7.29,7.29,0,0,1-1,.73,3,3,0,0,1-1,.39c-.28,0-.42-.13-.42-.52a10.49,10.49,0,0,1,.77-3.77c.51-1.32,1.07-2.68,1.69-4.07s1.19-2.8,1.7-4.25a13.23,13.23,0,0,0,.77-4.42V2a.28.28,0,0,1,.32-.32,5.37,5.37,0,0,1,1.82.48c.79.32,1.61.68,2.47,1.06s1.69.74,2.52,1.06a6,6,0,0,0,2,.48H45.25A1.76,1.76,0,0,0,46.62,4a13.85,13.85,0,0,0,1.16-1.63c.36-.6.72-1.14,1.08-1.63A1.57,1.57,0,0,1,50.11,0a3.71,3.71,0,0,1,1.47.67,25.4,25.4,0,0,1,2.21,1.54,23.94,23.94,0,0,1,2,1.69c.57.56.86,1,.86,1.22a.31.31,0,0,1-.19.29l-.32.16a8.44,8.44,0,0,1-2,.29q-1.47.09-3.42.12l-4.19.07q-2.25,0-4.32,0L38.4,6H35.84l-.38.32-.07.25a.65.65,0,0,0,.35.48,3,3,0,0,0,.68.26l.73.19.61.16.19.26-.19.25c-.73.38-1.47.72-2.24,1a7.74,7.74,0,0,0-2.11,1.28l-.13.32.13.38.45.31h7.55a1.7,1.7,0,0,0,1.18-.61A12.11,12.11,0,0,0,43.74,9.6c.37-.47.7-.91,1-1.31s.55-.61.76-.61a2.27,2.27,0,0,1,.77.13,5.92,5.92,0,0,1,1.28.83c.68.51,1.39,1.08,2.11,1.7s1.39,1.2,2,1.76.87.9.83,1a1,1,0,0,1-.35.41c-.19.15-.41.3-.64.45a7.09,7.09,0,0,0-.64.45.63.63,0,0,0-.29.49V25.21c0,.21-.31.43-.93.64a17.55,17.55,0,0,1-2.08.58c-.77.17-1.51.3-2.24.39s-1.21.12-1.47.12a.72.72,0,0,1-.58-.22,1.5,1.5,0,0,1-.28-.55c-.07-.21-.14-.44-.23-.67a1.54,1.54,0,0,0-.38-.61,25,25,0,0,0-2.56-.42,8.31,8.31,0,0,0-1.73,0c-.51.06-.77.25-.77.55V35.46a1.7,1.7,0,0,1-.7,1.47,11,11,0,0,1-1.54.93,14.62,14.62,0,0,0-1.53.86,1.38,1.38,0,0,0-.71,1.22,1.51,1.51,0,0,0,.74,1.18c.49.36,1,.75,1.63,1.15a9.55,9.55,0,0,1,1.63,1.41,2.87,2.87,0,0,1,.74,2,3.63,3.63,0,0,1-.77,2.43A4.37,4.37,0,0,1,35,49.41a4.8,4.8,0,0,1-1.95.32,1.72,1.72,0,0,1-1.25-.45A8.94,8.94,0,0,1,31,48.19a12.64,12.64,0,0,0-.84-1.09c-.21-.25-.62-.68-1.21-1.28s-1.21-1.22-1.83-1.88-1.16-1.28-1.63-1.86a2.56,2.56,0,0,1-.7-1.25c0-.17.17-.3.51-.38a4.68,4.68,0,0,1,1.18-.13q.67,0,1.32,0l.83,0c.21,0,.34-.15.38-.44s.07-.52.07-.64a3,3,0,0,0-.42-1.54,14.23,14.23,0,0,0-.9-1.34c-.32-.43-.6-.84-.86-1.22a1.94,1.94,0,0,1-.38-1.09c0-.17.18-.29.54-.35a11.59,11.59,0,0,0,1.15-.26,5,5,0,0,0,1.15-.44,1,1,0,0,0,.55-1c0-.38,0-.93,0-1.66s0-1.47,0-2.24,0-1.49,0-2.18a5.85,5.85,0,0,0-.16-1.41ZM.38,53.18A3.11,3.11,0,0,1,1,52.06c.43-.57,1-1.23,1.64-2S4,48.55,4.83,47.74s1.55-1.56,2.27-2.27S8.46,44.19,9,43.74a2.66,2.66,0,0,1,1.06-.67c.25,0,.46.24.61.71a8.54,8.54,0,0,1,.32,1.6c.06.59.1,1.18.12,1.76s0,1,0,1.12a11.08,11.08,0,0,1-.8,4.48,7.68,7.68,0,0,1-2,2.78,5.54,5.54,0,0,1-2.59,1.25,5.46,5.46,0,0,1-2.59-.1,4.21,4.21,0,0,1-2-1.25A3.23,3.23,0,0,1,.38,53.18Zm24-9.85a1.08,1.08,0,0,1-.51.73.7.7,0,0,0-.38.61V51l.19.45.45.44.45.2H38a2.14,2.14,0,0,0,1.57-.8,10.87,10.87,0,0,0,1.31-1.76c.39-.64.72-1.23,1-1.76s.53-.8.74-.8.28.18.32.54a11.18,11.18,0,0,1,.06,1.22c0,.44,0,.89,0,1.34s0,.74,0,.86a.68.68,0,0,0,.45.61,7.43,7.43,0,0,1,1,.58,3.79,3.79,0,0,1,1,1A3.23,3.23,0,0,1,45.7,55,2.7,2.7,0,0,1,45,56.9a5.39,5.39,0,0,1-1.79,1.21,9.79,9.79,0,0,1-2.24.64,13,13,0,0,1-2.08.19H19.2a3,3,0,0,1-1.47-.38,4.13,4.13,0,0,1-1.22-1,5.88,5.88,0,0,1-.83-1.41,3.91,3.91,0,0,1-.32-1.47V42.88a.56.56,0,0,1,.64-.64,23.49,23.49,0,0,1,4,.35c1.32.24,2.67.42,4,.55Zm1-30.91a.56.56,0,0,0-.64.64v9.79a.57.57,0,0,0,.64.64H42.05a.57.57,0,0,0,.64-.64V13.06a.57.57,0,0,0-.64-.64Zm.89,5.63a.3.3,0,0,1,.2-.07h1.69l2.88,0q1.63,0,3.39,0t3.27,0l2.53,0a5,5,0,0,1,1.15.07l-.45.19a1.32,1.32,0,0,1-.45.13H27ZM51.39,38.91a2.3,2.3,0,0,1-1.85-.83c-.35-.38-.69-.8-1-1.25s-.68-.86-1-1.25c-.81-.89-1.65-1.76-2.5-2.59s-1.7-1.67-2.56-2.53a3.39,3.39,0,0,1-.48-.38,6.7,6.7,0,0,1-.64-.67A1.07,1.07,0,0,1,41,28.8c0-.17.2-.26.58-.26,1.11,0,2.43.08,4,.23a18.93,18.93,0,0,1,4.41,1,10.48,10.48,0,0,1,3.62,2.08,4.56,4.56,0,0,1,1.5,3.58,3.38,3.38,0,0,1-1,2.69A4.09,4.09,0,0,1,51.39,38.91ZM54.4,56a4.24,4.24,0,0,1-2.85-1.18A14.39,14.39,0,0,1,49.18,52a29.5,29.5,0,0,1-1.88-3.39c-.56-1.18-1-2.15-1.48-2.91L45.38,45c-.22-.36-.44-.75-.68-1.15l-.64-1.12a2.08,2.08,0,0,1-.28-.64c0-.13.11-.2.35-.23l.48,0a16.36,16.36,0,0,1,4.35.67,17.24,17.24,0,0,1,4.38,1.92,11.83,11.83,0,0,1,3.36,3.08,6.84,6.84,0,0,1,1.35,4.19,5.64,5.64,0,0,1-.8,3.1A3.13,3.13,0,0,1,54.4,56Z"/></g></g></svg>