<svg xmlns="http://www.w3.org/2000/svg" viewBox="0 0 58.84 55.68"><defs><style>.cls-1{fill:#fff;}</style></defs><g id="图层_2" data-name="图层 2"><g id="图层_1-2" data-name="图层 1"><path class="cls-1" d="M19.09,22.21a1.22,1.22,0,0,1-.7,1,1,1,0,0,0-.64.93L17.3,54.21a.57.57,0,0,0,.64.64h7.75a.57.57,0,0,0,.64-.64V7.68A.57.57,0,0,0,25.69,7H4a.29.29,0,0,1-.32-.32A.29.29,0,0,1,4,6.4H42.2c.17,0,.53-.29,1.09-.86s1.13-1.23,1.72-2,1.17-1.43,1.7-2.11S47.59.34,47.77.13L48.09,0A3.59,3.59,0,0,1,49,.51c.45.3,1,.67,1.57,1.12s1.22,1,1.86,1.51L54.2,4.67A16.25,16.25,0,0,1,55.51,6c.34.39.51.62.51.71a.27.27,0,0,1-.06.19L55.51,7H36.37a1,1,0,0,0-.7.45,1.24,1.24,0,0,0-.38.7V27.71a1.93,1.93,0,0,0,.16.77,2.12,2.12,0,0,1,.16.77,2.17,2.17,0,0,1-.16.77,1.89,1.89,0,0,0-.16.76V54.21a.57.57,0,0,0,.64.64h8.89c.3,0,.71-.33,1.22-1s1.05-1.39,1.63-2.18,1.12-1.51,1.63-2.18.9-1,1.15-1a7.52,7.52,0,0,1,1.38.9c.83.6,1.74,1.27,2.72,2s1.89,1.47,2.72,2.15a13.11,13.11,0,0,1,1.44,1.28l.13.19c0,.17-.12.32-.35.45a1.32,1.32,0,0,1-.61.19H.6a.57.57,0,0,1-.55-.32C0,55.15,0,55,.21,55H7.77a.57.57,0,0,0,.64-.64V21.76a.56.56,0,0,1,.64-.64,46.54,46.54,0,0,1,4.86.26q2.43.26,4.86.57Zm17.73,7.17c.09-.09.15-.13.19-.13a19.5,19.5,0,0,0,3.08-.8,7.28,7.28,0,0,0,1.69-.87,2.6,2.6,0,0,0,.87-1c.17-.36.37-.73.6-1.12s.54-.81.9-1.28a6.75,6.75,0,0,1,1.76-1.47,1,1,0,0,1,.45-.13,11.71,11.71,0,0,1,1.15.87l2.43,1.92c.9.7,1.73,1.37,2.5,2s1.21,1,1.34,1.15a.72.72,0,0,1,.16.77.6.6,0,0,1-.61.39H37.59a1.3,1.3,0,0,1-.77-.32Z"/></g></g></svg>