<svg xmlns="http://www.w3.org/2000/svg" viewBox="0 0 58.82 59.78"><defs><style>.cls-1{fill:#fff;}</style></defs><g id="图层_2" data-name="图层 2"><g id="图层_1-2" data-name="图层 1"><path class="cls-1" d="M16.06,2.69v8.45c0,.38.22.57.64.57a1.43,1.43,0,0,0,.84-.32,8.13,8.13,0,0,0,.86-.73c.28-.28.54-.57.8-.87A5.5,5.5,0,0,0,19.78,9l.38-.19.32.19a7.56,7.56,0,0,0,1.28,1.38L23.58,12a13.72,13.72,0,0,1,1.6,1.67,2.47,2.47,0,0,1,.68,1.47.62.62,0,0,1-.1.41,1.3,1.3,0,0,1-.35.23,14.61,14.61,0,0,0-3.71,2.91,42,42,0,0,0-2.95,3.68,5.6,5.6,0,0,1-.45.58c-.21.25-.42.51-.64.76a9.07,9.07,0,0,0-.54.74,1.13,1.13,0,0,0-.22.54c0,.35.47.68,1.4,1s2,.73,3.11,1.24a13.66,13.66,0,0,1,3.1,2,3.85,3.85,0,0,1,1.41,3.1,3.22,3.22,0,0,1-1.06,2.46,3.51,3.51,0,0,1-2.52,1A2.45,2.45,0,0,1,20,34.53a11.46,11.46,0,0,1-1.09-2.72c-.25-1-.51-1.89-.76-2.72s-.67-1.25-1.22-1.25-.64.19-.64.58V57.09a1.57,1.57,0,0,1-1,1.41,9.33,9.33,0,0,1-2.24.8,17.39,17.39,0,0,1-2.56.38c-.85.06-1.49.1-1.92.1A.57.57,0,0,1,8,59.14V34.05q0-.51-.45-.51a3.63,3.63,0,0,0-1.73.67c-.72.45-1.45.94-2.17,1.47l-2,1.47a3,3,0,0,1-1.15.67.22.22,0,0,1-.25-.25,4.64,4.64,0,0,1,1-1.92c.66-.94,1.42-1.94,2.27-3s1.69-2.08,2.5-3l1.72-2C8.3,26.86,8.92,26,9.6,24.93s1.35-2.14,2-3.27,1.27-2.25,1.82-3.36a26.35,26.35,0,0,0,1.28-2.94,1.68,1.68,0,0,0,0-.9.56.56,0,0,0-.61-.51H.64a.78.78,0,0,1-.38-.16A.41.41,0,0,1,0,13.44c0-.17.25-.26.74-.26h.92c.22,0,.67.05,1.35.13a20.46,20.46,0,0,0,2.14.16,9.41,9.41,0,0,0,2-.13c.57-.1.86-.33.86-.67V.64C8,.21,8.26,0,8.77,0l1.76,0c.87,0,1.79.08,2.75.16a20.15,20.15,0,0,1,2.56.39c.75.17,1.12.4,1.12.7a.81.81,0,0,1-.29.54l-.41.42ZM36.8,24l-.45.45-.19.45c0,2.17-.11,4.28-.19,6.33a57.12,57.12,0,0,1-.58,6.05,40.41,40.41,0,0,1-1.34,5.89,37.75,37.75,0,0,1-2.43,5.92A18.94,18.94,0,0,1,28.93,53q-1.61,1.8-3.27,3.46c-.12.13-.38.35-.76.67s-.78.63-1.19.93a5.39,5.39,0,0,1-1.15.67c-.36.15-.61.07-.74-.22a.51.51,0,0,1,.07-.32,76.32,76.32,0,0,0,4.19-11.75,48.73,48.73,0,0,0,1.5-12.38V6.4c0-.38.22-.58.64-.58a6,6,0,0,1,1.92.45c.81.3,1.63.62,2.44,1s1.56.64,2.27.9a2.62,2.62,0,0,0,1.44.25A28.24,28.24,0,0,0,41.41,6q2.43-1.47,4.67-3.13c.17-.13.42-.33.74-.61s.65-.55,1-.8.67-.49,1-.71a2.43,2.43,0,0,1,.8-.38L50,.45c.26.25.8.76,1.64,1.5s1.7,1.55,2.62,2.4S56,6,56.7,6.72,57.79,7.87,57.79,8s-.1.22-.32.29a2.7,2.7,0,0,1-.73.09l-.84,0-.54,0a48.11,48.11,0,0,0-7,.51l-7,1a22.14,22.14,0,0,1-2.33.25,9.89,9.89,0,0,0-2.27.39.62.62,0,0,0-.58.64V22.27a.56.56,0,0,0,.64.64H47.68a1.72,1.72,0,0,0,1.47-.8,11.42,11.42,0,0,0,1.06-1.79c.32-.66.64-1.26,1-1.79a1.35,1.35,0,0,1,1.12-.8,3,3,0,0,1,1.25.7c.61.47,1.28,1,2,1.6s1.38,1.19,2,1.76,1.06,1,1.28,1.19l-.07.38-.83.45c-.21,0-.62,0-1.22-.07s-1.21-.06-1.85-.06a8.28,8.28,0,0,0-1.73.16c-.51.11-.77.31-.77.61v33c0,.51-.34.93-1,1.25a9.05,9.05,0,0,1-2.37.7,22.32,22.32,0,0,1-2.62.29c-.86,0-1.48.07-1.86.07a.57.57,0,0,1-.64-.64V24.45a.56.56,0,0,0-.64-.64h-6Z"/></g></g></svg>