<svg xmlns="http://www.w3.org/2000/svg" viewBox="0 0 64 64"><defs><style>.cls-1{fill:#fff;}.cls-2{fill:none;}</style></defs><g id="图层_2" data-name="图层 2"><g id="图层_1-2" data-name="图层 1"><path class="cls-1" d="M18.66,4.8v8.45c0,.38.21.57.64.57a1.43,1.43,0,0,0,.83-.32,6.41,6.41,0,0,0,.86-.73c.28-.28.55-.57.8-.87a5.5,5.5,0,0,0,.58-.76l.38-.2.32.2a7.9,7.9,0,0,0,1.28,1.37l1.83,1.63a15.43,15.43,0,0,1,1.6,1.67,2.5,2.5,0,0,1,.67,1.47.61.61,0,0,1-.1.42,1.33,1.33,0,0,1-.35.22,14.79,14.79,0,0,0-3.71,2.91,43.89,43.89,0,0,0-2.95,3.68,6.82,6.82,0,0,1-.44.58c-.22.25-.43.51-.64.77a6.34,6.34,0,0,0-.55.73,1.16,1.16,0,0,0-.22.55q0,.51,1.41,1c.93.32,2,.73,3.1,1.25a13.08,13.08,0,0,1,3.1,1.95,3.85,3.85,0,0,1,1.41,3.1,3.26,3.26,0,0,1-1.05,2.47,3.58,3.58,0,0,1-2.53,1,2.45,2.45,0,0,1-2.31-1.25,11,11,0,0,1-1.08-2.72c-.26-1-.52-1.89-.77-2.72S20.11,30,19.55,30s-.64.19-.64.58V59.2a1.56,1.56,0,0,1-1,1.41,8.78,8.78,0,0,1-2.24.8,17.19,17.19,0,0,1-2.56.38c-.85.07-1.49.1-1.92.1a.57.57,0,0,1-.64-.64V36.16q0-.51-.45-.51a3.6,3.6,0,0,0-1.72.67c-.73.45-1.45.94-2.18,1.47l-2,1.47a3.18,3.18,0,0,1-1.16.68c-.17,0-.25-.09-.25-.26a4.64,4.64,0,0,1,1-1.92c.66-.94,1.42-1.94,2.27-3s1.69-2.08,2.5-3,1.38-1.63,1.73-2c.55-.73,1.17-1.61,1.85-2.66s1.36-2.13,2-3.26,1.27-2.25,1.82-3.36a24.67,24.67,0,0,0,1.28-3,1.64,1.64,0,0,0,0-.89.56.56,0,0,0-.6-.52H3.23a.82.82,0,0,1-.38-.16.43.43,0,0,1-.26-.35c0-.17.25-.25.74-.25h.93c.21,0,.66,0,1.34.12a20.67,20.67,0,0,0,2.14.16,9.45,9.45,0,0,0,2-.12c.57-.11.86-.33.86-.68v-12c0-.42.26-.64.77-.64l1.76,0c.87,0,1.79.08,2.75.16a20.15,20.15,0,0,1,2.56.39c.75.17,1.12.4,1.12.7a.81.81,0,0,1-.29.55l-.41.41ZM39.39,26.11l-.45.45-.19.45c0,2.17-.1,4.29-.19,6.33a57.12,57.12,0,0,1-.58,6,40.12,40.12,0,0,1-1.34,5.89,37.37,37.37,0,0,1-2.43,5.92,18.56,18.56,0,0,1-2.69,3.9q-1.61,1.8-3.26,3.46c-.13.13-.39.35-.77.67s-.78.63-1.19.93a5.39,5.39,0,0,1-1.15.67c-.36.15-.61.08-.73-.22a.53.53,0,0,1,.06-.32,76.32,76.32,0,0,0,4.19-11.75,48.66,48.66,0,0,0,1.51-12.38V8.51c0-.38.21-.57.64-.57a6.21,6.21,0,0,1,1.92.44q1.21.45,2.43,1c.81.35,1.57.64,2.27.9a2.66,2.66,0,0,0,1.44.26A27.63,27.63,0,0,0,44,8.06q2.43-1.47,4.67-3.13c.17-.13.42-.33.74-.61s.65-.54,1-.8.67-.49,1-.7a2.49,2.49,0,0,1,.8-.39l.39.13c.25.26.8.76,1.63,1.5s1.7,1.55,2.62,2.4,1.74,1.65,2.47,2.37,1.08,1.15,1.08,1.28-.1.23-.32.29a2.63,2.63,0,0,1-.73.1,7.56,7.56,0,0,1-.83,0l-.55,0a48.22,48.22,0,0,0-7,.51c-2.3.35-4.63.69-7,1a20.17,20.17,0,0,1-2.34.25,10.46,10.46,0,0,0-2.27.39.62.62,0,0,0-.58.64V24.38a.57.57,0,0,0,.64.64H50.27a1.72,1.72,0,0,0,1.47-.8,11.42,11.42,0,0,0,1.06-1.79c.32-.66.64-1.26,1-1.79a1.35,1.35,0,0,1,1.12-.8,3,3,0,0,1,1.25.7c.62.47,1.28,1,2,1.6s1.38,1.19,2,1.76,1.06,1,1.28,1.19l-.07.38-.83.45c-.21,0-.62,0-1.21-.06s-1.22-.07-1.86-.07a9,9,0,0,0-1.73.16c-.51.11-.77.31-.77.61v33c0,.52-.34.93-1,1.25a9,9,0,0,1-2.37.71,22,22,0,0,1-2.62.28c-.86,0-1.47.07-1.86.07a.57.57,0,0,1-.64-.64V26.56a.56.56,0,0,0-.64-.64H39.84Z"/><rect class="cls-2" width="64" height="64"/></g></g></svg>