<svg xmlns="http://www.w3.org/2000/svg" viewBox="0 0 59.4 59.01"><defs><style>.cls-1{fill:#5e525e;}</style></defs><g id="图层_2" data-name="图层 2"><g id="图层_1-2" data-name="图层 1"><path class="cls-1" d="M7.37,24.83a3.43,3.43,0,0,1-2.3-.8,8.28,8.28,0,0,1-1.7-2,16.54,16.54,0,0,1-1.28-2.43c-.36-.86-.69-1.6-1-2.24a3.9,3.9,0,0,1-.32-.48A9.51,9.51,0,0,1,.3,16,3.31,3.31,0,0,1,0,15.2c0-.23,0-.35.26-.35a21.26,21.26,0,0,1,3.29.29,14.38,14.38,0,0,1,3.59,1A8.44,8.44,0,0,1,10,18.11a4.29,4.29,0,0,1,1.16,3.07C11.15,23.62,9.89,24.83,7.37,24.83Zm-5,16.26A1,1,0,0,1,3,40.77,8.93,8.93,0,0,0,5.87,39.2a10.74,10.74,0,0,0,2-2.27,14.81,14.81,0,0,0,1.48-2.79c.4-1,.8-2,1.18-3.1a54.7,54.7,0,0,1,2.5-6q1.39-2.88,2.81-5.88c.13-.26.31-.65.55-1.19s.5-1.09.8-1.66.57-1.1.83-1.57a3,3,0,0,1,.64-.9,4.07,4.07,0,0,1,.16,1.73c-.07.68-.14,1.26-.22,1.73a31.26,31.26,0,0,1-1.56,6.27Q16,26.63,14.83,29.63c-.76,2-1.43,4-2,6.11A23.92,23.92,0,0,0,12,42.11,10.07,10.07,0,0,0,12.39,45c.28.92.58,1.82.9,2.72s.62,1.79.9,2.69a9.65,9.65,0,0,1,.41,2.81,6.27,6.27,0,0,1-1.37,4.26A5.35,5.35,0,0,1,9,59a5.64,5.64,0,0,1-2.68-.64A2.45,2.45,0,0,1,5.13,56c0-.81.06-1.88.19-3.2s.22-2.68.26-4.06a17.32,17.32,0,0,0-.29-3.84,4.53,4.53,0,0,0-1.38-2.66,6.52,6.52,0,0,0-.8-.58A4.19,4.19,0,0,1,2.38,41.09ZM13.26,11.14a3.73,3.73,0,0,1-2.5-.87A8.85,8.85,0,0,1,9,8.19,25.11,25.11,0,0,1,7.56,5.63C7.14,4.74,6.73,4,6.35,3.26A4.38,4.38,0,0,1,6,2.78a6.71,6.71,0,0,1-.51-.86,5.1,5.1,0,0,1-.32-.8c-.06-.23,0-.35.23-.35A28.07,28.07,0,0,1,8.87,1a15.93,15.93,0,0,1,3.88,1,9.41,9.41,0,0,1,3.13,2,4.21,4.21,0,0,1,1.28,3.17A3.92,3.92,0,0,1,16.07,10,3.76,3.76,0,0,1,13.26,11.14ZM41.42,2.88v25a.65.65,0,0,0,.35.54,1.25,1.25,0,0,0,.67.23c.86-.09,1.68-.15,2.47-.19s1.61-.11,2.46-.2a2.13,2.13,0,0,0,1.34-1,14.81,14.81,0,0,0,1.32-2c.4-.72.79-1.39,1.15-2s.67-.9.93-.9a4.3,4.3,0,0,1,1.4,1c.77.64,1.59,1.35,2.47,2.14s1.66,1.55,2.37,2.28,1,1.15,1,1.28a.16.16,0,0,1-.13.16,1.07,1.07,0,0,1-.25,0H42.51l-.45.19A28.5,28.5,0,0,0,38,34.59q-1.76,2.85-3.61,5.54a26,26,0,0,1-3.27,3.74c-1.19,1.13-2.39,2.25-3.58,3.36l-.19.45c0,.34.13.51.38.51q4.17,0,8.23-.41a79.93,79.93,0,0,1,8.22-.42c.43,0,1,0,1.79.06a3,3,0,0,0,1.67-.25l.19-.45a7.07,7.07,0,0,0-1-2.21c-.51-.83-1-1.67-1.6-2.53s-1.06-1.68-1.51-2.49a4.71,4.71,0,0,1-.67-2.18l.26-.25a11.82,11.82,0,0,1,5.25,1.53,22.35,22.35,0,0,1,5,3.71,21.24,21.24,0,0,1,3.81,5A11,11,0,0,1,59,52.54a10.73,10.73,0,0,1-.19,2.08,5.08,5.08,0,0,1-.67,1.76,3.66,3.66,0,0,1-1.31,1.25,4.06,4.06,0,0,1-2.05.48,3.67,3.67,0,0,1-3.1-1.37,11.83,11.83,0,0,1-1.7-3.11,16.12,16.12,0,0,1-.77-3.2c0-.13-.09-.38-.16-.77s-.18-.57-.35-.57H47.24L24,56.7a3.88,3.88,0,0,0-1.22.71,3,3,0,0,1-1.21.64l-.39-.19q-.37-.64-1.08-1.92c-.47-.86-.93-1.74-1.38-2.66s-.84-1.79-1.18-2.62a5.52,5.52,0,0,1-.52-2c0-.47.38-.72,1.12-.76a17.44,17.44,0,0,1,2.56.06c1,.09,1.89.15,2.79.19a2.68,2.68,0,0,0,1.85-.38,2.4,2.4,0,0,0,.45-.45,2.86,2.86,0,0,0,.32-.51,7.44,7.44,0,0,0,.48-1.38c.24-.79.51-1.75.83-2.88s.64-2.34,1-3.65.62-2.52.9-3.68.51-2.14.7-3a9.53,9.53,0,0,0,.29-1.51v-1c0-.38-.21-.57-.64-.57H18.25a.29.29,0,0,1-.32-.32.28.28,0,0,1,.32-.32H31.82a.57.57,0,0,0,.64-.64V.64A.56.56,0,0,1,33.1,0C34.55,0,36,0,37.51.1a22.34,22.34,0,0,1,4.36.6l.44.16a.37.37,0,0,1,.26.36,1.19,1.19,0,0,1-.38.67,3.46,3.46,0,0,1-.58.54Zm-21.76,8.9a2.46,2.46,0,0,1-.32.89l-.13-.06.32-.9Zm1.09,3-.13-.19c0-.13.22-.22.54-.29s.67-.11,1.06-.16l1.12-.09.73,0h4.8c.26,0,.67,0,1.22.09s.9.2,1,.42c0,.08-.23.18-.57.29a3.86,3.86,0,0,1-.64.16H21.19ZM43,14.46c0-.08.21-.16.51-.22s.64-.12,1-.16L45.71,14a1.81,1.81,0,0,0,.83-.25,3.64,3.64,0,0,0,1.05-1.25c.37-.62.73-1.25,1.09-1.89a13.92,13.92,0,0,1,1.12-1.7A1.56,1.56,0,0,1,51,8.13a3.48,3.48,0,0,1,1.54.8,26.63,26.63,0,0,1,2.24,1.85,28.41,28.41,0,0,1,2.05,2.08,3,3,0,0,1,.89,1.48c0,.17-.2.32-.6.44a3.75,3.75,0,0,1-.8.2H44.11A1.5,1.5,0,0,1,43,14.46Z"/></g></g></svg>