<svg xmlns="http://www.w3.org/2000/svg" viewBox="0 0 58.75 59.58"><defs><style>.cls-1{fill:#fff;}</style></defs><g id="图层_2" data-name="图层 2"><g id="图层_1-2" data-name="图层 1"><path class="cls-1" d="M.19,22.46l2.82,0c1.45,0,3,0,4.61,0s3.08,0,4.38,0a16.94,16.94,0,0,1,2.14.1c-.08,0-.23.11-.44.19a1.45,1.45,0,0,1-.45.13H.19L0,22.66Zm36.55,3.08a1.32,1.32,0,0,1-.42.73,1.75,1.75,0,0,0-.48.67,4.25,4.25,0,0,0-.22.93,10.26,10.26,0,0,0-.13,1.28c0,.45-.05.89-.07,1.31s0,.75,0,1v26c0,.42-.31.78-.93,1.05a10.45,10.45,0,0,1-2.11.68,19.36,19.36,0,0,1-2.37.35c-.79.06-1.33.09-1.63.09a.56.56,0,0,1-.64-.64q0-3.19-.06-6.3t-.13-6.3q-.19-10.25-.19-20.48A3.34,3.34,0,0,0,26.82,24a1.85,1.85,0,0,0-1.67-.8h-.51a1.25,1.25,0,0,0-.45.07,7.89,7.89,0,0,0-.93,1.12c-.53.7-1.11,1.49-1.72,2.36l-1.76,2.5c-.56.79-.9,1.29-1,1.5a1.75,1.75,0,0,0,1.12,1,9.45,9.45,0,0,0,2.05.57,19,19,0,0,0,2.24.26c.75,0,1.31.06,1.7.06l.19.2-.19.19H21.18l-.44.19-.52.51-.19.45V54c0,.47-.3.85-.89,1.15a8,8,0,0,1-2.12.67,22.93,22.93,0,0,1-2.36.32c-.77.06-1.33.1-1.67.1a.57.57,0,0,1-.64-.64v-18c0-.38-.21-.57-.64-.57a3.57,3.57,0,0,0-2.17,1c-.81.68-1.66,1.44-2.53,2.27s-1.75,1.59-2.63,2.27a4.1,4.1,0,0,1-2.52,1c-.26,0-.39-.11-.39-.32a11.88,11.88,0,0,1,1.31-1.7c.88-1,2-2.38,3.27-4s2.72-3.45,4.25-5.5,3-4.11,4.26-6.18a50.56,50.56,0,0,0,3.26-6A12.25,12.25,0,0,0,19.14,15a.57.57,0,0,0-.64-.64,18.67,18.67,0,0,0-3.27.28c-1.06.18-2.12.39-3.17.62s-2.11.43-3.2.62a19.65,19.65,0,0,1-3.23.27,1.39,1.39,0,0,1-.89-.25.58.58,0,0,1,.64-.45,47.92,47.92,0,0,1,7.32-2.34q3.75-.86,7.46-2a11.61,11.61,0,0,0,1.12-.32l1.63-.54c.56-.2,1.06-.4,1.51-.61a1.81,1.81,0,0,0,.8-.58,1.2,1.2,0,0,0-.64-.7L11.2,3.84A1.52,1.52,0,0,0,11,3.65a.43.43,0,0,1-.16-.19l.12-.13a5.12,5.12,0,0,1,.9-.07,32.78,32.78,0,0,1,5.06.4c1.66.26,3.31.56,5,.88s3.29.62,5,.89a32.65,32.65,0,0,0,5.05.39,3.66,3.66,0,0,0,1.22-.41c.6-.28,1.29-.64,2.08-1.09l2.46-1.41Q38.9,2.17,40,1.5c.7-.44,1.3-.81,1.79-1.08A3.65,3.65,0,0,1,42.62,0,4.23,4.23,0,0,1,44,.8c.72.53,1.48,1.12,2.27,1.76s1.5,1.26,2.14,1.86,1,1,1,1.08-.13.24-.41.32a3.93,3.93,0,0,0-.55.2l-1.85.41c-.9.19-1.83.42-2.79.67A19.57,19.57,0,0,0,41.18,8c-.74.32-1.12.65-1.12,1s.34.85,1,1.28,1.42.92,2.21,1.47a14.37,14.37,0,0,1,2.2,1.95,3.88,3.88,0,0,1,1,2.72,2.15,2.15,0,0,1-1.15,2.15,5.82,5.82,0,0,1-2.5.54A6.23,6.23,0,0,1,39.26,18c-1-.71-2.07-1.5-3.07-2.34a36.09,36.09,0,0,0-3.1-2.35,6.37,6.37,0,0,0-3.65-1.08,25.38,25.38,0,0,0-3,.2,4.36,4.36,0,0,0-2.65,1.2l-.19.45c0,.25.26.47.67.67a12.25,12.25,0,0,0,1.37.54c.52.17,1,.31,1.54.44a3.09,3.09,0,0,1,1.09.45l.19.38a1.41,1.41,0,0,1-.54.79c-.32.28-.68.61-1.06,1a8.1,8.1,0,0,0-1.06,1.3,3.12,3.12,0,0,0-.48,1.75A.57.57,0,0,0,26,22H46.91A1.65,1.65,0,0,0,48,21.34a14.14,14.14,0,0,0,1.22-1.56c.4-.6.79-1.19,1.15-1.76a6.78,6.78,0,0,1,.93-1.25l.32-.13a11.8,11.8,0,0,1,1.47,1c.77.56,1.57,1.17,2.4,1.86s1.58,1.32,2.24,1.92,1,1,1,1.08a.56.56,0,0,1-.64.64H28.67a.93.93,0,0,0-.48.2.88.88,0,0,0-.38.44.57.57,0,0,0,.06.52,1,1,0,0,0,.74.32l7.87.83Zm.06,7a2.86,2.86,0,0,1,.86-.1c.49,0,1,0,1.6,0H42c.22,0,.53-.21.93-.64s.82-.89,1.25-1.38.84-.95,1.25-1.37.71-.64.93-.64a2.39,2.39,0,0,1,.7.12c.17.09.61.39,1.31.9s1.42,1.07,2.15,1.66,1.38,1.18,2,1.73.9.9.9,1a.74.74,0,0,1-.32.57,8.29,8.29,0,0,1-.68.48,8.12,8.12,0,0,0-.67.48.7.7,0,0,0-.32.51V50.62a3,3,0,0,1-1,2.18,8.89,8.89,0,0,1-2.3,1.63,13.58,13.58,0,0,1-2.79,1,10.72,10.72,0,0,1-2.4.35.54.54,0,0,1-.48-.26,1.78,1.78,0,0,1-.22-.64c0-.25-.07-.51-.1-.77s0-.46,0-.64a11.4,11.4,0,0,0-.7-2.88,13.57,13.57,0,0,0-1.54-2.49,1.29,1.29,0,0,1-.22-.32.81.81,0,0,1-.1-.39c0-.25.14-.39.42-.41a8.13,8.13,0,0,1,1,0,7.37,7.37,0,0,0,1.15,0,1.25,1.25,0,0,0,.9-.52,3.49,3.49,0,0,0,.13-.89c0-.56.07-1.25.09-2.08s.06-1.73.1-2.69.07-1.88.09-2.75,0-1.64.07-2.31,0-1.09,0-1.31q0-.57,0-1c0-.25-.29-.38-.8-.38-.22,0-.64,0-1.28.06s-1.3.07-2,.07a12.24,12.24,0,0,1-1.82-.13C37.07,33,36.8,32.83,36.8,32.58Z"/></g></g></svg>