<svg xmlns="http://www.w3.org/2000/svg" viewBox="0 0 64 64"><defs><style>.cls-1{fill:none;}.cls-2{fill:#fff;}</style></defs><g id="图层_2" data-name="图层 2"><g id="图层_1-2" data-name="图层 1"><rect class="cls-1" width="64" height="64"/><path class="cls-2" d="M3.27,25l2.82,0c1.45,0,3,0,4.61,0s3.08,0,4.38,0a15.3,15.3,0,0,1,2.15.1l-.45.19a1.65,1.65,0,0,1-.45.12H3.27l-.19-.19Zm36.55,3.07a1.36,1.36,0,0,1-.42.74,1.68,1.68,0,0,0-.48.67,4.56,4.56,0,0,0-.22.93,10.26,10.26,0,0,0-.13,1.28c0,.45,0,.88-.06,1.31s0,.75,0,1V60c0,.43-.31.78-.92,1.06a10.56,10.56,0,0,1-2.12.67,19.53,19.53,0,0,1-2.36.36c-.79.06-1.34.09-1.64.09a.57.57,0,0,1-.64-.64q0-3.19-.06-6.3c0-2.07-.09-4.17-.13-6.31q-.2-10.23-.19-20.48a3.3,3.3,0,0,0-.51-1.82,1.84,1.84,0,0,0-1.67-.8h-.51a1.53,1.53,0,0,0-.45.06A9,9,0,0,0,26.35,27c-.54.71-1.11,1.5-1.73,2.37l-1.76,2.5c-.56.79-.9,1.29-1,1.5a1.72,1.72,0,0,0,1.12,1,9.45,9.45,0,0,0,2.05.58,21.35,21.35,0,0,0,2.24.26c.75,0,1.31.06,1.7.06l.19.19-.19.19H24.27l-.45.2-.51.51-.2.45V56.56a1.32,1.32,0,0,1-.89,1.15,7.92,7.92,0,0,1-2.11.68c-.82.15-1.6.25-2.37.32s-1.33.09-1.67.09a.57.57,0,0,1-.64-.64v-18c0-.39-.21-.58-.64-.58a3.53,3.53,0,0,0-2.17,1c-.81.68-1.66,1.44-2.53,2.27s-1.75,1.59-2.62,2.27a4.19,4.19,0,0,1-2.53,1c-.26,0-.39-.1-.39-.32a11.89,11.89,0,0,1,1.32-1.69q1.31-1.57,3.26-4t4.26-5.51q2.29-3.06,4.25-6.17a53.06,53.06,0,0,0,3.27-6,12.42,12.42,0,0,0,1.31-4.93.57.57,0,0,0-.64-.64,19.68,19.68,0,0,0-3.27.27c-1.06.19-2.12.39-3.16.62s-2.12.44-3.2.62a18.83,18.83,0,0,1-3.24.28,1.39,1.39,0,0,1-.89-.26A.58.58,0,0,1,8.46,18a45.6,45.6,0,0,1,7.33-2.34c2.49-.58,5-1.23,7.45-1.95.21-.05.59-.15,1.12-.32s1.08-.35,1.63-.55a12.8,12.8,0,0,0,1.51-.61,1.75,1.75,0,0,0,.8-.57,1.19,1.19,0,0,0-.64-.71L14.28,6.39a1.81,1.81,0,0,0-.22-.2A.38.38,0,0,1,13.9,6L14,5.87a5.07,5.07,0,0,1,.89-.06,31.59,31.59,0,0,1,5.06.4c1.66.26,3.31.56,5,.88s3.29.62,5,.88a31.46,31.46,0,0,0,5.05.4A3.69,3.69,0,0,0,36.17,8c.6-.27,1.29-.64,2.08-1.08l2.46-1.41Q42,4.72,43.05,4.05c.7-.45,1.3-.81,1.79-1.09a3.62,3.62,0,0,1,.87-.41,4,4,0,0,1,1.34.8c.72.53,1.48,1.12,2.27,1.76S50.83,6.37,51.47,7s1,1,1,1.09-.14.24-.42.32a5.28,5.28,0,0,0-.54.19c-.35.09-1,.23-1.86.42s-1.82.41-2.78.67a17.76,17.76,0,0,0-2.56.87c-.75.31-1.12.65-1.12,1s.34.85,1,1.28,1.42.91,2.21,1.47a13.43,13.43,0,0,1,2.21,2,3.89,3.89,0,0,1,1,2.72,2.14,2.14,0,0,1-1.15,2.15,5.82,5.82,0,0,1-2.5.54,6.2,6.2,0,0,1-3.61-1.08c-1.05-.72-2.07-1.5-3.08-2.35a36.48,36.48,0,0,0-3.1-2.34,6.37,6.37,0,0,0-3.65-1.08,25.06,25.06,0,0,0-3,.19,4.37,4.37,0,0,0-2.66,1.21l-.19.44c0,.26.26.48.67.67a11.72,11.72,0,0,0,1.38.54q.77.25,1.53.45a3,3,0,0,1,1.09.44l.19.39a1.44,1.44,0,0,1-.54.79c-.32.28-.67.6-1.06,1a8.61,8.61,0,0,0-1.05,1.31,3.12,3.12,0,0,0-.48,1.75.56.56,0,0,0,.64.63H50a1.63,1.63,0,0,0,1.12-.67,14.31,14.31,0,0,0,1.22-1.57c.4-.59.79-1.18,1.15-1.76a7.57,7.57,0,0,1,.93-1.25l.32-.12a9.71,9.71,0,0,1,1.47,1c.77.55,1.57,1.17,2.4,1.85s1.58,1.33,2.24,1.92,1,1,1,1.09a.56.56,0,0,1-.64.64H31.75a1,1,0,0,0-.48.19.94.94,0,0,0-.38.45.58.58,0,0,0,.06.51,1,1,0,0,0,.74.32l7.87.83Zm.06,7a3.63,3.63,0,0,1,.87-.09c.49,0,1,0,1.6,0h2.72c.21,0,.52-.21.92-.64s.82-.88,1.25-1.37.84-.95,1.25-1.38.71-.64.93-.64a2.37,2.37,0,0,1,.7.13,13.92,13.92,0,0,1,1.31.9c.71.51,1.42,1.06,2.15,1.66s1.38,1.18,2,1.73.9.89.9,1a.74.74,0,0,1-.32.58c-.22.17-.44.33-.67.48a8.29,8.29,0,0,0-.68.48.7.7,0,0,0-.32.51V53.17a3,3,0,0,1-1,2.18A8.73,8.73,0,0,1,51.21,57a12.91,12.91,0,0,1-2.78,1,10.17,10.17,0,0,1-2.4.35.51.51,0,0,1-.48-.25,1.67,1.67,0,0,1-.23-.64c0-.26-.07-.51-.09-.77a5.57,5.57,0,0,1,0-.64,11.18,11.18,0,0,0-.7-2.88A13.94,13.94,0,0,0,43,50.67a1.13,1.13,0,0,1-.22-.32.86.86,0,0,1-.1-.38c0-.26.14-.39.42-.41a5.43,5.43,0,0,1,1,0,6.29,6.29,0,0,0,1.15,0,1.19,1.19,0,0,0,.9-.51,3.52,3.52,0,0,0,.13-.9q.06-.82.09-2.07c0-.84.06-1.73.1-2.69s.07-1.88.1-2.75,0-1.65.06-2.31,0-1.1,0-1.31c0-.38,0-.71,0-1s-.29-.39-.8-.39c-.21,0-.64,0-1.28.07s-1.3.06-2,.06a11.07,11.07,0,0,1-1.83-.13C40.15,35.55,39.88,35.38,39.88,35.12Z"/></g></g></svg>