<svg xmlns="http://www.w3.org/2000/svg" viewBox="0 0 60.16 59.14"><defs><style>.cls-1{fill:#5e525e;}</style></defs><g id="图层_2" data-name="图层 2"><g id="图层_1-2" data-name="图层 1"><path class="cls-1" d="M47,47.49a1.33,1.33,0,0,0,.54.25,2.48,2.48,0,0,0,.61.07,2.12,2.12,0,0,0,1.41-.32,1.32,1.32,0,0,0,.38-.67,5.88,5.88,0,0,0,.1-.68c0-.21.22-.32.61-.32a3.41,3.41,0,0,1,1.41.36,6.75,6.75,0,0,1,1.44.89,5.84,5.84,0,0,1,1.12,1.22,2.52,2.52,0,0,1,.44,1.37A1.5,1.5,0,0,1,54.27,51a3.2,3.2,0,0,1-1.6.48,1.23,1.23,0,0,1-.83-.26,3.91,3.91,0,0,1-.58-.57,3.91,3.91,0,0,0-.57-.58,1.42,1.42,0,0,0-.9-.25,7.56,7.56,0,0,0-1.37.16,7.38,7.38,0,0,0-1.7.51,5.16,5.16,0,0,0-1.41.86,1.53,1.53,0,0,0-.57,1.15,1.38,1.38,0,0,0,.09.45.36.36,0,0,0,.35.26h7.68a1.8,1.8,0,0,0,1.41-.67,8.67,8.67,0,0,0,1-1.48c.29-.53.58-1,.86-1.47a1.18,1.18,0,0,1,1-.67.61.61,0,0,1,.61.38,2.21,2.21,0,0,1,.16.87,8.47,8.47,0,0,1-.06,1,5.63,5.63,0,0,0-.07.77.58.58,0,0,0,.39.51A8,8,0,0,1,59,53a3.37,3.37,0,0,1,.8.86,2.93,2.93,0,0,1,.38,1.6,2.08,2.08,0,0,1-.9,1.76A6.73,6.73,0,0,1,57,58.24a15.8,15.8,0,0,1-3.1.51c-1.14.09-2.26.14-3.36.16s-2.13,0-3,0-1.62-.06-2.08-.06h-6c-.6,0-1.26,0-2-.1a6.9,6.9,0,0,1-2.05-.48,4.74,4.74,0,0,1-1.63-1.06A2.44,2.44,0,0,1,33,55.36V42.11c0-.21-.13-.34-.41-.38a5.36,5.36,0,0,0-.61-.07c-.17,0-.42.21-.74.61a14.35,14.35,0,0,0-1,1.41l-.92,1.54c-.3.49-.52.82-.64,1a46.58,46.58,0,0,1-3.52,4.38,36.31,36.31,0,0,1-4.48,4.19,24.4,24.4,0,0,1-5.16,3.14,13.28,13.28,0,0,1-5.47,1.22,3.63,3.63,0,0,1-.45-.07c-.21,0-.32-.13-.32-.25a.58.58,0,0,1,.39-.52A3.73,3.73,0,0,0,10.3,58,27.93,27.93,0,0,0,14,55.58a29,29,0,0,0,3.36-3,23.72,23.72,0,0,0,2.79-3.49,20.57,20.57,0,0,0,2-3.84.39.39,0,0,0,.06-.26c0-.59-.31-.85-.92-.77a13.54,13.54,0,0,0-2,.48,20.65,20.65,0,0,1-2.05.55c-.62.13-.93-.09-.93-.64V26.5a.57.57,0,0,1,.64-.64,7.91,7.91,0,0,1,2.37.35c.77.23,1.54.48,2.3.73s1.54.51,2.31.74a8.12,8.12,0,0,0,2.43.35l1.06,0a1.44,1.44,0,0,0,1-.22,1.2,1.2,0,0,0,.35-.8c.06-.4.13-.83.19-1.28a7.74,7.74,0,0,1,.26-1.18c.1-.35.29-.52.54-.52a2.65,2.65,0,0,1,.67.1,2.8,2.8,0,0,0,.68.1,4.7,4.7,0,0,0,2.49-.71,9.87,9.87,0,0,0,2.11-1.73,15.37,15.37,0,0,0,1.73-2.2l1.41-2.21c.21-.34.44-.67.67-1a3.82,3.82,0,0,0,.55-1.06,2.68,2.68,0,0,0,.06-.61c0-.23-.13-.35-.38-.35l-2.53,0c-1.13,0-2.31,0-3.52,0s-2.36.06-3.43.13a8,8,0,0,0-2.24.35c-.42,0-.6.08-.54.38a2.33,2.33,0,0,0,.29.77,2.06,2.06,0,0,0,1.21.48,17.23,17.23,0,0,1,2,.48,5.85,5.85,0,0,1,1.92,1,2.39,2.39,0,0,1,.86,2,1.41,1.41,0,0,1-.92,1.41,4.74,4.74,0,0,1-1.76.38,1.51,1.51,0,0,1-1.32-.58A4.65,4.65,0,0,1,29,19.9a7.81,7.81,0,0,0-.54-1.28,1.08,1.08,0,0,0-1-.57c-.09,0-.16.07-.23.22a1,1,0,0,0-.09.35,9.44,9.44,0,0,0-.16,2.6c.06.87.09,1.74.09,2.59,0,.21-.25.42-.77.64a11.26,11.26,0,0,1-1.72.54q-1,.23-1.89.39a10.54,10.54,0,0,1-1.25.16,1.09,1.09,0,0,1-.8-.29,1.81,1.81,0,0,1-.42-.67,4.31,4.31,0,0,1-.16-.84c0-.29,0-.57,0-.83a1.38,1.38,0,0,0-.09-.57c-.07-.13-.25-.2-.55-.2a2.56,2.56,0,0,0-1.09.39c-.47.25-.95.54-1.44.86s-1,.63-1.47.93a10,10,0,0,1-1.18.64L14,24.83a6.64,6.64,0,0,1,.7-1.76c.47-1,1-2,1.6-3.13S17.46,17.76,18,16.8A6.23,6.23,0,0,0,18.69,15a.4.4,0,0,0-.23-.42c-.15-.06-.28-.12-.41-.16H13.89l-.45-.19L13.31,14l.13-.32a4.94,4.94,0,0,1,1.09-.1c.59,0,1.27,0,2,0H20c.17,0,.3-.23.39-.67a5.56,5.56,0,0,0,0-1.54A6.82,6.82,0,0,0,20,9.66a2.44,2.44,0,0,0-.89-1.21A3.43,3.43,0,0,0,18,8.22c-.62-.06-1.31-.1-2-.12L13.82,8l-1.4,0a.4.4,0,0,0-.42.26,2.43,2.43,0,0,0-.13.6,4.21,4.21,0,0,0,0,.71q0,.35,0,.54a6.57,6.57,0,0,0,.23,1.73,6.62,6.62,0,0,1,.22,1.73v3.9q0,4.43-.16,9.28a83,83,0,0,1-.86,9.63,50.41,50.41,0,0,1-2.27,9.25,30.82,30.82,0,0,1-4.32,8.19c-.13.18-.4.48-.8.93s-.85.91-1.32,1.38-.91.88-1.34,1.25a2,2,0,0,1-.9.54A.31.31,0,0,1,0,57.63a4.71,4.71,0,0,1,0-.48,18.76,18.76,0,0,1,.64-4.89q.65-2.4,1.38-4.74t1.37-4.74A18.76,18.76,0,0,0,4,37.89V4.67c0-.47.19-.7.58-.7a5.3,5.3,0,0,1,1.89.45c.74.29,1.52.62,2.33,1s1.63.66,2.47,1a6.86,6.86,0,0,0,2.33.44c1.92,0,3.84.07,5.76.2s3.84.19,5.76.19l1,0a.61.61,0,0,0,.64-.68V.64c0-.43.25-.64.76-.64l1.73,0c.86,0,1.74.08,2.66.16a18.71,18.71,0,0,1,2.46.39c.73.17,1.09.38,1.09.64a.58.58,0,0,1-.1.38l-.22.32a4.29,4.29,0,0,0-.67,2c-.07.71-.1,1.4-.1,2.08a5,5,0,0,0,.07.74c0,.32.19.48.44.48h12.8A2,2,0,0,0,49,6.5,14,14,0,0,0,50.4,5,14.62,14.62,0,0,0,51.58,3.2a11.49,11.49,0,0,0,.71-1.41l.38-.19A5.48,5.48,0,0,1,54,2.5c.68.55,1.39,1.17,2.11,1.85s1.39,1.34,2,2,.89,1,.89,1.12-.15.35-.44.52a1.61,1.61,0,0,1-.64.25H44.42a.84.84,0,0,0-.32.07.25.25,0,0,0-.2.25c0,.39.26.64.77.77a14.59,14.59,0,0,0,1.67.32c.59.09,1.15.19,1.66.32s.77.34.77.64a3,3,0,0,1-.13.86,2.82,2.82,0,0,0-.13.87c0,.6.12,1,.35,1.09a2.8,2.8,0,0,0,1.19.19,2.22,2.22,0,0,0,1.47-.48,5.47,5.47,0,0,0,1-1.12,14.43,14.43,0,0,1,.93-1.19,2.11,2.11,0,0,1,1.25-.67,1,1,0,0,0,.22.1l.23.09a9.11,9.11,0,0,1,.73.58c.41.34.84.73,1.28,1.15s.85.81,1.19,1.15a3.17,3.17,0,0,1,.51.58c0,.34-.42.57-1.25.67a22,22,0,0,1-2.85.16c-1.06,0-2.1,0-3.1-.09s-1.65-.1-2-.1l-.45.19-.13.26s.07.07.07.09,0,.06.06.1a8.31,8.31,0,0,0,2.18,1.6,18.09,18.09,0,0,0,2.3,1l2.34.8a11.13,11.13,0,0,1,2.27,1.12,2.52,2.52,0,0,0,.29.26.4.4,0,0,1,.16.32.52.52,0,0,1-.07.28,1.63,1.63,0,0,1-.19.23,11.18,11.18,0,0,0-.67,1.12c-.32.57-.66,1.17-1,1.79s-.69,1.17-1,1.66-.51.74-.64.74-.67-.37-1.25-1.12-1.16-1.6-1.76-2.56-1.15-1.89-1.66-2.78-.85-1.52-1-1.86l-.26-.19a.69.69,0,0,0-.51.19l-.19.45v7c0,.34.26.71.8,1.12a17.36,17.36,0,0,0,1.79,1.18c.66.39,1.26.77,1.79,1.15s.8.73.8,1-.18.51-.54.64-.55.34-.55.64V41a.6.6,0,0,1-.19.45,6.93,6.93,0,0,1-1.31,1.35q-.93.76-1.83,1.56a21.94,21.94,0,0,0-1.6,1.6A2.37,2.37,0,0,0,47,47.49Zm-25-38.85c0,.26.2.45.74.58s1.14.23,1.82.32l1.95.25a3.78,3.78,0,0,1,1.25.32c-.21.34-.37.61-.48.8a2.16,2.16,0,0,0-.16,1,2,2,0,0,0,.19.9.77.77,0,0,0,.77.38,1.11,1.11,0,0,0,.93-.48,7.72,7.72,0,0,0,.64-1c.19-.39.37-.74.54-1.06a.75.75,0,0,1,.64-.48.2.2,0,0,1,.19.1,1.81,1.81,0,0,0,.2.22,6.59,6.59,0,0,0,3.23,2.63,14.46,14.46,0,0,0,4.13.51,11.22,11.22,0,0,1,1.15.06,3.27,3.27,0,0,0,1,0,1.09,1.09,0,0,0,.7-.41A2,2,0,0,0,41.79,12a4.92,4.92,0,0,0-.09-.83c-.07-.35-.14-.69-.23-1a4.39,4.39,0,0,0-.35-1,1.81,1.81,0,0,0-.48-.64,6,6,0,0,0-2-.32c-1.16-.08-2.44-.14-3.84-.16l-4-.06-2.56,0q-1.47,0-2.94.06a17.41,17.41,0,0,0-2.94.38ZM22.59,40l.32.29a.6.6,0,0,0,.39.16H30a.57.57,0,0,0,.64-.64V30a.57.57,0,0,0-.64-.64H23.3a.65.65,0,0,0-.39.16l-.32.29q0,.7,0,1.38c0,.44,0,.9,0,1.37a3,3,0,0,0,.19,1.09,3,3,0,0,1,.19,1.09,3,3,0,0,1-.19,1.09,3,3,0,0,0-.19,1.08c0,.52,0,1,0,1.57S22.59,39.49,22.59,40ZM24,34.82a.3.3,0,0,1,.22-.29.89.89,0,0,1,.36-.1h4.09a.86.86,0,0,1,.35.1.31.31,0,0,1,.23.29,3,3,0,0,1-.87.09c-.53,0-1.12,0-1.76,0s-1.22,0-1.76,0A2.91,2.91,0,0,1,24,34.82ZM40.51,20.35c-.13.09-.44.27-.93.55s-1,.57-1.53.89-1,.63-1.44.93l-.71.51a.67.67,0,0,0-.06.16.54.54,0,0,1-.06.16,1.68,1.68,0,0,0,.41.61.87.87,0,0,1,.29.61c0,.21-.2.44-.61.67a13.37,13.37,0,0,1-1.37.7c-.52.24-1,.47-1.38.71s-.61.48-.61.73a.41.41,0,0,0,.13.32,2.41,2.41,0,0,0,.86.1l2,.06c.81,0,1.67,0,2.59,0l2.66,0h3.58a1.23,1.23,0,0,0,.74-.32,5.23,5.23,0,0,0,.8-.77,6.54,6.54,0,0,0,.67-.92,2.69,2.69,0,0,0,.35-.8L46.85,25l-.39-.32a7.13,7.13,0,0,0-1,.13c-.51.08-1,.16-1.57.22a8.14,8.14,0,0,1-1.44.07c-.42,0-.64-.16-.64-.42V22.53c0-.43,0-.83,0-1.22a2.1,2.1,0,0,0-.1-.7,1.3,1.3,0,0,0-.54-.19A2.92,2.92,0,0,0,40.51,20.35Zm-2.37,9a.57.57,0,0,0-.64.64v9.86a.57.57,0,0,0,.64.64H45a.57.57,0,0,0,.64-.64V30a.57.57,0,0,0-.64-.64Zm1.35,5.12h4.16l.45.19.12.2a3.09,3.09,0,0,1-.89.09c-.56,0-1.15,0-1.79,0s-1.23,0-1.76,0a3,3,0,0,1-.87-.09l.13-.2Zm.13,7.94a34.4,34.4,0,0,0,.25,4.19,34.4,34.4,0,0,1,.26,4.19c0,.22,0,.52,0,.93a1.81,1.81,0,0,0,.09.86,1.44,1.44,0,0,0,.9.55,4.41,4.41,0,0,0,1.09.16c.76,0,1.19-.2,1.28-.61a2.46,2.46,0,0,0-.2-1.41,12.85,12.85,0,0,0-.8-1.63A2.9,2.9,0,0,1,42,48.26c0-.34.2-.46.58-.36a3.41,3.41,0,0,0,.9.16c.29,0,.53-.25.7-.76a12.19,12.19,0,0,0,.42-1.73,15.51,15.51,0,0,0,.19-1.89c0-.62,0-1,0-1.25a1.23,1.23,0,0,0-.1-.45.34.34,0,0,0-.35-.25l-1,0c-.43,0-.88,0-1.35,0s-.9,0-1.31.07a2.56,2.56,0,0,0-.86.19Z"/></g></g></svg>