<svg xmlns="http://www.w3.org/2000/svg" viewBox="0 0 64 64"><defs><style>.cls-1{fill:#fff;}.cls-2{fill:none;}</style></defs><g id="图层_2" data-name="图层 2"><g id="图层_1-2" data-name="图层 1"><path class="cls-1" d="M10.72,9.63l.32.19q.2.59.54,1.38a4.21,4.21,0,0,0,.8,1.25,4.33,4.33,0,0,0,1.06.09c.66,0,1.48.05,2.46.07s2.06,0,3.24,0h7.77c.34,0,.57-.27.67-.8a8.89,8.89,0,0,0,.13-2c0-.79-.07-1.65-.16-2.56s-.14-1.77-.16-2.56a9,9,0,0,1,.13-2c.11-.53.33-.8.67-.8s1.07,0,1.92.07,1.73.1,2.63.19,1.76.18,2.59.29a9.72,9.72,0,0,1,1.82.35q.51.12.51.45l-.48.48a7,7,0,0,0-.48.54,2.78,2.78,0,0,0-.28,1.28c-.07.73-.13,1.51-.2,2.37s-.1,1.68-.12,2.49,0,1.35,0,1.6a.47.47,0,0,0,.23.45,1.27,1.27,0,0,0,.54.16l.61,0h.48l2.5,0c1.28,0,2.64-.06,4.09-.13s2.75-.13,3.91-.22A5,5,0,0,0,50.34,12l3.52-3.52.38-.13.38.13A13.9,13.9,0,0,0,55.9,9.7c.69.59,1.39,1.23,2.12,1.92S59.39,12.93,60,13.5s.86.93.86,1.06a.39.39,0,0,1-.16.32l-.29.26-2.14,1.63c-.92.7-1.87,1.42-2.85,2.14a27.23,27.23,0,0,1-2.88,1.89,5,5,0,0,1-2.24.8.59.59,0,0,1-.64-.61,4.5,4.5,0,0,1,.16-1.5,18.5,18.5,0,0,1,.61-1.95,14.88,14.88,0,0,0,.58-2,4.2,4.2,0,0,0,.09-1.5.66.66,0,0,0-.73-.61H13.09a.57.57,0,0,0-.64.64c0,.9,0,1.93-.07,3.11a13.64,13.64,0,0,1-.51,3.32,6.24,6.24,0,0,1-1.5,2.66,4,4,0,0,1-3,1.09,4.21,4.21,0,0,1-3-1.15,4,4,0,0,1-1.18-3,4.79,4.79,0,0,1,.89-2.72,22.06,22.06,0,0,1,2.08-2.59c.79-.86,1.58-1.7,2.37-2.53a11.14,11.14,0,0,0,1.83-2.47ZM3.87,28.83H34.46a.26.26,0,0,1,.2.07l-.13.19-.45.19H3.87L3.62,29ZM17.25,46.62q-.2-.76-.39-1.5a8.52,8.52,0,0,0-.51-1.44c-.25-.6-.57-1.34-1-2.24s-.76-1.82-1.12-2.78-.67-1.89-.93-2.79A8.63,8.63,0,0,1,13,33.63.57.57,0,0,1,13.6,33a10.07,10.07,0,0,1,4,.9,16,16,0,0,1,3.84,2.33,12.48,12.48,0,0,1,2.88,3.36,7.66,7.66,0,0,1,1.12,3.91,5.67,5.67,0,0,1-1.12,3.45,3.68,3.68,0,0,1-3.17,1.54A5.33,5.33,0,0,1,19,48,4,4,0,0,1,17.25,46.62ZM45.92,18.34a1.19,1.19,0,0,1-.29.57,4.77,4.77,0,0,1-.45.45,4.07,4.07,0,0,0-.41.42.72.72,0,0,0-.19.48q0,8.19-.16,16.19t-.16,16.19c0,.51,0,1,0,1.54a7.16,7.16,0,0,1-.1,1.53,5.56,5.56,0,0,1-1.6,2.95,7.65,7.65,0,0,1-1.73,1.24A17.23,17.23,0,0,1,38.53,61a18.9,18.9,0,0,1-2.47.77,9.44,9.44,0,0,1-2.11.29q-.57,0-1-1c-.28-.67-.6-1.44-1-2.34a23.11,23.11,0,0,0-1.28-2.66,5.39,5.39,0,0,0-1.89-2,8.08,8.08,0,0,0-1.12-.51,1.71,1.71,0,0,1-.93-.71,8.26,8.26,0,0,1,1.32-.09c.74,0,1.56,0,2.46,0s1.75,0,2.56,0l1.66,0a1.23,1.23,0,0,0,.87-.42,1.2,1.2,0,0,0,.41-.86v-34a.57.57,0,0,1,.64-.64,32.13,32.13,0,0,1,9,1.28Zm.19,10.75L46,29c.05-.09.25-.15.61-.19s.75-.1,1.15-.16.8-.14,1.19-.23A1.29,1.29,0,0,0,49.7,28l3.84-5.12.25-.13a3.82,3.82,0,0,1,1.7.83,28,28,0,0,1,2.37,1.89,26.1,26.1,0,0,1,2,2c.58.64.83,1.06.74,1.28a.8.8,0,0,1-.83.51H46.56Z"/><rect class="cls-2" width="64" height="64"/></g></g></svg>