<svg xmlns="http://www.w3.org/2000/svg" viewBox="0 0 64 64"><defs><style>.cls-1{fill:#fff;}.cls-2{fill:none;}</style></defs><g id="图层_2" data-name="图层 2"><g id="图层_1-2" data-name="图层 1"><path class="cls-1" d="M21.19,26.54a1.23,1.23,0,0,1-.7,1,1,1,0,0,0-.64.93L19.4,58.54a.57.57,0,0,0,.64.64h7.74a.57.57,0,0,0,.64-.64V12a.57.57,0,0,0-.64-.64H6.09a.28.28,0,0,1-.32-.32.28.28,0,0,1,.32-.32H44.3c.17,0,.53-.29,1.08-.86s1.13-1.23,1.73-1.95,1.16-1.43,1.7-2.12l1-1.34.32-.13a3.76,3.76,0,0,1,.93.51c.45.3,1,.68,1.57,1.12s1.22,1,1.86,1.51L56.3,9a16.25,16.25,0,0,1,1.31,1.28c.34.39.51.62.51.71a.27.27,0,0,1-.06.19l-.45.19H38.47a1,1,0,0,0-.7.45,1.27,1.27,0,0,0-.39.7V32a2.12,2.12,0,0,0,.16.77,1.93,1.93,0,0,1,0,1.54,2.07,2.07,0,0,0-.16.76V58.54a.57.57,0,0,0,.64.64h8.9c.3,0,.7-.33,1.22-1s1-1.39,1.63-2.18,1.12-1.51,1.63-2.17.9-1,1.15-1a7.52,7.52,0,0,1,1.38.9c.83.6,1.74,1.27,2.72,2s1.89,1.47,2.72,2.15a13.11,13.11,0,0,1,1.44,1.28l.13.19q0,.26-.36.45A1.25,1.25,0,0,1,60,60H2.7a.57.57,0,0,1-.55-.32c-.1-.21,0-.32.16-.32H9.86a.56.56,0,0,0,.64-.64V26.09a.57.57,0,0,1,.64-.64,46.59,46.59,0,0,1,4.87.26q2.43.25,4.86.57Zm17.73,7.17c.09-.09.15-.13.19-.13a19.33,19.33,0,0,0,3.07-.8,7.82,7.82,0,0,0,1.7-.86,2.58,2.58,0,0,0,.86-1c.17-.36.38-.73.61-1.12s.54-.81.9-1.28A6.75,6.75,0,0,1,48,27.05a1.11,1.11,0,0,1,.45-.13,11.71,11.71,0,0,1,1.15.87L52,29.71c.9.7,1.73,1.37,2.5,2s1.21,1,1.34,1.16a.7.7,0,0,1,.16.76.6.6,0,0,1-.61.39H39.69a1,1,0,0,1-.42-.1A1.17,1.17,0,0,1,38.92,33.71Z"/><rect class="cls-2" width="64" height="64"/></g></g></svg>