<svg xmlns="http://www.w3.org/2000/svg" viewBox="0 0 326.62 62.79">
  <defs>
    <style>
      .cls-1 {
        fill: #c05463;
      }

      .cls-2 {
        fill: #fed29c;
      }

      .cls-3 {
        fill: #96ceda;
      }

      .cls-4 {
        fill: #fdb6c6;
      }

      .cls-5 {
        fill: #5e525e;
      }

      .cls-6 {
        opacity: 0.8;
      }

      .cls-7 {
        fill: #4d4d4d;
      }
    </style>
  </defs>
  <title>logo_3</title>
  <g id="图层_2" data-name="图层 2">
    <g id="图层_1-2" data-name="图层 1">
      <g>
        <g>
          <path class="cls-1" d="M47.34,7.95a.23.23,0,0,0-.35.12.93.93,0,0,0-.12.41V40.95c0,.19,0,.31.12.35l.35.17a8.1,8.1,0,0,0,1.33.2l1.88.2a13.6,13.6,0,0,1,1.74.32q.78.2.9.61t-.46.52H38.64q-.64,0-.41-.52a1.39,1.39,0,0,1,1-.64,10.77,10.77,0,0,1,1.74-.35q1-.12,1.86-.17a6.74,6.74,0,0,0,1.31-.17.6.6,0,0,0,.46-.52,11.72,11.72,0,0,0,.09-1.83q0-.9,0-1.83l.17-8.47q.12-6.38.15-12.73T45,3.36A.56.56,0,0,0,44.79,3a2.06,2.06,0,0,0-1.3-.41l-1.65,0a9.51,9.51,0,0,1-1.68-.09,1.91,1.91,0,0,1-1.28-.7q-.12-.29.12-.41V1.33a8.08,8.08,0,0,1,1.22-.12q1-.06,2.52-.06H46q1.74,0,3.33,0l2.81,0h1.74c.19,0,.31,0,.35.09s.1.16.17.32q2.67,6.09,4.9,12.3t4.67,12.41a20.2,20.2,0,0,1,.93,3.22A10.82,10.82,0,0,0,66,32.71a9.46,9.46,0,0,1,.78,1.6,2.28,2.28,0,0,1,0,1.71,24.2,24.2,0,0,0-1.1,2.87q-.47,1.48-1,2.93a8.87,8.87,0,0,1-.32.84,1.67,1.67,0,0,1-.32.49.93.93,0,0,1-.52.23,6.34,6.34,0,0,1-1,.06h-.38a.89.89,0,0,1-.38-.06.61.61,0,0,1-.38-.35,5,5,0,0,0-.2-.46q-1.16-2.49-2.12-5l-1.94-5.16q-1.68-4.35-3.33-8.7T50.48,15l-1.62-4.35q-.23-.64-.46-1.3a10.62,10.62,0,0,0-.52-1.25C47.71,7.83,47.54,7.79,47.34,7.95ZM69.15,29.7a2.19,2.19,0,0,1-.52.87,1.82,1.82,0,0,1-.7.46.59.59,0,0,1-.55,0c-.14-.1-.18-.28-.15-.55a.84.84,0,0,1,.12-.35,1.36,1.36,0,0,0,.17-.35,3.22,3.22,0,0,0,.17-.61,3.12,3.12,0,0,1,.17-.61q.23-.75.49-1.48t.55-1.48l1-2.64,1.68-4.64q1-2.64,2-5.54t2-5.36l1.54-4.09a11.79,11.79,0,0,1,.73-1.74.68.68,0,0,1,.58-.35H92.18q.41,0,.38.38a.52.52,0,0,1-.32.49,3.23,3.23,0,0,1-1.13.23l-1.59.15a6.84,6.84,0,0,0-1.42.29q-.61.2-.61.61V41.18a.7.7,0,0,0,.64.64l1,0q.7,0,1.45.12a6.23,6.23,0,0,1,1.33.29,1.18,1.18,0,0,1,.75.61q.12.29,0,.38a.7.7,0,0,1-.41.09H73.44a.7.7,0,0,1-.41-.09q-.12-.09,0-.38a1.16,1.16,0,0,1,1-.7,11,11,0,0,1,1.65-.23l1.6-.09q.72,0,.84-.26a.94.94,0,0,0,.12-.41V7.89q0-.46-.41-.41-.17,0-.38.35T77,8.61c-.14.29-.25.57-.35.84l-.2.58Q74.55,15,72.81,19.86T69.15,29.7Z"/>
          <path class="cls-2" d="M115.67,41.76q.11.12.87.06a15.93,15.93,0,0,1,1.68,0,7.83,7.83,0,0,1,1.71.23,1.21,1.21,0,0,1,1,.78q.17.52-.46.52H108.65c-.43,0-.58-.17-.46-.52a.92.92,0,0,1,.67-.52A7.08,7.08,0,0,1,110.1,42q.7-.09,1.36-.12a3.9,3.9,0,0,0,1-.15,1.23,1.23,0,0,0,.67-.41,4.15,4.15,0,0,0,.32-.7q2.44-7.77,4.93-15.4t5-15.4a8.22,8.22,0,0,0,.26-1.16A3.23,3.23,0,0,1,124,7.6q.29-.58.52-.2a2.15,2.15,0,0,1,.29.67,74.14,74.14,0,0,1-2,7.16q-1.16,3.51-2.2,7.1l-.35,1.19-.49,1.65q-.26.87-.44,1.68a6.37,6.37,0,0,0-.17,1.16,1,1,0,0,0,.09.49c.06.1.22.15.49.15h11.95a.63.63,0,0,0,.46-.17v-.06a.32.32,0,0,0,.06-.41l-.55-1.57-.55-1.57a36.12,36.12,0,0,1-1-4q-.41-2-.93-4-.41-1.51-.81-3t-.87-3q-.35-1.1-.75-2.2a10.59,10.59,0,0,0-1-2.09q-.29-.46-.49-.73a2,2,0,0,1-.32-.78c0,.08,0,0,0-.12a1.61,1.61,0,0,0,.06-.35l.23-.75q.23-.7.44-1.42a9.43,9.43,0,0,1,.49-1.36,3.4,3.4,0,0,1,.17-.32q.06-.09.35-.09h4.58c.19,0,.31,0,.35.09s.1.17.17.32l13.4,39.44a2.87,2.87,0,0,0,.64,1,1.06,1.06,0,0,0,.72.17q.55,0,1.22.06a7.41,7.41,0,0,1,1.3.23,1.77,1.77,0,0,1,1,.64.28.28,0,0,1,0,.41.63.63,0,0,1-.46.17h-18.1q-.58,0-.46-.35a.92.92,0,0,1,.41-.52,2.25,2.25,0,0,1,.78-.2l1.3-.17,1.33-.15q.64-.06,1-.12a1.79,1.79,0,0,0,.35-.12q.12-.06.17-.35v-.52a2.67,2.67,0,0,0-.35-1,6.9,6.9,0,0,1-.46-1.1q-.23-.58-.61-1.91L134.11,34q-.41-1.42-.84-2.58a4.79,4.79,0,0,0-.73-1.45.56.56,0,0,0-.41-.17H119.5a1,1,0,0,0-.64.35,2.49,2.49,0,0,0-.46.58,2.84,2.84,0,0,0-.29.93,7.89,7.89,0,0,1-.17.93q-.29,1.16-.61,2.26t-.67,2.26l-.26.72L116,39q-.23.61-.41,1.1a4.09,4.09,0,0,0-.17.55,3.6,3.6,0,0,0,0,.46,3.8,3.8,0,0,1,0,.46Z"/>
          <path class="cls-3" d="M200.87,12.24a.51.51,0,0,1-.58.58h-2.15c-.27,0-.42-.09-.44-.26s0-.36-.09-.55a17,17,0,0,0-.7-2.67q-.46-1.33-.81-2.67-.23-.87-.46-1.77a14.43,14.43,0,0,0-.58-1.77,3.44,3.44,0,0,0-.32-.61,3,3,0,0,0-.49-.49,3.06,3.06,0,0,0-2-.55q-1.1.09-2.15.09a13.36,13.36,0,0,0-6.73,1.68,12.73,12.73,0,0,0-4.81,5,24.2,24.2,0,0,0-2.41,6.61,35.5,35.5,0,0,0-.78,7.45,33.87,33.87,0,0,0,.81,7.42,23.72,23.72,0,0,0,2.49,6.58,12.68,12.68,0,0,0,5,5,14.29,14.29,0,0,0,7,1.74l1.39,0a2.7,2.7,0,0,0,1.33-.32.26.26,0,0,0,.14-.17.93.93,0,0,0,0-.23V25.81a.56.56,0,0,0-.17-.41A2.9,2.9,0,0,0,193,25a.73.73,0,0,0-.52-.23c-.23,0-.58,0-1-.06L190,24.56q-.76-.09-1.42-.2a5.19,5.19,0,0,1-1-.23.5.5,0,0,1-.29-.52q0-.35.4-.35h17.92a.9.9,0,0,1,.4.09q.18.09,0,.38a1.55,1.55,0,0,1-1,.67c-.43.1-.85.17-1.28.23a10.42,10.42,0,0,0-1.1.2.52.52,0,0,0-.46.52V40.66a.57.57,0,0,1-.29.52,9.37,9.37,0,0,1-1.86,1q-1,.38-1.91.84a15,15,0,0,1-4.73,1.3,47,47,0,0,1-5,.26,24.64,24.64,0,0,1-9.11-1.62,20.27,20.27,0,0,1-11.69-11.57,24,24,0,0,1-1.65-9.08A24.19,24.19,0,0,1,167.75,13a20.18,20.18,0,0,1,4.7-7,20.68,20.68,0,0,1,7.22-4.47A26.32,26.32,0,0,1,188.92,0q.64,0,2.58.2t4,.58a33.41,33.41,0,0,1,3.71.87q1.62.49,1.63,1.07Z"/>
          <path class="cls-4" d="M222,43.33a.9.9,0,0,1-.41-.09q-.17-.09,0-.38a1.55,1.55,0,0,1,.81-.64,5.13,5.13,0,0,1,1.25-.32,10.35,10.35,0,0,1,1.33-.09h1.13a.56.56,0,0,0,.64-.64V3.31a.57.57,0,0,0-.58-.64c-.27,0-.6-.07-1-.09s-.77,0-1.16-.09-.76-.09-1.13-.15a3.11,3.11,0,0,1-.9-.26.47.47,0,0,1-.29-.49q0-.38.46-.38h18.56q.4,0,.38.38a.52.52,0,0,1-.32.49,5.36,5.36,0,0,1-2,.44,14.22,14.22,0,0,0-2.09.2q-.64.12-.64.64V40.89a1.13,1.13,0,0,0,.23.58.56.56,0,0,0,.52.35h1.07a10.39,10.39,0,0,1,1.33.09,5.18,5.18,0,0,1,1.25.32,1.56,1.56,0,0,1,.81.64q.17.29,0,.38a.9.9,0,0,1-.41.09Z"/>
          <path class="cls-5" d="M264.32,41.76q.12.12.87.06a15.92,15.92,0,0,1,1.68,0,7.83,7.83,0,0,1,1.71.23,1.21,1.21,0,0,1,1,.78q.17.52-.46.52H257.3q-.64,0-.46-.52a.92.92,0,0,1,.67-.52,7.1,7.1,0,0,1,1.25-.26q.7-.09,1.36-.12a3.88,3.88,0,0,0,1-.15,1.23,1.23,0,0,0,.67-.41,4.07,4.07,0,0,0,.32-.7q2.44-7.77,4.93-15.4t5-15.4a8.22,8.22,0,0,0,.26-1.16,3.26,3.26,0,0,1,.38-1.1q.29-.58.52-.2a2.14,2.14,0,0,1,.29.67,74,74,0,0,1-2,7.16q-1.16,3.51-2.2,7.1L269,23.52l-.49,1.65q-.26.87-.43,1.68a6.37,6.37,0,0,0-.17,1.16,1,1,0,0,0,.09.49c.06.1.22.15.49.15h11.95a.63.63,0,0,0,.46-.17v-.06a.32.32,0,0,0,.06-.41q-.29-.81-.55-1.57l-.55-1.57a36,36,0,0,1-1-4q-.41-2-.93-4-.41-1.51-.81-3t-.87-3q-.35-1.1-.75-2.2a10.64,10.64,0,0,0-1-2.09q-.29-.46-.49-.73a2,2,0,0,1-.32-.78c0,.08,0,0,0-.12a1.62,1.62,0,0,0,.06-.35l.23-.75q.23-.7.44-1.42a9.43,9.43,0,0,1,.49-1.36,3.34,3.34,0,0,1,.17-.32c0-.06.15-.09.35-.09h4.58c.19,0,.31,0,.35.09s.1.17.17.32l13.4,39.44a2.88,2.88,0,0,0,.64,1,1.07,1.07,0,0,0,.73.17q.55,0,1.22.06a7.4,7.4,0,0,1,1.3.23,1.77,1.77,0,0,1,1,.64.28.28,0,0,1,0,.41.63.63,0,0,1-.46.17H280.1q-.58,0-.46-.35a.92.92,0,0,1,.41-.52,2.25,2.25,0,0,1,.78-.2l1.3-.17,1.33-.15q.64-.06,1-.12a1.79,1.79,0,0,0,.35-.12c.08,0,.13-.15.17-.35v-.52a2.66,2.66,0,0,0-.35-1,6.85,6.85,0,0,1-.46-1.1q-.23-.58-.61-1.91L282.76,34q-.41-1.42-.84-2.58A4.78,4.78,0,0,0,281.2,30a.56.56,0,0,0-.41-.17H268.15a1,1,0,0,0-.64.35,2.51,2.51,0,0,0-.46.58,2.87,2.87,0,0,0-.29.93,7.88,7.88,0,0,1-.17.93q-.29,1.16-.61,2.26t-.67,2.26l-.26.72L264.61,39q-.23.61-.41,1.1a4,4,0,0,0-.17.55,3.52,3.52,0,0,0,0,.46,3.9,3.9,0,0,1,0,.46Z"/>
        </g>
        <g class="cls-6">
          <path class="cls-7" d="M40.66,56.44v2.05a9.4,9.4,0,0,1-.78,4.28,2.05,2.05,0,0,0-.42-.33,8.52,8.52,0,0,0,.7-3.94V56h3v-.65l.71,0c0,.06,0,.1-.16.11V56h3.17v.47Zm2.43,4.74a.19.19,0,0,1-.15.1c-.24.72-.74,1.21-2.14,1.5a1.47,1.47,0,0,0-.29-.42c1.26-.2,1.75-.58,1.93-1.25Zm-.47-2.57h-.42v-.9a4,4,0,0,1-1.12.86,1.62,1.62,0,0,0-.29-.33A3.53,3.53,0,0,0,42,57.39H41V57h1.19v-.5l.57,0c0,.06,0,.09-.14.1V57h1.15v.38H42.61v.07c.25.12,1,.48,1.14.58l-.28.32c-.15-.12-.55-.38-.86-.57Zm1.66,3.49c0,.18.07.22.47.22h1.46c.3,0,.36-.07.38-.64a1.5,1.5,0,0,0,.43.17c-.06.71-.21.88-.77.88H44.72c-.74,0-.93-.12-.93-.62V61H41.39V58.89H43a4.41,4.41,0,0,0,.33-.49l.59.18a.16.16,0,0,1-.15.06l-.22.25h2.67V61h-.7a.15.15,0,0,1-.14.06c0,.15-.12.37-.19.56l.76,0a3.09,3.09,0,0,0-.28-.34l.32-.12a2.8,2.8,0,0,1,.58.84,1.64,1.64,0,0,0-.33.14,1.54,1.54,0,0,0-.11-.24l-1.34.1a.11.11,0,0,1-.1.1l-.17-.42h.32c.06-.19.14-.43.18-.63h-.62a.22.22,0,0,1-.13,0Zm-2.41-2.84v.52h1.67v-.52Zm0,.84v.54h1.67v-.54Zm3.68-1.49h-.43v-.91a4.21,4.21,0,0,1-1.11.88,1.91,1.91,0,0,0-.29-.33,3.44,3.44,0,0,0,1.21-.85H44V57h1.13v-.5l.58,0c0,.06,0,.09-.14.1V57H46.8v.38h-1a4.13,4.13,0,0,0,1.21.87,1.72,1.72,0,0,0-.3.33,4.73,4.73,0,0,1-1.13-.92Zm.18,1.17v-.52H44v.52Zm0,.86v-.54H44v.54Z"/>
          <path class="cls-7" d="M50.21,57.6a6.88,6.88,0,0,1,1.63.74l-.29.46A6.94,6.94,0,0,0,49.93,58Zm0,4.69a26.71,26.71,0,0,0,1.47-2.62l.4.34a25.58,25.58,0,0,1-1.33,2.48.24.24,0,0,1,0,.11.14.14,0,0,1,0,.1Zm.43-6.92a6.56,6.56,0,0,1,1.61.84l-.31.45a6.79,6.79,0,0,0-1.6-.89Zm6.71,3.37v.52H54.25l.29.1a.22.22,0,0,1-.18.09,23.76,23.76,0,0,1-1,2.31l2.79-.16a12.77,12.77,0,0,0-.92-1.2l.46-.24a10.84,10.84,0,0,1,1.62,2.29l-.5.29a5.65,5.65,0,0,0-.35-.68c-1.47.12-3,.22-4,.29a.14.14,0,0,1-.12.11l-.22-.64.66,0a19,19,0,0,0,1-2.53H52.09v-.52h2.3V57.17H52.49v-.51H54.4V55.32l.74,0c0,.08-.08.14-.18.15v1.14h2v.51h-2v1.58Z"/>
          <path class="cls-7" d="M62.69,56.53c0,.06-.08.09-.18.08a9.42,9.42,0,0,1-1.72,2.73,2.89,2.89,0,0,0-.47-.33A7.39,7.39,0,0,0,62,56.35Zm4.09,2.42c0,.06-.07.08-.17.09-.77,2.13-2.39,3.25-5.41,3.73a2.09,2.09,0,0,0-.29-.53c2.9-.38,4.47-1.41,5.17-3.47Zm-3-3.62.71,0c0,.06-.06.1-.16.11v4c0,.35-.09.51-.34.61a5.19,5.19,0,0,1-1.38.1,1.92,1.92,0,0,0-.2-.55l.86,0c.48,0,.52,0,.52-.18Zm3.5,3.91a11.81,11.81,0,0,0-1.74-2.72l.48-.24a11.79,11.79,0,0,1,1.79,2.67Z"/>
          <path class="cls-7" d="M78.11,57.81H76.83a6.4,6.4,0,0,1-1.38,3.05,16.06,16.06,0,0,1,2.46,1.42l-.4.5A15.32,15.32,0,0,0,75,61.29a7.49,7.49,0,0,1-3.86,1.47,1.9,1.9,0,0,0-.28-.51A7.3,7.3,0,0,0,74.44,61c-.66-.3-1.34-.58-2-.82l-.19.41-.54-.2c.34-.67.75-1.62,1.16-2.59H70.81v-.54h2.29c.28-.69.55-1.37.77-2l.71.14c0,.06-.07.09-.18.09-.2.52-.44,1.12-.69,1.73h4.4Zm-4.62,0c-.28.66-.56,1.32-.82,1.9.71.25,1.48.56,2.21.9a5.6,5.6,0,0,0,1.34-2.8Z"/>
          <path class="cls-7" d="M81.46,56.56c.5,0,1.16,0,1.7,0l1.1,0c0-.38,0-.83,0-1.11l.81,0c0,.1-.08.14-.22.17s0,.74,0,.88a15.72,15.72,0,0,0,2.65-.31l.07.53a16.38,16.38,0,0,1-2.73.3c0,.48,0,1,0,1.47a13.41,13.41,0,0,0,2.25-.31l.06.52a15.15,15.15,0,0,1-2.31.28l.06,1.33a8.89,8.89,0,0,1,2.35,1.25l-.35.49a7.78,7.78,0,0,0-2-1.18c0,.13,0,.27,0,.38,0,.76-.46,1.2-1.43,1.2s-1.76-.42-1.76-1.17.87-1.19,1.77-1.19a3.5,3.5,0,0,1,.84.1c0-.34,0-.76,0-1.19l-.78,0c-1.37,0-1.75-.22-1.75-.68,0-.3.23-.55.74-.88l.38.25c-.36.2-.55.38-.55.54s.38.29,1.39.29h.54l0-1.48c-.34,0-.74,0-1.1,0-.51,0-1.24,0-1.72,0Zm3,4.17a3.36,3.36,0,0,0-.9-.13c-.61,0-1.22.25-1.22.73s.56.7,1.26.7.87-.28.87-.84Z"/>
          <path class="cls-7" d="M96.5,58.16h-.06a.31.31,0,0,1-.17,0c-2.37.7-4.53,1.74-4.52,2.81,0,.77.85,1,2.14,1a19.17,19.17,0,0,0,2.83-.18l0,.58a25.88,25.88,0,0,1-2.86.14c-1.58,0-2.73-.37-2.74-1.54,0-.86.85-1.61,2.1-2.25a7.71,7.71,0,0,1-.37-3.22l.88.07c0,.1-.09.17-.25.19a7.12,7.12,0,0,0,.26,2.7,22.51,22.51,0,0,1,2.49-1Zm-1-2.49a5,5,0,0,1,1,1.19l-.34.23a4.87,4.87,0,0,0-1-1.19Zm1.07-.46a4.82,4.82,0,0,1,1,1.18l-.33.22a5,5,0,0,0-1-1.17Z"/>
          <path class="cls-7" d="M103.27,55.7c0,.1-.11.14-.26.14-.09.45-.23,1.22-.33,1.7.36,0,.69-.07.89-.07,1.22,0,1.63.79,1.63,2a6.23,6.23,0,0,1-.27,1.79,1.46,1.46,0,0,1-1.42,1.21,2.37,2.37,0,0,1-1.45-.7,3,3,0,0,0,.22-.49,2.14,2.14,0,0,0,1.22.61c.46,0,.73-.29.89-.8a6,6,0,0,0,.26-1.64c0-.91-.3-1.46-1.1-1.45a9.12,9.12,0,0,0-1,.08,15.34,15.34,0,0,1-1.64,4.32l-.53-.26a13.07,13.07,0,0,0,1.59-4c-.41,0-1,.12-1.42.19l0-.56,1.58-.18c.12-.58.25-1.3.34-2Zm3.7,3.85a4.8,4.8,0,0,0-1.8-2.73l.43-.34a5.12,5.12,0,0,1,1.94,2.85Z"/>
          <path class="cls-7" d="M113.39,58.19l.86-2.69h.06l.86,2.69H118v.07l-2.27,1.6.9,2.68-.06,0-2.28-1.68L112,62.59l-.06,0,.9-2.68-2.27-1.6v-.07Zm.21.29h-1.54l-.77,0v0l.68.43,1.23.86-.46,1.36-.31.83h0l.7-.56,1.14-.83,1.14.83.7.56h0l-.31-.83-.46-1.36,1.23-.86.68-.43v0l-.78,0H115L114.5,57l-.21-.75h0l-.21.75Z"/>
          <path class="cls-7" d="M128.11,56.85a.19.19,0,0,1-.12.08,13.41,13.41,0,0,1-3.23,3.21,15.66,15.66,0,0,1,1.64,1.56l-.49.42A16.79,16.79,0,0,0,122.14,59l.38-.41a16.09,16.09,0,0,1,1.78,1.18,12,12,0,0,0,2.81-2.73h-5.87v-.54h6.29l.1,0Z"/>
          <path class="cls-7" d="M135.27,59.95l.29,2.5-.58.06L134.71,60l-3,.39-.06-.54,3-.38-.21-1.8-2.51.33-.07-.54,2.53-.32-.18-1.6.78,0c0,.07-.06.14-.18.17l.15,1.38,2.36-.3.06.54-2.36.3.2,1.79,3-.38.06.53Zm1.68-4.36a5.81,5.81,0,0,1,1,1.17l-.32.22a6.33,6.33,0,0,0-1-1.15Zm1-.52a6.34,6.34,0,0,1,1,1.15l-.33.23a6.13,6.13,0,0,0-1-1.14Z"/>
          <path class="cls-7" d="M148.16,57.43a.27.27,0,0,1-.07.1,12.75,12.75,0,0,1-.64,4.32,1.09,1.09,0,0,1-1,.58,8.45,8.45,0,0,1-1.43-.18,2.72,2.72,0,0,0,0-.57,8.38,8.38,0,0,0,1.4.2.6.6,0,0,0,.62-.38,12.21,12.21,0,0,0,.52-3.63h-2.56a7.31,7.31,0,0,1-2.64,4.58,2.73,2.73,0,0,0-.46-.35,6.62,6.62,0,0,0,2.49-4.23h-2.21v-.54h2.32a15.65,15.65,0,0,0,.18-1.74l.79.06c0,.09-.08.14-.2.14,0,.58-.09,1-.18,1.54h2.59l.13,0Z"/>
          <path class="cls-7" d="M160.35,61.88a3.74,3.74,0,0,1-1.52.27A2.75,2.75,0,0,1,156,59.08a2.91,2.91,0,0,1,3-3.19,3,3,0,0,1,1.34.25l-.18.56a2.65,2.65,0,0,0-1.15-.25,2.29,2.29,0,0,0-2.33,2.61A2.23,2.23,0,0,0,159,61.59a3,3,0,0,0,1.22-.25Z"/>
          <path class="cls-7" d="M166.44,56.73a2.06,2.06,0,0,0-1.07-.28c-.85,0-1.17.52-1.17,1,0,.6.37.9,1.18,1.25,1,.42,1.49.92,1.49,1.79s-.7,1.71-2,1.71a2.8,2.8,0,0,1-1.46-.38l.18-.55a2.48,2.48,0,0,0,1.31.38c.82,0,1.3-.44,1.3-1.1s-.33-1-1.12-1.29-1.54-.88-1.54-1.72a1.68,1.68,0,0,1,1.86-1.61,2.47,2.47,0,0,1,1.25.29Z"/>
          <path class="cls-7" d="M173.05,56.73a2.06,2.06,0,0,0-1.07-.28c-.85,0-1.17.52-1.17,1,0,.6.37.9,1.18,1.25,1,.42,1.49.92,1.49,1.79s-.7,1.71-2,1.71a2.8,2.8,0,0,1-1.46-.38l.18-.55a2.49,2.49,0,0,0,1.31.38c.82,0,1.3-.44,1.3-1.1s-.33-1-1.12-1.29-1.54-.88-1.54-1.72A1.68,1.68,0,0,1,172,55.89a2.47,2.47,0,0,1,1.25.29Z"/>
          <path class="cls-7" d="M185.57,62.07h-.7l-.66-2h-2.12l-.64,2h-.68l2-6.09h.77Zm-1.5-2.5-.6-1.81c-.13-.42-.23-.8-.31-1.16h0c-.08.37-.19.75-.3,1.14l-.61,1.83Z"/>
          <path class="cls-7" d="M192.32,62.07h-.66V59.49c0-.71-.26-1.34-1-1.34a1.19,1.19,0,0,0-1.14,1.24v2.67h-.66V58.83c0-.45,0-.78,0-1.13h.59l0,.71h0a1.56,1.56,0,0,1,1.4-.81c.54,0,1.47.33,1.47,1.81Z"/>
          <path class="cls-7" d="M196.34,56.94a.43.43,0,0,1-.43-.46.44.44,0,0,1,.44-.45.45.45,0,0,1,0,.9Zm.34,5.13H196V57.71h.66Z"/>
          <path class="cls-7" d="M206.33,62.07h-.66V59.55c0-.85-.3-1.39-1-1.39a1.11,1.11,0,0,0-1,1.17v2.74H203V59.38c0-.7-.3-1.22-.91-1.22A1.18,1.18,0,0,0,201,59.4v2.67h-.66V58.83c0-.45,0-.77,0-1.13h.58l0,.7h0a1.45,1.45,0,0,1,1.33-.8,1.24,1.24,0,0,1,1.19.87h0a1.53,1.53,0,0,1,1.4-.87c.54,0,1.38.34,1.38,1.84Z"/>
          <path class="cls-7" d="M212.87,61a6,6,0,0,0,.06,1h-.61l-.06-.56h0a1.52,1.52,0,0,1-1.29.66,1.21,1.21,0,0,1-1.27-1.24c0-1,.91-1.62,2.53-1.61,0-.37,0-1.2-1-1.2a1.88,1.88,0,0,0-1.06.31L210,58a2.48,2.48,0,0,1,1.33-.37c1.23,0,1.55.87,1.55,1.73Zm-.66-1.22c-.82,0-1.86.12-1.86,1a.73.73,0,0,0,.75.81,1.07,1.07,0,0,0,1.1-1Z"/>
          <path class="cls-7" d="M216.73,56.92l.66-.22v1h1.13v.52h-1.13v2.52c0,.55.17.86.59.86a1.29,1.29,0,0,0,.45-.06l0,.51a1.68,1.68,0,0,1-.65.1c-1.06,0-1.09-1-1.09-1.42v-2.5h-.67v-.52h.67Z"/>
          <path class="cls-7" d="M222.11,56.94a.45.45,0,0,1,0-.9.45.45,0,0,1,0,.9Zm.34,5.13h-.66V57.71h.66Z"/>
          <path class="cls-7" d="M229.87,59.85a2.07,2.07,0,0,1-2,2.31,2,2,0,0,1-2-2.25,2.07,2.07,0,0,1,2-2.31A2,2,0,0,1,229.87,59.85Zm-2-1.73c-.94,0-1.33.93-1.33,1.77s.54,1.75,1.32,1.75,1.34-.78,1.34-1.77C229.19,59.1,228.81,58.13,227.86,58.13Z"/>
          <path class="cls-7" d="M236.76,62.07h-.66V59.49c0-.71-.26-1.34-1-1.34a1.19,1.19,0,0,0-1.14,1.24v2.67h-.66V58.83c0-.45,0-.78,0-1.13h.59l0,.71h0a1.56,1.56,0,0,1,1.4-.81c.54,0,1.47.33,1.47,1.81Z"/>
          <path class="cls-7" d="M248,62.07h-3.21V56h3.08v.56h-2.41V58.6h2.27v.55h-2.27v2.36H248Z"/>
          <path class="cls-7" d="M254.44,57.71,253,59.82l1.48,2.25h-.76l-.66-1-.46-.78h0c-.14.27-.3.51-.46.78l-.64,1h-.74l1.5-2.22-1.42-2.13h.74l.63,1c.16.25.3.47.44.73h0c.14-.26.29-.5.44-.73l.62-1Z"/>
          <path class="cls-7" d="M260.74,61.88a3.18,3.18,0,0,1-1.37.27,2,2,0,0,1-2-2.2c0-1.37.77-2.35,1.94-2.35a1.77,1.77,0,0,1,1.69,2c0,.15,0,.26,0,.37h-3c0,1.21.7,1.66,1.48,1.66a2.75,2.75,0,0,0,1.14-.22Zm-.42-2.42c0-.59-.24-1.36-1.1-1.36s-1.15.76-1.21,1.36Z"/>
          <path class="cls-7" d="M266.35,58.27l-.24,0c-.72,0-1.09.71-1.09,1.45v2.37h-.66V59c0-.46,0-.89,0-1.3h.58l0,.84h0a1.3,1.3,0,0,1,1.18-.94l.2,0Z"/>
          <path class="cls-7" d="M272.47,61.91a2.78,2.78,0,0,1-1.18.25,2,2,0,0,1-2.07-2.22,2.18,2.18,0,0,1,2.23-2.33,2.4,2.4,0,0,1,1,.23l-.17.54a1.77,1.77,0,0,0-.9-.22,1.57,1.57,0,0,0-1.54,1.74,1.54,1.54,0,0,0,1.51,1.72,2.19,2.19,0,0,0,.94-.22Z"/>
          <path class="cls-7" d="M276.13,56.94a.45.45,0,0,1,0-.9.45.45,0,0,1,0,.9Zm.34,5.13h-.66V57.71h.66Z"/>
          <path class="cls-7" d="M282.22,58.37a1.56,1.56,0,0,0-.85-.26.66.66,0,0,0-.74.65c0,.38.25.55.81.79s1.11.66,1.11,1.31S282,62.15,281,62.15a2.31,2.31,0,0,1-1.14-.3l.18-.51a2.08,2.08,0,0,0,1,.3c.58,0,.87-.31.87-.7s-.23-.63-.81-.86c-.74-.3-1.11-.7-1.11-1.23a1.29,1.29,0,0,1,1.42-1.24,1.93,1.93,0,0,1,1,.26Z"/>
          <path class="cls-7" d="M289.06,61.88a3.18,3.18,0,0,1-1.37.27,2,2,0,0,1-2-2.2c0-1.37.77-2.35,1.94-2.35a1.77,1.77,0,0,1,1.69,2c0,.15,0,.26,0,.37h-3c0,1.21.7,1.66,1.48,1.66a2.75,2.75,0,0,0,1.14-.22Zm-.42-2.42c0-.59-.24-1.36-1.1-1.36s-1.15.76-1.21,1.36Z"/>
          <path class="cls-7" d="M294.73,58.37a1.57,1.57,0,0,0-.85-.26.66.66,0,0,0-.74.65c0,.38.25.55.81.79s1.11.66,1.11,1.31-.59,1.29-1.54,1.29a2.31,2.31,0,0,1-1.14-.3l.18-.51a2.08,2.08,0,0,0,1,.3c.58,0,.87-.31.87-.7s-.23-.63-.81-.86c-.74-.3-1.11-.7-1.11-1.23a1.29,1.29,0,0,1,1.42-1.24,1.93,1.93,0,0,1,1,.26Z"/>
        </g>
        <path class="cls-1" d="M0,25.11c4.27-.21,8.55-.3,12.82-.38s8.55-.07,12.82-.12,8.55,0,12.82.11l6.41.14c2.14.08,4.27.13,6.41.25-2.14.11-4.27.16-6.41.25l-6.41.14c-4.27.08-8.55.08-12.82.11s-8.55,0-12.82-.12S4.27,25.32,0,25.11Z"/>
        <path class="cls-5" d="M275.32,25.11c4.27-.21,8.55-.3,12.82-.38s8.55-.07,12.82-.12,8.55,0,12.82.11l6.41.14c2.14.08,4.27.13,6.41.25-2.14.11-4.27.16-6.41.25l-6.41.14c-4.27.08-8.55.08-12.82.11s-8.55,0-12.82-.12S279.6,25.32,275.32,25.11Z"/>
      </g>
    </g>
  </g>
</svg>
