<svg xmlns="http://www.w3.org/2000/svg" viewBox="0 0 372.1 29.92"><defs><style>.cls-1{fill:#fff;}</style></defs><g id="图层_2" data-name="图层 2"><g id="图层_1-2" data-name="图层 1"><path class="cls-1" d="M7.3,1.89c0-.19.14-.35.44-.48a3.46,3.46,0,0,1,1.12-.23,10.53,10.53,0,0,1,1.46.05,6.91,6.91,0,0,1,1.44.31,3.39,3.39,0,0,1,1.1.59,1.1,1.1,0,0,1,.45.88,1.5,1.5,0,0,1-.14.64c-.1.19-.21.38-.32.57a5,5,0,0,0-.32.6,1.38,1.38,0,0,0-.15.62q0,.42.45.42a3.18,3.18,0,0,0,1.27-.28c.43-.18.89-.37,1.36-.59s.94-.41,1.42-.59a4.22,4.22,0,0,1,1.49-.27l.77,0a2,2,0,0,1,.7.18,1.18,1.18,0,0,1,.51.43,1.35,1.35,0,0,1,.19.77,1.42,1.42,0,0,1-.62,1.18,5.12,5.12,0,0,1-1.57.78,14.1,14.1,0,0,1-2.08.5c-.76.13-1.48.25-2.16.35s-1.28.23-1.79.35a1.52,1.52,0,0,0-1,.52,4.56,4.56,0,0,0-.13.46q-.09.4-.21.9c-.07.33-.13.65-.19,1s-.09.5-.11.59a.18.18,0,0,0,.19.13,11.67,11.67,0,0,0,2.4-.26c.81-.17,1.59-.36,2.34-.58.15,0,.22-.1.22-.19a.91.91,0,0,0-.16-.46l-.3-.51a1.2,1.2,0,0,1-.18-.42c0-.12.06-.18.23-.18a1.29,1.29,0,0,1,.75.24,4.75,4.75,0,0,1,.64.56l.62.66a2.24,2.24,0,0,0,.71.5,8.54,8.54,0,0,0,1.13.44,10.39,10.39,0,0,1,1.14.45,16.16,16.16,0,0,1,2.24,1.19,7.3,7.3,0,0,1,1.69,1.47,5.85,5.85,0,0,1,1.09,1.92,7.47,7.47,0,0,1,.39,2.53,7.22,7.22,0,0,1-1.3,4.4,9.52,9.52,0,0,1-3.28,2.78,15.29,15.29,0,0,1-4.35,1.47,25,25,0,0,1-4.51.43h-.56a1.28,1.28,0,0,1-.56-.12c.06-.13.37-.29.92-.48s1.24-.45,2-.76a24.42,24.42,0,0,0,2.56-1.18,12.06,12.06,0,0,0,2.51-1.78,9.21,9.21,0,0,0,1.92-2.48A6.92,6.92,0,0,0,22,18.56a8.34,8.34,0,0,0-.26-2,6.67,6.67,0,0,0-.78-1.9,4.77,4.77,0,0,0-1.35-1.44,3.17,3.17,0,0,0-1.9-.58.31.31,0,0,0-.29.19,13.19,13.19,0,0,0-.75,1.3,11.87,11.87,0,0,1-.79,1.3c-.27.4-.58.82-.92,1.24s-.68.86-1,1.3-.61.89-.89,1.34a6.47,6.47,0,0,0-.64,1.4,1.43,1.43,0,0,0,0,.65,5,5,0,0,0,.14.67c.07.23.13.46.2.69a2.75,2.75,0,0,1,.09.67,1.42,1.42,0,0,1-.4,1,1.31,1.31,0,0,1-1,.41,1.37,1.37,0,0,1-.62-.14,4.3,4.3,0,0,1-.56-.32l-.48-.32a.71.71,0,0,0-.38-.14.76.76,0,0,0-.28.12,1.31,1.31,0,0,0-.27.2,15,15,0,0,1-1.33.84,12.61,12.61,0,0,1-1.42.72,8.22,8.22,0,0,1-1.22.47,9.39,9.39,0,0,1-1,.21,8.81,8.81,0,0,1-1,.06H1.54a1,1,0,0,1-.74-.32,2.35,2.35,0,0,1-.46-.77,4.28,4.28,0,0,1-.26-.93,5.37,5.37,0,0,1-.08-.8,7.78,7.78,0,0,1,.53-2.89A9,9,0,0,1,2,18.42a14.49,14.49,0,0,1,2-2,28.45,28.45,0,0,1,2.36-1.72c.08-.07.2-.15.36-.26l.5-.34.48-.33A1.32,1.32,0,0,0,8,13.47a2.21,2.21,0,0,0,.51-1.26c0-.48.06-.94.06-1.36,0-.07,0-.18,0-.34a2.33,2.33,0,0,0,0-.46,2.15,2.15,0,0,0-.09-.4.25.25,0,0,0-.26-.18H4.29a2,2,0,0,1-1.19-.4,3.92,3.92,0,0,1-.89-.88c-.09-.13-.18-.28-.29-.46a5.93,5.93,0,0,1-.29-.56,6,6,0,0,1-.22-.59,1.68,1.68,0,0,1-.1-.53,1.58,1.58,0,0,1,0-.23c0-.1.08-.16.16-.16A1.6,1.6,0,0,1,2,5.82l.79.37a8.76,8.76,0,0,0,.89.37,2.58,2.58,0,0,0,.85.16H8.9a.29.29,0,0,0,.32-.32V3.17c0-.09-.08-.19-.24-.31a4.14,4.14,0,0,0-.56-.32l-.61-.27-.42-.19ZM3,22.37c0,.4.07.63.22.69a2.56,2.56,0,0,0,.74.08A6.1,6.1,0,0,0,5,23a11,11,0,0,0,1.46-.45,6.49,6.49,0,0,0,1.29-.66,1,1,0,0,0,.56-.78,2.94,2.94,0,0,0-.08-.72c0-.25-.1-.49-.14-.72A7.47,7.47,0,0,1,8,17.76a4.87,4.87,0,0,0-.24-1.86l-.09-.19s-.09-.06-.19-.06a1,1,0,0,0-.72.24c-.16.16-.34.34-.53.56-.36.4-.74.81-1.12,1.21a11.21,11.21,0,0,0-1,1.28,6.58,6.58,0,0,0-.75,1.44A4.5,4.5,0,0,0,3,22Zm7.68-7c0,.26,0,.54,0,.85s0,.62,0,.94,0,.64.07.95a4.41,4.41,0,0,0,.14.78.67.67,0,0,0,.1.18s.08.05.19.05a1.15,1.15,0,0,0,.72-.4,5.72,5.72,0,0,0,.75-.95c.23-.36.45-.72.66-1.09s.34-.64.43-.83.3-.51.51-.83.43-.64.66-1,.42-.63.59-.93a2.58,2.58,0,0,0,.32-.77c0-.12,0-.19-.13-.19-.28,0-.67,0-1.17.08s-1,.14-1.53.24a6,6,0,0,0-1.43.47,1.44,1.44,0,0,0-.8.72,1.42,1.42,0,0,0-.05.32c0,.15,0,.31,0,.49v.88Z"/><path class="cls-1" d="M42.69,6.08l.67-.35.88-.45a8.81,8.81,0,0,1,.88-.37,2.35,2.35,0,0,1,.67-.14,1.29,1.29,0,0,1,1.44,1.47,1.89,1.89,0,0,1-.33,1.17,2.55,2.55,0,0,1-.88.7,4.6,4.6,0,0,1-1.22.4l-1.34.27c-.45.1-.87.21-1.27.34a2.35,2.35,0,0,0-1,.58,3,3,0,0,0-.6.81,7.1,7.1,0,0,0-.4,1c-.17.47-.37,1.1-.6,1.9S39.11,15,38.8,16s-.66,1.92-1,2.9a20,20,0,0,1-1.25,2.66,8.45,8.45,0,0,1-1.45,1.93,2.43,2.43,0,0,1-1.68.75,1.23,1.23,0,0,1-1.25-.68,3.34,3.34,0,0,1-.32-1.46,4.63,4.63,0,0,1,.41-1.92,10.52,10.52,0,0,1,1-1.71c.4-.55.82-1.08,1.27-1.6a10.89,10.89,0,0,0,1.15-1.62l.48-.85q.34-.62.72-1.32c.24-.47.46-.91.65-1.32a2.49,2.49,0,0,0,.29-.76c0-.15,0-.36,0-.63s-.1-.4-.34-.4c-.72,0-1.47,0-2.22-.06a6.49,6.49,0,0,1-2-.43A3.4,3.4,0,0,1,31.71,8.3a3.72,3.72,0,0,1-.57-2.22c0-.19.1-.29.32-.29a2.15,2.15,0,0,1,.7.15,8.23,8.23,0,0,1,.85.33l.85.39a5.87,5.87,0,0,0,.73.28A3.24,3.24,0,0,0,36,7.18h1.43a5.67,5.67,0,0,0,1.07-.08A.87.87,0,0,0,39,6.77a1.43,1.43,0,0,0,.23-.66c0-.28.05-.63.08-1.05A2,2,0,0,0,39,3.87,4,4,0,0,0,38.34,3c-.26-.23-.49-.44-.71-.62a.83.83,0,0,1-.32-.63.43.43,0,0,1,.27-.37,2,2,0,0,1,.63-.19c.23,0,.47-.05.7-.06l.51,0,.9,0a10.4,10.4,0,0,1,1.1.09,3.73,3.73,0,0,1,1,.29,1.32,1.32,0,0,1,.64.59,1.27,1.27,0,0,1,.08.8,8.16,8.16,0,0,1-.22.92c-.1.31-.2.62-.31.92a2.86,2.86,0,0,0-.16.85c0,.09,0,.19,0,.31S42.56,6.1,42.69,6.08Zm4.57,13.34,0,0,.09-.22c0-.43,0-.91,0-1.46s0-1.09.08-1.65a10.59,10.59,0,0,1,.24-1.61,4,4,0,0,1,.53-1.33,4.52,4.52,0,0,1,.84-.9L50.54,11,51.9,9.86a2.91,2.91,0,0,0,.61-.58.83.83,0,0,0-.33-.7,3.12,3.12,0,0,0-.79-.42c-.3-.11-.61-.2-.93-.29a2.35,2.35,0,0,1-.76-.32l-.07-.13a.49.49,0,0,1,.27-.28A1.69,1.69,0,0,1,50.38,7l.53-.06.42,0a18.63,18.63,0,0,1,2.4.15,5.33,5.33,0,0,1,2,.62,3.66,3.66,0,0,1,1.4,1.39,4.85,4.85,0,0,1,.52,2.42,1.43,1.43,0,0,1-.25,1,1.56,1.56,0,0,1-1,.24,4.26,4.26,0,0,1-1.12-.15c-.36-.09-.72-.2-1.07-.32L53.12,12A4.64,4.64,0,0,0,52,11.81a3,3,0,0,0-1.84.49,2.08,2.08,0,0,0-.66,1.75c0,.36,0,.83,0,1.39a16.42,16.42,0,0,0,.14,1.71A10.8,10.8,0,0,0,50,18.77a2.92,2.92,0,0,0,.59,1.17,4.25,4.25,0,0,0,1.35,1,14.82,14.82,0,0,0,1.56.61l1.59.49a4.46,4.46,0,0,1,1.39.71,3.38,3.38,0,0,1,1,1.21,4.36,4.36,0,0,1,.39,2v.37a.82.82,0,0,1-.07.34,1.75,1.75,0,0,1-1.34.76,2,2,0,0,1-1.38-.54A15.82,15.82,0,0,1,54,25.7a14.15,14.15,0,0,0-1.12-1.19A1.93,1.93,0,0,0,51.46,24a1.14,1.14,0,0,0-.28,0,.3.3,0,0,0-.17.19,1.85,1.85,0,0,0-.08.48c0,.17,0,.33,0,.48a3.91,3.91,0,0,1-1.63,2.72,5.1,5.1,0,0,1-1.94.83,10.13,10.13,0,0,1-2.09.23,10,10,0,0,1-2-.21,6,6,0,0,1-1.84-.7A4.06,4.06,0,0,1,40,26.72a3.6,3.6,0,0,1-.51-2,4,4,0,0,1,.73-2.47,5.5,5.5,0,0,1,1.84-1.58,8.4,8.4,0,0,1,2.44-.85A18.18,18.18,0,0,1,47,19.52Zm.13,3.43c0-.15,0-.29,0-.43A.82.82,0,0,0,47.3,22a.52.52,0,0,0-.28-.2,1.89,1.89,0,0,0-.44-.13l-.48-.07h-.37c-.43,0-.93,0-1.51.05a7.12,7.12,0,0,0-1.63.27,3.18,3.18,0,0,0-1.31.73A1.88,1.88,0,0,0,40.74,24,1.46,1.46,0,0,0,41,25a2.14,2.14,0,0,0,.75.57,3.45,3.45,0,0,0,1,.29,7.56,7.56,0,0,0,1,.08,5.83,5.83,0,0,0,1.42-.16,3.12,3.12,0,0,0,1.15-.53,2.37,2.37,0,0,0,.77-1A3.39,3.39,0,0,0,47.39,22.85Z"/><path class="cls-1" d="M70.14,11.65a.28.28,0,0,0-.32-.32c-.66,0-1.37,0-2.12-.08a7.2,7.2,0,0,1-2.12-.45A3.83,3.83,0,0,1,64,9.7a3.06,3.06,0,0,1-.64-2.08c0-.22.14-.31.43-.28a5.76,5.76,0,0,1,1,.24c.36.13.7.27,1,.42a5.81,5.81,0,0,0,.65.26,4,4,0,0,0,1,.17l1,0,1.37,0a1.94,1.94,0,0,0,1-.24,1.36,1.36,0,0,0,.58-.7,4.05,4.05,0,0,0,.19-1.44c0-.36,0-.79,0-1.28a3.68,3.68,0,0,0-.11-1.25,2,2,0,0,0-.42-.69,4.78,4.78,0,0,0-.59-.53c-.2-.14-.38-.28-.53-.4s-.22-.2-.22-.27.08-.19.25-.25a2.46,2.46,0,0,1,.58-.15l.62-.06.4,0,1.24,0a8.64,8.64,0,0,1,1.53.17,3.81,3.81,0,0,1,1.3.52,1.13,1.13,0,0,1,.54,1A2.81,2.81,0,0,1,75.94,4c-.17.39-.36.75-.56,1.11s-.39.7-.56,1.05a2.33,2.33,0,0,0-.26,1c0,.11.06.16.19.16A2.11,2.11,0,0,0,75.81,7c.38-.22.79-.46,1.21-.73s.87-.51,1.32-.74a3,3,0,0,1,1.34-.33,3.91,3.91,0,0,1,.83.09,2.46,2.46,0,0,1,.74.31,1.71,1.71,0,0,1,.53.54A1.61,1.61,0,0,1,82,7a1.33,1.33,0,0,1-.56,1A5.25,5.25,0,0,1,80,8.83a14.85,14.85,0,0,1-1.82.63q-1,.27-1.89.48l-1.54.36a2.17,2.17,0,0,0-.76.29,6.08,6.08,0,0,0-1.27,2.29c-.37,1.06-.74,2.24-1.1,3.55s-.72,2.67-1.07,4.07a36,36,0,0,1-1.2,3.82,13,13,0,0,1-1.49,2.85A2.37,2.37,0,0,1,66,28.29a1.52,1.52,0,0,1-.83-.23,2.36,2.36,0,0,1-.61-.57A2.94,2.94,0,0,1,64,25.86a5.34,5.34,0,0,1,.45-2,18.43,18.43,0,0,1,1.14-2.26c.45-.77.94-1.58,1.47-2.41s1-1.67,1.47-2.51a18.13,18.13,0,0,0,1.14-2.53A7.59,7.59,0,0,0,70.14,11.65Zm5.54,8.29.13.09a7,7,0,0,0,.69,1.43,6.76,6.76,0,0,0,1,1.26,6,6,0,0,0,1.28,1,4.42,4.42,0,0,0,1.48.51,8,8,0,0,0,1.63.1c.55,0,1.11-.06,1.66-.11L85.2,24a15,15,0,0,1,1.65-.08,8.54,8.54,0,0,1,1,.06,3.36,3.36,0,0,1,1,.26,1.81,1.81,0,0,1,.75.56,1.44,1.44,0,0,1,.31.94A1.67,1.67,0,0,1,89.38,27a3.15,3.15,0,0,1-1.19.71,6,6,0,0,1-1.49.3c-.52,0-1,.07-1.36.07-1.21,0-2.42-.05-3.61-.15a9.7,9.7,0,0,1-3.22-.78,5.38,5.38,0,0,1-2.3-2,6.42,6.42,0,0,1-.88-3.62c0-.28,0-.54,0-.78a3,3,0,0,1,.15-.79Zm6.14-4.16.37-.34.56-.51a6,6,0,0,0,.5-.53.81.81,0,0,0,.21-.35.45.45,0,0,0-.21-.4,1.77,1.77,0,0,0-.5-.23,2.9,2.9,0,0,0-.59-.09l-.5,0H78.11l-.21,0a.15.15,0,0,1-.14-.16.27.27,0,0,1,0-.13l.11-.13a5.12,5.12,0,0,1,1.6-.86,13.53,13.53,0,0,1,2.3-.61,14.5,14.5,0,0,1,2.56-.22,8.9,8.9,0,0,1,2.39.29,4,4,0,0,1,1.76.94,2.26,2.26,0,0,1,.69,1.71v.39a1.33,1.33,0,0,1-.07.38,1,1,0,0,1-.81.58l-1,.09c-.92.09-1.83.2-2.72.35a16.55,16.55,0,0,1-2.72.23L81.73,16Z"/><path class="cls-1" d="M108.06,27.3c0-.07.09-.13.2-.2q1.47-.86,2.76-1.53c.87-.45,1.65-.9,2.36-1.35a13.4,13.4,0,0,0,1.88-1.42A6.73,6.73,0,0,0,116.67,21a8.72,8.72,0,0,0,.87-2.45,17.6,17.6,0,0,0,.28-3.42,14.33,14.33,0,0,0-.25-2.69,11,11,0,0,0-.83-2.58,9.06,9.06,0,0,0-1.48-2.22A7.12,7.12,0,0,0,113.09,6a6.23,6.23,0,0,0-2-.68,17.5,17.5,0,0,0-2.13-.12l-.27,0-.37,0a.89.89,0,0,0-.34.07.27.27,0,0,0-.17.19,1,1,0,0,0,.27.8l.75,1.1a12.5,12.5,0,0,1,.77,1.35,3.49,3.49,0,0,1,.35,1.52,14.64,14.64,0,0,1-.32,2.8,22.22,22.22,0,0,1-.94,3.26,25.79,25.79,0,0,1-1.51,3.31,16,16,0,0,1-2,2.9,9.62,9.62,0,0,1-2.4,2.05,5.29,5.29,0,0,1-2.75.78,3.28,3.28,0,0,1-2.3-.88,6.82,6.82,0,0,1-1.57-2.14,11.5,11.5,0,0,1-.9-2.69A12.86,12.86,0,0,1,95,17.12a11.29,11.29,0,0,1,1.24-5.28,13.34,13.34,0,0,1,3.3-4.11,15.37,15.37,0,0,1,4.67-2.66,15.67,15.67,0,0,1,5.35-.94,13.61,13.61,0,0,1,4.88.88,12.83,12.83,0,0,1,4.06,2.46,12,12,0,0,1,2.78,3.78,11.08,11.08,0,0,1,1,4.85,9.85,9.85,0,0,1-1.16,4.8,11.52,11.52,0,0,1-3.06,3.56,13.44,13.44,0,0,1-4.29,2.21,16.21,16.21,0,0,1-4.86.75l-.45,0A.68.68,0,0,1,108.06,27.3ZM98,15.78a11.28,11.28,0,0,0,.11,1.36,8.49,8.49,0,0,0,.39,1.58A3.91,3.91,0,0,0,99.2,20a1.53,1.53,0,0,0,1.22.55,2.83,2.83,0,0,0,1.76-.69,8.66,8.66,0,0,0,1.63-1.79,18.62,18.62,0,0,0,1.42-2.47,24.52,24.52,0,0,0,1.12-2.7,24.65,24.65,0,0,0,.74-2.53,9.07,9.07,0,0,0,.27-1.92c0-.19,0-.45,0-.77a4.36,4.36,0,0,0-.19-.94,2.61,2.61,0,0,0-.4-.8.76.76,0,0,0-.64-.34,5,5,0,0,0-2.13.48A7.81,7.81,0,0,0,102,7.39a11.61,11.61,0,0,0-1.65,1.83,13.17,13.17,0,0,0-1.3,2.16,12,12,0,0,0-.83,2.27A8.83,8.83,0,0,0,98,15.78Z"/><path class="cls-1" d="M151.81,24.06l1.17.66a6,6,0,0,1,1.07.77,3.71,3.71,0,0,1,.78,1,2.78,2.78,0,0,1,.31,1.33,2.47,2.47,0,0,1-.37,1.42,1.52,1.52,0,0,1-1.33.53,1.23,1.23,0,0,1-.72-.37,8.12,8.12,0,0,1-.93-.93,12.23,12.23,0,0,1-1-1.26c-.32-.47-.62-.92-.88-1.36a10.34,10.34,0,0,1-.64-1.2,2.28,2.28,0,0,1-.24-.83c0-.09.05-.15.17-.19a1.31,1.31,0,0,1,.42-.08h.78c.07,0,.12-.06.16-.19a1.43,1.43,0,0,0,.07-.43,2.14,2.14,0,0,0,0-.45q0-.21-.18-.21h-4.06c-.17,0-.29.15-.34.43a4.4,4.4,0,0,0-.08.63c0,.11.12.24.35.4s.5.32.79.48.55.31.78.46.35.28.35.39-.06.16-.19.3-.28.29-.46.45l-.51.45a3.67,3.67,0,0,1-.34.27l-1.41,1c-.51.36-1,.7-1.58,1a9.6,9.6,0,0,1-1.68.75,5.51,5.51,0,0,1-1.73.29c-.09,0-.13,0-.13-.13s.19-.31.58-.67.8-.79,1.26-1.28A13.83,13.83,0,0,0,143.3,26a2.78,2.78,0,0,0,.57-1.57c0-.19-.09-.28-.29-.28a2.45,2.45,0,0,0-.75.12l-.73.28c-.25.09-.5.18-.74.25a2.43,2.43,0,0,1-.75.11,2.06,2.06,0,0,1-.74-.17.93.93,0,0,1-.57-.47,1.38,1.38,0,0,1-.08-.44c0-.17,0-.32-.05-.45s0-.51-.08-.83a7.52,7.52,0,0,0-.15-.95,3.94,3.94,0,0,0-.28-.86,2.08,2.08,0,0,0-.48-.66.17.17,0,0,0-.1,0c-.15,0-.23.12-.24.35s0,.41,0,.51c0,.43,0,.87.05,1.32s0,.88,0,1.31a16,16,0,0,1-.13,2,7.61,7.61,0,0,1-.51,2.05,4.33,4.33,0,0,1-1.09,1.6,2.69,2.69,0,0,1-1.89.64.22.22,0,0,1-.2-.08,1.72,1.72,0,0,1-.12-.21,7,7,0,0,1-.33-1.18,2.87,2.87,0,0,0-.5-1.12,3.38,3.38,0,0,0-.35-.47,1.38,1.38,0,0,1-.29-.46.49.49,0,0,1,.31-.16l.44,0a3.56,3.56,0,0,0,.47-.05.72.72,0,0,0,.38-.16c.07,0,.12-.24.16-.59s.08-.74.1-1.17,0-.83,0-1.21,0-.64,0-.77,0-.27,0-.43-.12-.24-.31-.24-.26.13-.46.38-.43.57-.69.95-.53.78-.83,1.23-.6.86-.9,1.25a8.48,8.48,0,0,1-.86,1,1.19,1.19,0,0,1-.74.38l-.06-.1c.42-1.51.81-3,1.15-4.44a8.59,8.59,0,0,0,.19-1.09,4.33,4.33,0,0,1,.26-1.06l.09-.19s.09-.06.2-.06a1.34,1.34,0,0,1,.51.11c.19.07.38.16.57.25a5.78,5.78,0,0,0,.58.26,1.58,1.58,0,0,0,.54.11,2.34,2.34,0,0,0,.5-.06.32.32,0,0,0,.27-.35v-1.8l-.08-.2a.2.2,0,0,0-.21-.12,3.05,3.05,0,0,0-.54.13c-.28.09-.56.16-.85.23a3.8,3.8,0,0,1-.77.09c-.22,0-.33-.08-.33-.25V6.82a.47.47,0,0,1,0-.24.19.19,0,0,1,.2-.12,1,1,0,0,1,.48.18L133,7l.64.37a1.38,1.38,0,0,0,.61.17l.13-.09a2.92,2.92,0,0,0,.08-.69c0-.33,0-.68,0-1.06s0-.73,0-1.09,0-.61,0-.78a.28.28,0,0,0-.32-.32H130.3a.31.31,0,0,0-.35.35q0,2.28,0,4.53t0,4.53c0,1.21,0,2.41-.06,3.58s-.1,2.33-.22,3.47a24.54,24.54,0,0,1-.64,3.4,18,18,0,0,1-1.28,3.34A8.24,8.24,0,0,1,126,29a.34.34,0,0,1-.23.13c-.08,0-.13-.07-.13-.22a12.11,12.11,0,0,1,.28-2.63c.18-.85.37-1.7.59-2.56q.09-.4.21-.81a3.35,3.35,0,0,0,.11-.85v-20a.52.52,0,0,1,.06-.22.2.2,0,0,1,.19-.13,1.92,1.92,0,0,1,.69.21l1,.46a12.38,12.38,0,0,0,1.2.46,3.79,3.79,0,0,0,1.2.21h4.9a.85.85,0,0,0,.72-.38,7.64,7.64,0,0,0,.51-.85,9.76,9.76,0,0,1,.5-.86,1,1,0,0,1,.7-.47,3.27,3.27,0,0,1,.8.55c.32.27.64.56,1,.86s.63.57.93.8a1.28,1.28,0,0,0,.7.35h8.26a1,1,0,0,0,.7-.41,6.34,6.34,0,0,0,.66-.92l.56-.91c.17-.27.32-.41.45-.41a1.93,1.93,0,0,1,.64.4c.34.26.7.57,1.08.91s.73.66,1,1,.45.48.45.54a.7.7,0,0,1,0,.27c0,.08-.09.12-.22.12h-4.64l-.22.09L148,6.4l-.1.22a.49.49,0,0,0,0,.2.18.18,0,0,0,.18.09l1,0c.32,0,.65,0,1,0,.09,0,.22-.08.4-.25s.37-.36.56-.56.37-.39.54-.56.3-.26.39-.26a1.85,1.85,0,0,1,.56.34c.31.22.63.47,1,.73s.65.53.93.77.42.4.42.46,0,.07-.11.15a2.66,2.66,0,0,0-.23.24l-.22.25a.33.33,0,0,0-.11.2V22.5c0,.19-.13.31-.39.35l-.85.14a4.63,4.63,0,0,0-.84.24.63.63,0,0,0-.39.64Zm-17.38-7.87a.28.28,0,0,0,.32.32h2.56a.28.28,0,0,0,.32-.32V8.51a.29.29,0,0,0-.32-.32h-2.56a.29.29,0,0,0-.32.32Zm7-7.71-.43.35a.61.61,0,0,0-.27.45V17c0,.24-.16.38-.48.43s-.68.1-1.08.15a4.82,4.82,0,0,0-1.07.22.61.61,0,0,0-.48.61,1.26,1.26,0,0,0,.45.83,7.55,7.55,0,0,0,1,.86,12.71,12.71,0,0,0,1.2.76l.93.52a4.82,4.82,0,0,1,.57.39,2.35,2.35,0,0,0,.64.35.25.25,0,0,0,.23-.11.6.6,0,0,0,.06-.27q0-4-.09-8t-.1-7.95c0-.19.11-.29.32-.29a2.84,2.84,0,0,1,.77.16,7.82,7.82,0,0,1,1,.4,5.47,5.47,0,0,1,.86.53,1.29,1.29,0,0,1,.48.55,5.43,5.43,0,0,1,.19,1.37c.05.69.08,1.49.1,2.4s0,1.91,0,3,0,2.07,0,3,0,1.85,0,2.64,0,1.38,0,1.76a.28.28,0,0,0,.32.32h3.78a.28.28,0,0,0,.32-.32V7.78a.28.28,0,0,0-.32-.32h-3.2a.28.28,0,0,1-.32-.32V4.06a.54.54,0,0,0-.23-.35.61.61,0,0,0-.35-.19l-8.83.19a.41.41,0,0,0-.16,0c-.07,0-.1.07-.1.11a.52.52,0,0,0,.11.35,1,1,0,0,0,.23.2l.22.12a.19.19,0,0,1,.11.16c0,.13-.13.27-.4.42s-.55.33-.86.53a6.37,6.37,0,0,0-.86.67,1.09,1.09,0,0,0-.4.82,2.62,2.62,0,0,0,0,.27c0,.09.08.14.21.14h1.57l.22-.09,1.31-1.32.2-.06a5.21,5.21,0,0,1,.64.37c.27.18.56.39.84.62a7.7,7.7,0,0,1,.77.71,1.44,1.44,0,0,1,.4.57Zm-4.64,3.9s-.06.08-.19.1a3,3,0,0,1-.45,0,4.07,4.07,0,0,1-.5,0,.49.49,0,0,1-.3-.1s0-.07.14-.09a1.72,1.72,0,0,1,.34,0h.61A.42.42,0,0,1,136.8,12.38Zm10.11,4.68,0,0,.06-.06c.11,0,.32,0,.63,0h1.89a2.89,2.89,0,0,1,.49,0l-.06.1a1.25,1.25,0,0,1-.48.08h-1.7l-.57,0Zm0-5c0-.08.1-.14.29-.17a4,4,0,0,1,.64-.07h.71l.44,0h.44a.36.36,0,0,1,.33.21c0,.09-.14.16-.41.21a5.25,5.25,0,0,1-.92.08,7.5,7.5,0,0,1-1-.06C147.19,12.21,147,12.14,146.94,12Z"/><path class="cls-1" d="M159,4.9a.44.44,0,0,1,.27-.15h.31a6.77,6.77,0,0,1,2,.32A6.93,6.93,0,0,1,163.6,6,5.23,5.23,0,0,1,165,7.47a3.62,3.62,0,0,1,.56,2,6.44,6.44,0,0,1-.27,1.86c-.18.59-.38,1.19-.59,1.77s-.41,1.18-.6,1.78a6.37,6.37,0,0,0-.27,1.85A6.67,6.67,0,0,0,164,18a6,6,0,0,0,.44,1.4,3.65,3.65,0,0,0,.8,1.14,1.73,1.73,0,0,0,1.24.46,1.85,1.85,0,0,0,1.18-.4,4,4,0,0,0,.91-1,8.31,8.31,0,0,0,.72-1.28l.59-1.28a10.88,10.88,0,0,1,.52-1c.16-.27.33-.4.52-.4a.14.14,0,0,1,.15.14,2,2,0,0,1,0,.21A9.11,9.11,0,0,1,171,17.5c-.09.5-.19,1-.31,1.46s-.22,1-.3,1.44a7.93,7.93,0,0,0-.13,1.46,8.11,8.11,0,0,0,.16,1.52,6.34,6.34,0,0,1,.11,1.6,2.3,2.3,0,0,1-.45,1.28,1.75,1.75,0,0,1-1.48.52,4.83,4.83,0,0,1-1.46-.22,6.15,6.15,0,0,1-1.36-.61A8.48,8.48,0,0,1,164,24.54a11,11,0,0,1-2.51-4.08,7,7,0,0,1-.38-2.22V9.06a3.08,3.08,0,0,0-.31-1.36,8.37,8.37,0,0,0-.68-1.22c-.26-.37-.5-.7-.71-1A1.73,1.73,0,0,1,159,4.9ZM184,20.8a2.08,2.08,0,0,1-1-.19,2.17,2.17,0,0,1-.74-.67,3.37,3.37,0,0,1-.57-1.48c-.09-.55-.15-1.13-.2-1.72s-.09-1.19-.14-1.78a5,5,0,0,0-.43-1.65,5,5,0,0,0-.43-.69l-.79-1c-.3-.4-.61-.8-.94-1.2s-.64-.79-.91-1.14-.51-.64-.69-.88A2.33,2.33,0,0,1,176.9,8c0-.11,0-.17.14-.18h.24a6,6,0,0,1,1.2.12c.39.09.77.2,1.14.32a10.81,10.81,0,0,1,2.7,1.4,9.18,9.18,0,0,1,2.11,2.06,9.59,9.59,0,0,1,1.38,2.61,9,9,0,0,1,.49,3,8.47,8.47,0,0,1-.08,1.23,3.44,3.44,0,0,1-.33,1.14,2.2,2.2,0,0,1-.71.83A2,2,0,0,1,184,20.8Z"/><path class="cls-1" d="M198.75,15.46l.1.09a3.85,3.85,0,0,1-.13,1,9.43,9.43,0,0,1-.32,1c-.13.34-.26.68-.4,1s-.25.66-.34,1a13.7,13.7,0,0,0-.54,3.78,7.07,7.07,0,0,0,.21,1.52,9.38,9.38,0,0,1,.24,1.77,3,3,0,0,1-.29,1.49q-.32.63-1.41.63a2.63,2.63,0,0,1-1.58-.5,3.92,3.92,0,0,1-1.15-1.3,8.2,8.2,0,0,1-.77-1.8,16.3,16.3,0,0,1-.48-2,17.73,17.73,0,0,1-.24-2c-.05-.63-.07-1.17-.07-1.62a18,18,0,0,1,.31-3.28c.2-1.08.42-2.15.67-3.23s.47-2.16.67-3.23a18,18,0,0,0,.31-3.28,3.35,3.35,0,0,0-.18-1.08c-.12-.35-.25-.68-.38-1s-.27-.64-.39-1a2.62,2.62,0,0,1-.17-.93c0-.22.09-.32.28-.32a3.64,3.64,0,0,1,1.78.51A7,7,0,0,1,196.13,4a6.9,6.9,0,0,1,1.2,1.7,3.94,3.94,0,0,1,.46,1.79,6,6,0,0,1-.61,2.54c-.4.89-.84,1.81-1.32,2.77s-.92,2-1.32,3A9.14,9.14,0,0,0,194,19c0,.13,0,.32,0,.58a4.28,4.28,0,0,0,.12.73,1.85,1.85,0,0,0,.25.63.54.54,0,0,0,.47.27q.48,0,1-.75a15.76,15.76,0,0,0,1.07-1.73q.53-1,1-1.92a8.37,8.37,0,0,1,.72-1.33ZM209.33,9c0-.7,0-1.34,0-1.9a4,4,0,0,0-.2-1.49,2.3,2.3,0,0,0-.83-1.09,5.36,5.36,0,0,0-1.89-.74l-.1-.12a.19.19,0,0,0,0-.07.13.13,0,0,1,0-.06c0-.26.14-.48.49-.67a5.07,5.07,0,0,1,1.32-.47,7.19,7.19,0,0,1,1.72-.16,6.13,6.13,0,0,1,1.71.26,3.26,3.26,0,0,1,1.32.73,1.77,1.77,0,0,1,.53,1.33,4.55,4.55,0,0,1-.32,1.67,4.27,4.27,0,0,0-.32,1.66c0,.19.1.29.32.29a2,2,0,0,0,.73-.13c.24-.08.47-.18.71-.27s.47-.19.7-.27a2.06,2.06,0,0,1,.74-.13,3.17,3.17,0,0,1,.73.09,2.17,2.17,0,0,1,.69.31,1.9,1.9,0,0,1,.51.51,1.22,1.22,0,0,1,.21.72,1.49,1.49,0,0,1-.33,1,2.26,2.26,0,0,1-.87.6,6.94,6.94,0,0,1-1.2.32l-1.31.22a8.86,8.86,0,0,0-1.18.29,1.89,1.89,0,0,0-.87.53,6.33,6.33,0,0,0-.06.86v.86q0,.67,0,1.44c0,.52,0,1,0,1.56a10.74,10.74,0,0,0,.13,1.52,5,5,0,0,0,.37,1.34,1.18,1.18,0,0,0,.64.53c.34.16.75.33,1.23.53s1,.4,1.52.64a6.53,6.53,0,0,1,1.45.86,4.78,4.78,0,0,1,1.11,1.22,3,3,0,0,1,.45,1.66,1.69,1.69,0,0,1-.39,1.15,1.38,1.38,0,0,1-1.12.45,1.82,1.82,0,0,1-1.2-.43,9,9,0,0,1-1-1,12.74,12.74,0,0,0-1-1,1.64,1.64,0,0,0-1.14-.45q-.09,0-.33.45c-.16.3-.33.64-.51,1s-.37.74-.56,1.09a3.16,3.16,0,0,1-.48.69,4.51,4.51,0,0,1-.93.51,7,7,0,0,1-1.15.35,10.64,10.64,0,0,1-1.2.19c-.4,0-.76.07-1.08.07a9.29,9.29,0,0,1-2-.23,5.74,5.74,0,0,1-1.82-.73,4.22,4.22,0,0,1-1.33-1.33,3.78,3.78,0,0,1-.51-2,3.61,3.61,0,0,1,.61-2.15,4.61,4.61,0,0,1,1.55-1.39,7.38,7.38,0,0,1,2.08-.77,14.72,14.72,0,0,1,2.19-.3h.38a4.07,4.07,0,0,0,.5,0,1.29,1.29,0,0,0,.42-.13.32.32,0,0,0,.17-.29v-6a.28.28,0,0,0-.32-.32h-4.38a1.64,1.64,0,0,1-.93-.4,7.61,7.61,0,0,1-1.06-.94,6.09,6.09,0,0,1-.86-1.14,2,2,0,0,1-.35-1c0-.2.09-.29.29-.29a1.25,1.25,0,0,1,.54.13,5.69,5.69,0,0,1,.61.3,4.33,4.33,0,0,0,.66.3,1.8,1.8,0,0,0,.69.13h4.49a.53.53,0,0,0,.31-.13l.27-.22Zm-6.67,14.5a1.33,1.33,0,0,0,.28.88,2,2,0,0,0,.71.51,2.89,2.89,0,0,0,.91.22c.33,0,.63.05.91.05a11.28,11.28,0,0,0,1.6-.11,4,4,0,0,0,1.3-.43,2.39,2.39,0,0,0,.88-.93,3.58,3.58,0,0,0,.32-1.63.47.47,0,0,0-.26-.39,2,2,0,0,0-.61-.14l-.89-.07h-1.6c-.34,0-.72,0-1.12.06a4.31,4.31,0,0,0-1.15.29,2.62,2.62,0,0,0-.92.62A1.57,1.57,0,0,0,202.66,23.46Z"/><path class="cls-1" d="M221.7,15.81a.44.44,0,0,1,0-.19c.4-1,.85-1.94,1.34-2.87s.94-1.88,1.35-2.86a43.26,43.26,0,0,0,2-6.08c.15-.58.27-1.16.37-1.75S227,.9,227.17.32c0-.21.14-.32.29-.32a3.91,3.91,0,0,1,.81.18c.42.11.86.25,1.33.41l1.36.47c.44.15.74.25.91.32l.31.12a.42.42,0,0,1,.2.23s0,.08,0,.11l-.09.08a8.85,8.85,0,0,0-1.12,1.36,23.32,23.32,0,0,0-1.3,2.05c-.42.73-.78,1.44-1.09,2.13a4.17,4.17,0,0,0-.46,1.6.37.37,0,0,0,.27.38,3.4,3.4,0,0,0,.59.14c.22,0,.41.07.59.12s.28.13.28.28a.37.37,0,0,1-.28.36.35.35,0,0,0-.27.35v18c0,.24-.16.43-.49.58a5.49,5.49,0,0,1-1.16.35,11.76,11.76,0,0,1-1.29.18c-.43,0-.73,0-.9,0a.28.28,0,0,1-.32-.32V15.87a7,7,0,0,1,.11-1.2,6,6,0,0,0,.12-1.2v-.35c0-.15-.07-.22-.2-.22s-.36.14-.65.41-.6.59-.93.95-.67.68-1,1a3.35,3.35,0,0,1-.92.64ZM247.84,1,248,1c.13.13.39.37.79.71l1.23,1.09,1.15,1.05a7,7,0,0,1,.58.58l-.07.19-.06.06-.23.1-.6,0q-.45,0-.93,0a3.67,3.67,0,0,0-.85.08c-.25,0-.37.15-.37.3V26.34a2.3,2.3,0,0,1-.38,1.32,3.42,3.42,0,0,1-1,.95,6.74,6.74,0,0,1-1.29.64,13,13,0,0,1-1.32.41l-.62.16a1.87,1.87,0,0,1-.62.1.36.36,0,0,1-.31-.16,1.46,1.46,0,0,1-.17-.38c0-.15-.08-.31-.12-.47a3.17,3.17,0,0,0-.08-.37q-.15-.57-.27-1a2.93,2.93,0,0,0-.27-.67,2.23,2.23,0,0,0-.45-.54c-.19-.17-.45-.39-.77-.64l-.2-.16a.29.29,0,0,1-.12-.23c0-.08.07-.13.21-.16l.27,0h2.53a.46.46,0,0,0,.34-.22,1.47,1.47,0,0,0,.24-.39,2.75,2.75,0,0,0,.09-.67c0-.34,0-.75,0-1.23V21.1c0-.54,0-1.07,0-1.58s0-1,0-1.38v-.89q.08-3.08.1-6.08c0-2,0-4,0-6.08a.26.26,0,0,0-.11-.19.29.29,0,0,0-.21-.1H231.87a.16.16,0,0,1,0-.32h13.28q.25,0,.63-.45a9.36,9.36,0,0,0,.72-1l.67-1.15a8.93,8.93,0,0,1,.48-.78Zm-8.29,6.66.16-.07c.09,0,.28.18.59.4s.64.48,1,.77l1,.83.64.53.07.19a.84.84,0,0,1-.27.26l-.36.17a1.57,1.57,0,0,0-.3.2.35.35,0,0,0-.13.3v9a.76.76,0,0,1-.4.67,3.1,3.1,0,0,1-.94.4,6.8,6.8,0,0,1-1.11.21q-.56.06-.84.06a.28.28,0,0,1-.32-.32V10.43a.29.29,0,0,0-.32-.32h-2.15a.29.29,0,0,0-.32.32V18.3l.1.23a1,1,0,0,0,.78.38c.27,0,.56,0,.88,0a.14.14,0,0,1,.16.16c0,.13-.09.19-.29.19l-.62,0a3.21,3.21,0,0,0-.62,0,.29.29,0,0,0-.29.32V21q0,.23-.42.42a5.43,5.43,0,0,1-.94.33c-.35.1-.7.18-1,.24a3.85,3.85,0,0,1-.68.1,1.46,1.46,0,0,1-.29,0c-.11,0-.16-.08-.16-.2,0-2.29,0-4.55-.1-6.8s-.09-4.52-.09-6.8c0-.2.1-.29.32-.29a2.44,2.44,0,0,1,1.05.25l1.12.55c.39.19.78.37,1.19.54a3.25,3.25,0,0,0,1.28.26l.4,0,.4-.07Z"/><path class="cls-1" d="M265,18.66a15.6,15.6,0,0,1,.58-4.21,9,9,0,0,1,2-3.7,7.41,7.41,0,0,1,.75-.69l1.16-1q.59-.49,1.05-1c.31-.31.47-.53.47-.68a.26.26,0,0,0-.23-.29l-.38,0a7.8,7.8,0,0,0-3.14.73c-1.11.48-2.21,1-3.29,1.62s-2.13,1.13-3.11,1.62a5.84,5.84,0,0,1-2.53.73,3.26,3.26,0,0,1-1.52-.38,4.68,4.68,0,0,1-1.28-1,4.74,4.74,0,0,1-.88-1.36,4,4,0,0,1-.32-1.53c0-.7.11-1.1.31-1.21a.87.87,0,0,1,.78,0,7.35,7.35,0,0,1,1,.57,1.94,1.94,0,0,0,1.07.37,19.89,19.89,0,0,0,4.88-.6c1.59-.41,3.18-.84,4.77-1.32s3.18-.92,4.77-1.32a20,20,0,0,1,4.88-.6,12.5,12.5,0,0,1,1.26.08,5.78,5.78,0,0,1,1.38.32,3.09,3.09,0,0,1,1.12.68A1.55,1.55,0,0,1,281,5.77a2.06,2.06,0,0,1-.3,1.21,1.39,1.39,0,0,1-1.17.41l-2.25,0a17.14,17.14,0,0,0-2.26.23,9.44,9.44,0,0,0-3.3,1.17,7.23,7.23,0,0,0-2.19,2,8,8,0,0,0-1.21,2.78,14.78,14.78,0,0,0-.37,3.43c0,3.43,1.7,5.48,5.12,6.14a7.82,7.82,0,0,0,1.6.16,6.79,6.79,0,0,1,1.6.19,2.9,2.9,0,0,1,1.39.83,2.21,2.21,0,0,1,.56,1.54A1.76,1.76,0,0,1,278,27a1.79,1.79,0,0,1-.75.57,3.32,3.32,0,0,1-1,.24c-.36,0-.71.05-1.05.05A14.83,14.83,0,0,1,271,27.3a8.84,8.84,0,0,1-3.21-1.67,7.42,7.42,0,0,1-2.1-2.85A10.28,10.28,0,0,1,265,18.66Zm14.27-2.95a1.79,1.79,0,0,1-.93-.51,11.31,11.31,0,0,1-1.2-1.2,13,13,0,0,1-1-1.36,2.19,2.19,0,0,1-.43-1c0-.11,0-.17.11-.19a.86.86,0,0,1,.24,0,4.3,4.3,0,0,1,1.31.24,6.07,6.07,0,0,1,1.36.64,4.14,4.14,0,0,1,1.06,1,2,2,0,0,1,.43,1.25,1.5,1.5,0,0,1-.24.78A.75.75,0,0,1,279.23,15.71Zm3-2.56a1.48,1.48,0,0,1-.48-.06,3.24,3.24,0,0,1-.58-.59l-1-1.24c-.37-.44-.71-.85-1-1.23a3.26,3.26,0,0,1-.45-.62.12.12,0,0,1,.09-.13l.16,0a5.88,5.88,0,0,1,1.3.17,5.45,5.45,0,0,1,1.38.55,4,4,0,0,1,1.1.89,1.83,1.83,0,0,1,.45,1.2,1.48,1.48,0,0,1-.18.8C282.87,13.06,282.62,13.15,282.24,13.15Z"/><path class="cls-1" d="M301,23.14a.32.32,0,0,0-.17-.2l-.24-.06c-.69-.15-1.34-.3-2-.46a4,4,0,0,1-1.72-1,3.84,3.84,0,0,1-1.12-1.81,7,7,0,0,1-.32-2.09,6,6,0,0,1,.36-2.1,4.09,4.09,0,0,1,1.27-1.71,4,4,0,0,1,.93-.58,4.85,4.85,0,0,1,.91-.3,7.4,7.4,0,0,1,1-.18,8.87,8.87,0,0,0,1-.19l.24-.11a.23.23,0,0,0,.08-.21c0-.11,0-.3,0-.59s0-.59,0-.91,0-.61,0-.87-.08-.4-.16-.45a.94.94,0,0,0-.59-.08l-.63.08a10.56,10.56,0,0,0-2.32.6c-.76.28-1.51.58-2.27.89s-1.52.59-2.29.83a7.37,7.37,0,0,1-2.3.37,2.93,2.93,0,0,1-1.63-.45,3.7,3.7,0,0,1-1.17-1.16,5.87,5.87,0,0,1-.71-1.57,6.2,6.2,0,0,1-.24-1.68.7.7,0,0,1,0-.23c0-.08.08-.12.19-.12a1.7,1.7,0,0,1,.33.22,7.27,7.27,0,0,0,.79.46,7.57,7.57,0,0,0,1.1.47,3.91,3.91,0,0,0,1.33.22c.83,0,1.66,0,2.5-.07s1.66-.13,2.49-.24,1.63-.21,2.45-.34a16.93,16.93,0,0,1,2.45-.18.4.4,0,0,0,.45-.45c0-.45,0-.85-.05-1.2a3.22,3.22,0,0,0-.23-1,2.5,2.5,0,0,0-.52-.8,5,5,0,0,0-1-.72,2.23,2.23,0,0,1-.31-.14l-.43-.24a4.64,4.64,0,0,1-.4-.26c-.12-.08-.18-.16-.18-.22s.17-.4.52-.56a5,5,0,0,1,1.28-.37,8,8,0,0,1,1.66-.1,7.12,7.12,0,0,1,1.66.26,3.5,3.5,0,0,1,1.28.64,1.29,1.29,0,0,1,.52,1.06,3.5,3.5,0,0,1-.34,1.5,3.5,3.5,0,0,0-.34,1.5q0,.36.24.39a4.07,4.07,0,0,0,.5,0,9.28,9.28,0,0,0,1.58-.14l1.59-.31,1.58-.3a8.4,8.4,0,0,1,1.59-.15,7.41,7.41,0,0,1,1.28.13,4.67,4.67,0,0,1,1.24.43,2.86,2.86,0,0,1,.95.8,2.09,2.09,0,0,1,.37,1.24A1.45,1.45,0,0,1,315,9a.52.52,0,0,1-.51.27c-1.67,0-3.32,0-5-.06s-3.3-.07-5-.07a.28.28,0,0,0-.32.32V14.3a.35.35,0,0,0,0,.16l.48,1.14c.13.31.23.6.32.88a5.84,5.84,0,0,1,.19.91,10.89,10.89,0,0,1,.06,1.27,8.9,8.9,0,0,1-.62,3.42A9.44,9.44,0,0,1,303,24.82a11.69,11.69,0,0,1-2.56,2.09,15.8,15.8,0,0,1-3.14,1.47c-.17.07-.46.16-.88.28l-1.29.32c-.45.09-.87.17-1.27.22a1.26,1.26,0,0,1-.78-.05.22.22,0,0,1,.09-.13.38.38,0,0,0,.13-.09c.68-.39,1.38-.75,2.08-1.09a12.62,12.62,0,0,0,2-1.22c.21-.14.5-.37.86-.67s.73-.62,1.11-1,.71-.7,1-1A2.84,2.84,0,0,0,301,23.14Zm-4.22-6.08a2.57,2.57,0,0,0,.7,1.85,2.75,2.75,0,0,0,1.55.87,1.9,1.9,0,0,0,1.56-.47,2.78,2.78,0,0,0,.7-2.19,9.83,9.83,0,0,0-.06-1.06,3.08,3.08,0,0,0-.28-1,1.75,1.75,0,0,0-.59-.68,1.72,1.72,0,0,0-1.05-.28,2.39,2.39,0,0,0-1.09.24,2.24,2.24,0,0,0-.8.66,2.75,2.75,0,0,0-.48.93A3.5,3.5,0,0,0,296.77,17.06Z"/><path class="cls-1" d="M319.36,9.15a.48.48,0,0,1,.29.19,3.77,3.77,0,0,0,.4.42,2.29,2.29,0,0,0,1.68.61,20.32,20.32,0,0,0,2.56-.16,5.5,5.5,0,0,0,2-.67,3.58,3.58,0,0,0,1.36-1.49,5.81,5.81,0,0,0,.49-2.61,5.8,5.8,0,0,0-.11-1.07,1.56,1.56,0,0,0-.53-.91,1.27,1.27,0,0,0-.38-.23c-.19-.08-.39-.17-.58-.27l-.53-.26c-.16-.07-.24-.13-.24-.17,0-.22.18-.39.53-.51a4.39,4.39,0,0,1,1.35-.23,11.66,11.66,0,0,1,1.74.07,7.36,7.36,0,0,1,1.74.38,4,4,0,0,1,1.35.75,1.47,1.47,0,0,1,.53,1.14,2.78,2.78,0,0,1-.29,1.2,11.27,11.27,0,0,1-.63,1.13c-.22.37-.42.73-.6,1.09a2.3,2.3,0,0,0-.28,1.06.29.29,0,0,0,.29.32,5.69,5.69,0,0,0,1.17.19c.37,0,.74.05,1.09.1a3.89,3.89,0,0,1,1,.27,3.41,3.41,0,0,1,1,.69,3.61,3.61,0,0,1,.77,1,6.12,6.12,0,0,1,.45,1.22,9.18,9.18,0,0,1,.21,1.31c0,.45,0,.87,0,1.28a23.78,23.78,0,0,1-.14,2.57,25.85,25.85,0,0,1-.46,2.82,17.84,17.84,0,0,1-.88,2.77,10,10,0,0,1-1.4,2.38,6.35,6.35,0,0,1-2,1.67,5.56,5.56,0,0,1-2.66.62,1.75,1.75,0,0,1-1.18-.48,5.55,5.55,0,0,1-1-1.15,11,11,0,0,1-.75-1.39c-.21-.48-.38-.89-.51-1.24a.44.44,0,0,1,0-.19.22.22,0,0,1,.11-.21.61.61,0,0,1,.24,0,3.17,3.17,0,0,1,1.41.33,3,3,0,0,0,1.41.34,2.83,2.83,0,0,0,1.71-.53,4.58,4.58,0,0,0,1.23-1.38,8.21,8.21,0,0,0,.83-1.9,17.52,17.52,0,0,0,.51-2.14,18.22,18.22,0,0,0,.26-2.1q.06-1,.06-1.71c0-.45,0-.87,0-1.27a3.24,3.24,0,0,0-.26-1,1.71,1.71,0,0,0-.67-.72,2.6,2.6,0,0,0-1.3-.27,3.68,3.68,0,0,0-1.09.15,2.2,2.2,0,0,0-.92.56,4.3,4.3,0,0,0-1,1.32,12,12,0,0,0-.69,1.65c-.19.58-.37,1.16-.54,1.75s-.36,1.12-.55,1.61c-.38,1-.8,1.9-1.25,2.8s-.88,1.83-1.31,2.77c-.23.49-.45,1-.64,1.47a9.25,9.25,0,0,1-.7,1.41c-.15.24-.31.46-.47.69a2.84,2.84,0,0,1-.56.59,2,2,0,0,1-1.37.54,1.29,1.29,0,0,1-1.3-.64,3.38,3.38,0,0,1-.3-1.47A4.48,4.48,0,0,1,319.6,24a11.56,11.56,0,0,1,1-1.79c.4-.58.83-1.14,1.26-1.7A10.92,10.92,0,0,0,323,18.88l.61-1.14c.29-.56.6-1.15.91-1.77s.58-1.2.81-1.73a3.74,3.74,0,0,0,.36-1,.13.13,0,0,0-.1-.13l-.16,0a2.5,2.5,0,0,0-.91.18l-.93.38c-.31.13-.63.26-1,.38a3,3,0,0,1-1,.18,1.87,1.87,0,0,1-1.26-.45,3.74,3.74,0,0,1-.87-1.12,4.9,4.9,0,0,1-.46-1.4A4.5,4.5,0,0,1,319,9.89a1.71,1.71,0,0,1,.09-.43C319.14,9.25,319.23,9.15,319.36,9.15ZM345,20.61a3.35,3.35,0,0,1-.86-.29l-1.46-.64c-.52-.23-1-.47-1.5-.7l-.94-.48c-.24-.13-.33-.24-.28-.32a1,1,0,0,1,.39-.28c.2-.09.46-.2.78-.32a3.89,3.89,0,0,0,.91-.46,2.91,2.91,0,0,0,.74-.7,1.72,1.72,0,0,0,.3-1,8.15,8.15,0,0,0-.17-1.84,4,4,0,0,0-.53-1.21,5,5,0,0,0-.9-1c-.36-.33-.77-.73-1.24-1.2l-.61-.61a2.43,2.43,0,0,1-.51-.67c-.07-.1-.05-.17.06-.19l.26,0a6.69,6.69,0,0,1,3.16.73A7.88,7.88,0,0,1,345,11.28,8.74,8.74,0,0,1,346.59,14a9.68,9.68,0,0,1,.55,3.19,9,9,0,0,1-.08,1.13,4.07,4.07,0,0,1-.31,1.09,2.18,2.18,0,0,1-.64.83A1.65,1.65,0,0,1,345,20.61Z"/><path class="cls-1" d="M362.85,18q0-.36,0-.66t0-.66a4,4,0,0,1,.77-2.43,19.49,19.49,0,0,1,1.7-2,17,17,0,0,0,1.69-2,4.17,4.17,0,0,0,.77-2.52,4.78,4.78,0,0,0-.42-2.15,3.25,3.25,0,0,0-1.15-1.31,4.59,4.59,0,0,0-1.73-.66,12.79,12.79,0,0,0-2.11-.17h-.3a.91.91,0,0,0-.27,0,.73.73,0,0,0-.52.58,6.55,6.55,0,0,0-.17,1.15c0,.45-.07.92-.1,1.42a4.64,4.64,0,0,1-.29,1.38,2.56,2.56,0,0,1-.73,1,2.16,2.16,0,0,1-1.43.41,4.82,4.82,0,0,1-.65,0,2.21,2.21,0,0,1-.63-.2,1.23,1.23,0,0,1-.48-.4,1.08,1.08,0,0,1-.19-.64,4,4,0,0,1,.24-1.28,5.41,5.41,0,0,1,.56-1.18,4.84,4.84,0,0,1,1.39-1.39,8.42,8.42,0,0,1,1.86-.9,12,12,0,0,1,2-.48,15.33,15.33,0,0,1,2-.14,14.67,14.67,0,0,1,2.65.24,7.44,7.44,0,0,1,2.35.83,4.74,4.74,0,0,1,1.7,1.63,4.88,4.88,0,0,1,.66,2.64,4.53,4.53,0,0,1-.87,2.88,9.79,9.79,0,0,1-2.06,2c-.8.59-1.62,1.17-2.45,1.75a7.12,7.12,0,0,0-2,2.11,4.1,4.1,0,0,0-.35.7,4.09,4.09,0,0,0-.13.56,4.51,4.51,0,0,1-.08.53,3.58,3.58,0,0,1-.17.58c-.05.1-.1.17-.16.19a.93.93,0,0,1-.26,0,.49.49,0,0,1-.4-.18,1.22,1.22,0,0,1-.21-.41,2.74,2.74,0,0,1-.08-.5C362.85,18.26,362.85,18.12,362.85,18Zm-1.67,6.65a2.19,2.19,0,0,1,.8-1.87,2.68,2.68,0,0,1,1.78-.54,3.07,3.07,0,0,1,1.78.68,2.43,2.43,0,0,1,0,3.6,2.9,2.9,0,0,1-1.78.69,2.77,2.77,0,0,1-1.78-.57A2.36,2.36,0,0,1,361.18,24.67Z"/></g></g></svg>