<svg xmlns="http://www.w3.org/2000/svg" viewBox="0 0 64 64"><defs><style>.cls-1{fill:#fff;}.cls-2{fill:none;}</style></defs><g id="图层_2" data-name="图层 2"><g id="图层_1-2" data-name="图层 1"><path class="cls-1" d="M2.12,34.46a3.62,3.62,0,0,1,.19-1.31c.17-.62.36-1.29.58-2s.43-1.42.67-2.08S4,27.91,4,27.62q1.08-3.47,2.24-6.79c.77-2.22,1.51-4.48,2.24-6.78q.57-1.86,1.05-3.75c.32-1.25.63-2.5.93-3.74l.39-1.92a11.61,11.61,0,0,1,.51-1.86c.08-.17.15-.29.19-.38s.17-.13.38-.13a10.89,10.89,0,0,1,2.08.39c1,.25,2.14.56,3.27.92s2.14.74,3,1.12,1.34.71,1.34,1a.53.53,0,0,1-.09.32,1.86,1.86,0,0,1-.23.26,24.14,24.14,0,0,0-2,2.53,21.71,21.71,0,0,0-1.54,2.56,27.54,27.54,0,0,0-1.22,2.75c-.36,1-.75,2-1.18,3-.09.17-.19.41-.32.73s-.28.65-.45,1-.32.65-.45.93a1.87,1.87,0,0,0-.19.61,1.12,1.12,0,0,0,.83.74l1.16.28.19.32a2.88,2.88,0,0,1-.51.93,1.44,1.44,0,0,0-.39.87V42.91q0,4.35-.06,8.07c0,2.47-.1,4.55-.16,6.24A10.15,10.15,0,0,1,14.79,60a2.82,2.82,0,0,1-1.12.93,6.62,6.62,0,0,1-1.63.51,15.9,15.9,0,0,1-1.79.22c-.6.05-1.11.07-1.54.07a.57.57,0,0,1-.64-.64V30.24a.72.72,0,0,0-.16-.42.52.52,0,0,0-.42-.22,2,2,0,0,0-1.21.64,17.45,17.45,0,0,0-1.44,1.5L3.43,33.41a10.31,10.31,0,0,1-1.12,1.18ZM21.7,53.41a10.3,10.3,0,0,1-.86-1.57c-.41-.83-.83-1.72-1.28-2.66s-.84-1.81-1.19-2.62a6.41,6.41,0,0,1-.51-1.47l.19-.19a8.28,8.28,0,0,1,.93-.13c.41,0,.81-.11,1.22-.19a3.7,3.7,0,0,0,1.05-.39.77.77,0,0,0,.45-.7V9.89c0-.43.17-.64.51-.64a3.52,3.52,0,0,1,1.25.25l1.44.55c.51.19,1.05.36,1.6.51a6.39,6.39,0,0,0,1.67.22,2.23,2.23,0,0,0,2-1.3,13.37,13.37,0,0,0,1.19-2.89c.29-1.06.56-2,.8-2.89s.54-1.3.92-1.3a5,5,0,0,1,1.22.38c.64.26,1.32.55,2,.87l2.08.93c.66.29,1.12.51,1.37.64l1.09.51a2.63,2.63,0,0,1,1,.64.56.56,0,0,1-.29.38L41.09,7a1.24,1.24,0,0,0-.44.35,1,1,0,0,0-.2.67,1.61,1.61,0,0,0,1,1.44,8.31,8.31,0,0,0,2.3.83,18.21,18.21,0,0,0,2.62.39c.88.06,1.53.09,2,.09a6.29,6.29,0,0,0,3-.6A7.08,7.08,0,0,0,53.13,8.8a12.39,12.39,0,0,0,1.12-1.38c.27-.4.54-.6.8-.6a4.12,4.12,0,0,1,1.37.8c.75.53,1.53,1.13,2.34,1.79s1.53,1.28,2.17,1.85,1,.93,1,1.06-.1.18-.32.29-.43.23-.67.38a8.12,8.12,0,0,0-.67.48.7.7,0,0,0-.32.51V47.9a4.58,4.58,0,0,1-.8,2.6,7.83,7.83,0,0,1-2,2,9.89,9.89,0,0,1-2.65,1.35,8.63,8.63,0,0,1-2.72.48c-.43,0-.66-.25-.71-.74s-.08-.88-.12-1.18c-.09-1.07-.16-2-.23-2.72a7,7,0,0,0-.86-2.59,3.48,3.48,0,0,0-.29-.58,1,1,0,0,1-.16-.58.75.75,0,0,1,.42-.64c.27-.17.58-.35.92-.54a3.66,3.66,0,0,0,.93-.74A1.78,1.78,0,0,0,52,42.78V12.32a.57.57,0,0,0-.64-.64H45.83a.56.56,0,0,0-.64.64v47.1a1.42,1.42,0,0,1-.93,1.25,7.69,7.69,0,0,1-2.14.71,18.22,18.22,0,0,1-2.4.28c-.79.05-1.38.07-1.76.07a.57.57,0,0,1-.64-.64q0-3.86.09-7.66t.1-7.66A7,7,0,0,1,37.73,44,7,7,0,0,0,38,42.25a2.66,2.66,0,0,0-.23-1.09,2.69,2.69,0,0,1-.22-1.09V9.82c0-.38-.21-.57-.64-.57a5.92,5.92,0,0,0-1.73.45c-.81.29-1.64.65-2.49,1.05a15.72,15.72,0,0,0-2.28,1.31c-.66.47-1,.88-1,1.22V42.46a.57.57,0,0,0,.64.64,6.51,6.51,0,0,0,2.47-.48A5.16,5.16,0,0,1,35,42.27a.88.88,0,0,1,.32.07c.13,0,.19.1.19.19,0,.3-.3.76-.89,1.37s-1.35,1.34-2.24,2.15-1.9,1.64-3,2.49-2.17,1.65-3.17,2.37a29.06,29.06,0,0,1-2.72,1.79A4.33,4.33,0,0,1,21.7,53.41Z"/><rect class="cls-2" width="64" height="64"/></g></g></svg>