<svg xmlns="http://www.w3.org/2000/svg" viewBox="0 0 64 64"><defs><style>.cls-1{fill:#fff;}.cls-2{fill:none;}</style></defs><g id="图层_2" data-name="图层 2"><g id="图层_1-2" data-name="图层 1"><path class="cls-1" d="M16.91,24.77H28.17a1.54,1.54,0,0,1,1.44,1.05,3.85,3.85,0,0,1,.23,2.37,4.17,4.17,0,0,1-1.47,2.37,5.48,5.48,0,0,1-3.65,1.06H11.53a2.78,2.78,0,0,1-1.47-.39,3.41,3.41,0,0,1-1.09-1,4.9,4.9,0,0,1-.67-1.38,5.09,5.09,0,0,1-.22-1.5V14.53c0-.43-.27-.66-.8-.71a9.59,9.59,0,0,0-1.76,0c-.64.06-1.23.09-1.76.09s-.8-.17-.8-.51.15-.38.45-.38h10a.57.57,0,0,0,.64-.64V4a.51.51,0,0,1,.58-.58,21.69,21.69,0,0,1,3.14.23c1,.15,2.06.28,3.13.41.34,0,.71.08,1.09.1a5.4,5.4,0,0,1,1.09.16.57.57,0,0,1,.25.06.21.21,0,0,1,.13.19.51.51,0,0,1-.25.48l-.61.39A2,2,0,0,0,22,6a1.94,1.94,0,0,0-.26,1.08c0,.82,0,1.64,0,2.47a9.53,9.53,0,0,0,.35,2.4,2.34,2.34,0,0,0,.22.45.54.54,0,0,0,.42.12,1.79,1.79,0,0,0,1.37-.67,10.09,10.09,0,0,0,1.09-1.44L26.16,9c.27-.45.52-.67.73-.67a3.64,3.64,0,0,1,1.25.74c.66.49,1.35,1,2.05,1.63s1.33,1.18,1.89,1.76.83.93.83,1.05-.17.39-.51.39H16a.57.57,0,0,0-.64.64c0,1.19,0,2.38.1,3.55s.12,2.36.16,3.55v1a4,4,0,0,0,.13,1,1.36,1.36,0,0,0,.29.48l.41.42ZM54.16,54.4c.08,0,.32.19.7.45s.82.57,1.31,1l1.6,1.25c.58.44,1.1.86,1.57,1.24s.87.72,1.19,1,.48.43.48.48a.46.46,0,0,1-.2.57,1,1,0,0,1-.64.26H4.62c-.43,0-.64-.17-.64-.51A.36.36,0,0,1,4.24,60H27.53a.57.57,0,0,0,.64-.64V41.41a.56.56,0,0,0-.64-.64H8.14a.4.4,0,0,1-.45-.45c0-.26.15-.38.45-.38H46.93A1.72,1.72,0,0,0,48,39.46a7.73,7.73,0,0,0,1.09-1.12A6.38,6.38,0,0,0,49.93,37a2.91,2.91,0,0,0,.32-1.21L50,35.52a4.73,4.73,0,0,0-.9-.16q-.45,0-1,0a.9.9,0,0,1-.89-.64c-.22-.47-.41-.92-.58-1.35a5.31,5.31,0,0,0-.77-1.28,19.24,19.24,0,0,0-1.18-1.53,5.64,5.64,0,0,1-1-1.67c0-.25.21-.4.64-.44a12,12,0,0,1,1.4-.07c.52,0,1,0,1.51,0a2.7,2.7,0,0,0,1-.09,1.93,1.93,0,0,0,.74-.83c.28-.47.54-1,.8-1.54a13.38,13.38,0,0,0,.64-1.63,4.43,4.43,0,0,0,.26-1.19,1.34,1.34,0,0,0-.23-.92.74.74,0,0,1-.22-.55,8.75,8.75,0,0,1,.45-2.81A9.14,9.14,0,0,0,51.21,16a1.38,1.38,0,0,0-.16-.64,2.7,2.7,0,0,1-.22-.64,1.14,1.14,0,0,0,.38-.83V9.22a.56.56,0,0,0-.64-.64h-6.4l-.44.19a3.19,3.19,0,0,0-.55,1.31A7.88,7.88,0,0,0,43,11.94a5.35,5.35,0,0,0,.25,1.69,1.22,1.22,0,0,0,1,.9,6.4,6.4,0,0,0,1.25,0l1.63-.13a6.73,6.73,0,0,1,1.57.06,1.6,1.6,0,0,1,1.06.58,2.06,2.06,0,0,1-1,.16q-.87,0-1.89,0c-.69,0-1.35,0-2,0l-1.28,0c-.21,0-.42.29-.64.86A17.69,17.69,0,0,0,42.32,18c-.17.73-.3,1.43-.39,2.12s-.12,1.13-.12,1.34a2,2,0,0,1-.07.58,7.48,7.48,0,0,1-.67,1.47c-.28.47-.54.94-.8,1.41a37.44,37.44,0,0,1-4.77,6.72,18.11,18.11,0,0,1-6.75,4.6l-.19-.12A4.62,4.62,0,0,1,29,34.94c.23-.42.5-.86.8-1.31l.86-1.31a8.36,8.36,0,0,0,.67-1.22,32.7,32.7,0,0,0,2.37-6.36A48.89,48.89,0,0,0,35,18.24c.25-2.18.41-4.37.48-6.59s.09-4.48.09-6.79c0-.38.22-.57.64-.57a7.91,7.91,0,0,1,2.69.48c.9.32,1.81.67,2.75,1.05s1.92.74,3,1.06a10.64,10.64,0,0,0,3.2.48l1.79,0a2.75,2.75,0,0,0,1.66-.48,5.11,5.11,0,0,0,.71-.71q.45-.51,1-1t1-1a1.24,1.24,0,0,1,.71-.42,3.56,3.56,0,0,1,1.08.74l2,1.63c.75.6,1.44,1.18,2.08,1.76L61,9v.45c-.09,0-.22.12-.39.22a3.5,3.5,0,0,1-.54.29l-.8.38a2.9,2.9,0,0,0-.42,1.83c0,1,0,2.14-.06,3.55s-.08,3-.16,4.64a34,34,0,0,1-.64,5,25.4,25.4,0,0,1-1.51,4.84,11.92,11.92,0,0,1-2.72,4,4.51,4.51,0,0,1-.57.48.68.68,0,0,0-.32.6,2,2,0,0,0,.86,1.44,15.82,15.82,0,0,0,1.89,1.38l1.86,1.18c.55.37.83.66.83.87a.57.57,0,0,1-.64.64H37.33a.56.56,0,0,0-.64.64V59.14a.57.57,0,0,0,.64.64H49.49a1.69,1.69,0,0,0,1.18-.68,13.07,13.07,0,0,0,1.18-1.53c.39-.58.75-1.15,1.09-1.73a9,9,0,0,1,.9-1.31ZM10.51,49.54H26.7l.19.19L26.7,50H10.51l-.26-.25Zm34.88-.39.83-1c.39-.47.79-1,1.22-1.44l1.18-1.38a5.59,5.59,0,0,1,.74-.77.25.25,0,0,1,.19-.06.27.27,0,0,0,.19-.06q.32.18,1.38,1c.7.51,1.43,1,2.17,1.63s1.42,1.12,2,1.63.9.83.9,1l-.13.19-.45.19H38.35c-.3,0-.35-.08-.16-.25a1.3,1.3,0,0,1,.54-.32,10.29,10.29,0,0,1,3.08-.19c1.1.08,2.15.12,3.13.12ZM43.21,21.89a5.27,5.27,0,0,1,1-.1c.55,0,1.16,0,1.82,0s1.27,0,1.83.06a7.41,7.41,0,0,1,1,.13.15.15,0,0,1-.13.16,1.3,1.3,0,0,0-.25.1,5.21,5.21,0,0,1-1.64.13c-.57-.05-1.12-.07-1.63-.07l-.48,0a2.73,2.73,0,0,1-.7,0,2.44,2.44,0,0,1-.61-.12C43.3,22.11,43.21,22,43.21,21.89Z"/><rect class="cls-2" width="64" height="64"/></g></g></svg>