<svg xmlns="http://www.w3.org/2000/svg" viewBox="0 0 58.94 57.92"><defs><style>.cls-1{fill:#fff;}</style></defs><g id="图层_2" data-name="图层 2"><g id="图层_1-2" data-name="图层 1"><path class="cls-1" d="M29.06,36.42A53.4,53.4,0,0,0,38.53,23,85.24,85.24,0,0,0,45.31,4.22a21.86,21.86,0,0,0,3.46,2.31A15.81,15.81,0,0,0,52.1,7.81c.55.13.83.3.83.51s-.32.43-1,.64c-.3.09-.82.82-1.57,2.21a59.19,59.19,0,0,0-2.53,5.53q-1.15,2.82-2.53,5.7a62.73,62.73,0,0,1-3.13,5.76,56.42,56.42,0,0,1-4.07,5.76,58,58,0,0,1-5.31,5.76,43.91,43.91,0,0,0,12.29,6.88A43.82,43.82,0,0,0,58.94,48.9c-.64.64-1.17,1.21-1.6,1.72a11.31,11.31,0,0,0-1.12,1.64,16.06,16.06,0,0,0-.86,1.82c-.26.64-.51,1.41-.77,2.3a71.89,71.89,0,0,1-14.85-5.47,48.4,48.4,0,0,1-10.88-7.52q-3.64,2.82-6.81,5c-2.11,1.45-4.12,2.77-6,3.94s-3.7,2.22-5.41,3.14-3.37,1.73-5,2.46a12.91,12.91,0,0,0-2.17-3.17A14.48,14.48,0,0,0,0,52a46.94,46.94,0,0,0,7.17-2A67.42,67.42,0,0,0,14.05,47a62.43,62.43,0,0,0,6.17-3.49,47.51,47.51,0,0,0,5-3.65,77.56,77.56,0,0,1-8.77-12.64A104.92,104.92,0,0,1,8.19,8.13,13,13,0,0,0,11,7.55,12.1,12.1,0,0,0,13.5,6.46a119,119,0,0,0,6.63,17.16A47,47,0,0,0,29.06,36.42Zm.32-17.6Q28,13.63,26.56,9.44A60.45,60.45,0,0,0,23.3,1.79L28.67,0Q30.47,4.23,32,8.1t3.3,8.28Z"/></g></g></svg>