<svg xmlns="http://www.w3.org/2000/svg" viewBox="0 0 64 64"><defs><style>.cls-1{fill:#fff;}.cls-2{fill:none;}</style></defs><g id="图层_2" data-name="图层 2"><g id="图层_1-2" data-name="图层 1"><path class="cls-1" d="M1.63,35.93a.73.73,0,0,1,.06-.32q1.73-4.55,3.65-9t3.45-9.06c.6-1.71,1.11-3.41,1.54-5.12S11.16,9,11.55,7.19c.21-.85.38-1.7.51-2.56a17.3,17.3,0,0,1,.57-2.49l.2-.39c0-.08.17-.13.38-.13a8.56,8.56,0,0,1,2,.45c1,.3,2,.64,3.11,1s2.12.76,3.1,1.15,1.67.66,2.05.83l.13.26c-.09.21-.37.42-.87.64a2.69,2.69,0,0,0-1.05.7A3.5,3.5,0,0,0,21,8a9,9,0,0,1-.58,1.34c-.26.52-.67,1.28-1.25,2.31S18,13.71,17.4,14.84,16.32,17,15.9,18a6.16,6.16,0,0,0-.64,2.17c0,.13.13.26.38.39s.56.25.9.38l1,.35.64.23.13.32-.13.32a3.41,3.41,0,0,0-.61.41.84.84,0,0,0-.35.61v36c0,.43-.34.78-1,1.06a15,15,0,0,1-2.33.7,24.45,24.45,0,0,1-2.59.42c-.86.08-1.43.12-1.73.12a.56.56,0,0,1-.64-.64V34a6.56,6.56,0,0,1,.22-1.73,6.57,6.57,0,0,0,.23-1.73,5.87,5.87,0,0,0-.07-.83.52.52,0,0,0-.57-.51,2.47,2.47,0,0,0-1.6.89,20.28,20.28,0,0,0-1.8,2.08c-.59.79-1.19,1.56-1.79,2.31a6.7,6.7,0,0,1-1.66,1.57ZM55.19,10.52l.39.13L62,16.41l.13.32-.19.19c-3.46.34-6.92.51-10.4.51h-24l-1.19,0a17.22,17.22,0,0,1-1.76,0A11.11,11.11,0,0,1,23,17.3c-.49-.08-.74-.23-.74-.44a.51.51,0,0,1,.23-.42.72.72,0,0,1,.42-.16H50.65c.3,0,.65-.25,1.06-.74a18.36,18.36,0,0,0,1.21-1.66c.41-.62.78-1.24,1.12-1.86s.6-1,.77-1.31ZM51.74,37.85a16.12,16.12,0,0,1,1.5,1c.75.51,1.53,1.08,2.34,1.69s1.56,1.21,2.24,1.76A6.59,6.59,0,0,1,59,43.42c0,.12-.11.25-.33.38l-.7.42a2.74,2.74,0,0,0-.67.54,1.12,1.12,0,0,0-.29.77V57.88a1.49,1.49,0,0,1-.93,1.28A9.27,9.27,0,0,1,54,60a17.27,17.27,0,0,1-2.43.45c-.81.08-1.41.13-1.8.13a.57.57,0,0,1-.64-.64V58.17q0-.56,0-1A2,2,0,0,0,49,56.6a2.05,2.05,0,0,0-.29-.42.62.62,0,0,1-.16-.48,1.19,1.19,0,0,1,.22-.7,1.2,1.2,0,0,0,.23-.7V43.61a.57.57,0,0,0-.64-.64H34.65a.56.56,0,0,0-.64.64V54.68a.56.56,0,0,0,.64.64H46.94a.61.61,0,0,1,.64.51.36.36,0,0,1-.26.13H34.46c-.21,0-.36.13-.45.38a4.34,4.34,0,0,0-.19.93,10.36,10.36,0,0,1-.19,1.09,1.45,1.45,0,0,1-.45.8A3.71,3.71,0,0,1,31.8,60,11.54,11.54,0,0,1,30,60.5a17.09,17.09,0,0,1-1.86.29,14.45,14.45,0,0,1-1.63.1.52.52,0,0,1-.48-.32,2.12,2.12,0,0,1-.19-.74,5.75,5.75,0,0,1,0-.83c0-.28,0-.48,0-.61q0-4.8-.19-9.6t-.19-9.6c0-.38.21-.57.64-.57A4.08,4.08,0,0,1,28,39.1c.62.32,1.24.67,1.89,1a19.72,19.72,0,0,0,2,1.06,4.92,4.92,0,0,0,2.11.48H48c.13,0,.36-.17.71-.51s.69-.73,1-1.16.71-.84,1-1.24a8.41,8.41,0,0,1,.67-.8Zm6.4-12.35c-.85,0-1.71.11-2.56.22a20,20,0,0,1-2.56.16q-4.1,0-8.16.06T36.7,26c-1.49,0-3,0-4.45-.07s-2.95-.06-4.45-.06h-.45a5.74,5.74,0,0,1-.6,0,1.88,1.88,0,0,1-.52-.13.3.3,0,0,1-.22-.29.47.47,0,0,1,.26-.41.85.85,0,0,1,.44-.16H47.77c.3,0,.62-.27,1-.8s.69-1.12,1.06-1.76.72-1.24,1.09-1.8.71-.83,1-.83a13.29,13.29,0,0,1,1.44,1c.66.51,1.33,1.05,2,1.63S56.7,23.47,57.27,24a5.76,5.76,0,0,1,1.06,1.22ZM26.07,33.94a.41.41,0,0,1,.26-.12H47.71A1.73,1.73,0,0,0,49,33a17.07,17.07,0,0,0,1.21-1.89c.39-.68.74-1.31,1.06-1.88s.58-.87.8-.87a3.72,3.72,0,0,1,1.12.77c.62.51,1.29,1.1,2,1.76s1.38,1.29,2,1.89.9,1,1,1.09a.39.39,0,0,1-.07.48.68.68,0,0,1-.44.16H26.71C26.29,34.46,26.07,34.29,26.07,33.94ZM45.72,7.58A18.94,18.94,0,0,0,47.8,5C48.42,4,49.05,3.1,49.69,2.2L50.07,2c.13,0,.52.2,1.16.73S52.56,3.9,53.31,4.6,54.75,6,55.39,6.65A7.82,7.82,0,0,1,56.54,8c0,.26-.22.46-.64.61a3.33,3.33,0,0,1-1,.23l-27-.45a.29.29,0,0,1-.32-.32.28.28,0,0,1,.32-.32H45.27Z"/><rect class="cls-2" width="64" height="64"/></g></g></svg>