<svg xmlns="http://www.w3.org/2000/svg" viewBox="0 0 59.79 59.46"><defs><style>.cls-1{fill:#fff;}</style></defs><g id="图层_2" data-name="图层 2"><g id="图层_1-2" data-name="图层 1"><path class="cls-1" d="M0,32.19A3.62,3.62,0,0,1,.2,30.88c.17-.62.37-1.29.58-2s.44-1.41.67-2.08.4-1.14.48-1.44Q3,21.89,4.17,18.56t2.24-6.78C6.8,10.54,7.15,9.29,7.47,8s.63-2.5.93-3.74c.13-.64.25-1.28.38-1.92A14.15,14.15,0,0,1,9.29.51c.09-.17.15-.3.2-.38S9.66,0,9.87,0A11.74,11.74,0,0,1,12,.38c1,.26,2.13.57,3.26.93s2.15.74,3,1.12,1.35.71,1.35,1a.53.53,0,0,1-.1.32,2.53,2.53,0,0,1-.22.26,24.57,24.57,0,0,0-2,2.53,21.71,21.71,0,0,0-1.54,2.56,27.5,27.5,0,0,0-1.21,2.75c-.36,1-.76,1.95-1.19,3-.08.17-.19.42-.31.74s-.28.65-.45,1-.32.65-.45.93a1.65,1.65,0,0,0-.19.61,1.06,1.06,0,0,0,.83.73l1.15.29.19.32a2.54,2.54,0,0,1-.51.93,1.42,1.42,0,0,0-.38.86V40.64q0,4.35-.07,8.06T13,54.94a9.75,9.75,0,0,1-.29,2.79,2.75,2.75,0,0,1-1.12.93,6.62,6.62,0,0,1-1.63.51c-.6.1-1.19.18-1.79.22s-1.11.07-1.54.07A.56.56,0,0,1,6,58.82V28a.74.74,0,0,0-.17-.42.47.47,0,0,0-.41-.22A2,2,0,0,0,4.17,28a16.1,16.1,0,0,0-1.44,1.5L1.32,31.14A10.29,10.29,0,0,1,.2,32.32Zm19.59,19a11.62,11.62,0,0,1-.87-1.57l-1.28-2.66c-.44-.94-.84-1.81-1.18-2.62a6.41,6.41,0,0,1-.51-1.47l.19-.2q.32-.06.93-.12c.4,0,.81-.11,1.21-.2a3.48,3.48,0,0,0,1.06-.38.79.79,0,0,0,.45-.7V7.62c0-.43.17-.64.51-.64a3.56,3.56,0,0,1,1.25.25l1.44.55c.51.19,1,.36,1.6.51a6.31,6.31,0,0,0,1.66.22,2.24,2.24,0,0,0,2-1.31,13.15,13.15,0,0,0,1.18-2.89c.3-1,.57-2,.8-2.88S30.6.13,31,.13A5,5,0,0,1,32.2.51c.64.26,1.33.55,2,.87l2.08.92,1.38.64,1.09.52a2.51,2.51,0,0,1,1,.64.62.62,0,0,1-.29.38L39,4.74a1.37,1.37,0,0,0-.45.35,1,1,0,0,0-.19.67,1.62,1.62,0,0,0,1,1.44,8.65,8.65,0,0,0,2.3.83,19.87,19.87,0,0,0,2.63.39q1.3.09,1.95.09a6.21,6.21,0,0,0,3-.61A6.94,6.94,0,0,0,51,6.53a12.39,12.39,0,0,0,1.12-1.38c.28-.4.54-.61.8-.61a4.44,4.44,0,0,1,1.38.8c.74.54,1.52,1.13,2.33,1.8S58.19,8.42,58.83,9s1,.93,1,1.06-.11.18-.32.29a5.88,5.88,0,0,0-.67.38,8.29,8.29,0,0,0-.68.48.7.7,0,0,0-.32.51V45.63A4.54,4.54,0,0,1,57,48.22a8,8,0,0,1-2,2.05,10,10,0,0,1-2.66,1.35,8.58,8.58,0,0,1-2.72.48c-.42,0-.66-.25-.7-.74s-.09-.89-.13-1.18c-.08-1.07-.16-2-.22-2.72a7.34,7.34,0,0,0-.87-2.6,3.78,3.78,0,0,0-.28-.57,1,1,0,0,1-.17-.58.75.75,0,0,1,.42-.64l.93-.54a3.84,3.84,0,0,0,.93-.74,1.84,1.84,0,0,0,.41-1.28V10.05a.56.56,0,0,0-.64-.64H43.72a.57.57,0,0,0-.64.64v47.1a1.42,1.42,0,0,1-.92,1.25,7.76,7.76,0,0,1-2.15.7,18.26,18.26,0,0,1-2.4.29c-.79,0-1.37.07-1.76.07a.57.57,0,0,1-.64-.65q0-3.84.1-7.65c.06-2.54.1-5.1.1-7.66a6.9,6.9,0,0,1,.22-1.76A7,7,0,0,0,35.85,40a2.66,2.66,0,0,0-.22-1.09,2.72,2.72,0,0,1-.22-1.09V7.55c0-.38-.22-.57-.65-.57A6.11,6.11,0,0,0,33,7.42c-.81.3-1.65.65-2.5,1.06a15.59,15.59,0,0,0-2.27,1.31c-.66.47-1,.88-1,1.22V40.19a.56.56,0,0,0,.64.64,6.49,6.49,0,0,0,2.46-.48A5,5,0,0,1,32.84,40a1,1,0,0,1,.32.06c.13,0,.2.11.2.2,0,.29-.3.75-.9,1.37S31.12,43,30.22,43.78s-1.9,1.64-3,2.49S25.05,47.91,24,48.64a29.78,29.78,0,0,1-2.72,1.79A4.3,4.3,0,0,1,19.6,51.14Z"/></g></g></svg>