<svg xmlns="http://www.w3.org/2000/svg" viewBox="0 0 58.08 57.22"><defs><style>.cls-1{fill:#fff;}</style></defs><g id="图层_2" data-name="图层 2"><g id="图层_1-2" data-name="图层 1"><path class="cls-1" d="M14,21.38H25.22a1.54,1.54,0,0,1,1.44,1.05,3.85,3.85,0,0,1,.22,2.37,4.2,4.2,0,0,1-1.47,2.37,5.46,5.46,0,0,1-3.65,1H8.58a2.79,2.79,0,0,1-1.48-.38,3.62,3.62,0,0,1-1.08-1,4.93,4.93,0,0,1-.68-1.38,5.09,5.09,0,0,1-.22-1.5V11.14c0-.43-.27-.66-.8-.71a10.52,10.52,0,0,0-1.76,0,16.25,16.25,0,0,1-1.76.1c-.53,0-.8-.17-.8-.51s.15-.39.45-.39H10.5A.57.57,0,0,0,11.14,9V.58A.51.51,0,0,1,11.71,0a23.21,23.21,0,0,1,3.14.22c1,.15,2.07.29,3.13.42.35,0,.71.08,1.09.1A5.3,5.3,0,0,1,20.16.9a.62.62,0,0,1,.26.06.21.21,0,0,1,.12.19.51.51,0,0,1-.25.48L19.68,2a2.17,2.17,0,0,0-.61.6,2,2,0,0,0-.25,1.09c0,.81,0,1.63,0,2.47a10,10,0,0,0,.35,2.4,2.48,2.48,0,0,0,.22.44.51.51,0,0,0,.42.13,1.83,1.83,0,0,0,1.38-.67A10.82,10.82,0,0,0,22.3,7l.9-1.44c.28-.45.52-.67.74-.67a3.53,3.53,0,0,1,1.24.73c.67.5,1.35,1,2.05,1.64a23.42,23.42,0,0,1,1.89,1.76c.55.57.83.92.83,1s-.17.39-.51.39H13.06a.56.56,0,0,0-.64.64c0,1.19,0,2.38.09,3.55s.12,2.36.16,3.55v1a4,4,0,0,0,.13,1,1.52,1.52,0,0,0,.29.48c.1.11.24.24.41.41ZM51.2,51a7.31,7.31,0,0,1,.7.45,16.24,16.24,0,0,1,1.32,1l1.6,1.24,1.56,1.25,1.19,1q.48.42.48.48a.48.48,0,0,1-.19.58,1.06,1.06,0,0,1-.64.26H1.66c-.42,0-.64-.17-.64-.52a.39.39,0,0,1,.26-.12h23.3a.57.57,0,0,0,.64-.64V38a.57.57,0,0,0-.64-.64H5.18a.39.39,0,0,1-.44-.45c0-.26.15-.39.44-.39H44a1.77,1.77,0,0,0,1.09-.48,7.69,7.69,0,0,0,1.08-1.12A6.12,6.12,0,0,0,47,33.6a3.07,3.07,0,0,0,.32-1.22L47,32.13a4.05,4.05,0,0,0-.9-.16q-.44,0-1,0a.91.91,0,0,1-.89-.64c-.22-.47-.41-.92-.58-1.35a5,5,0,0,0-.77-1.28,17.15,17.15,0,0,0-1.18-1.53,5.64,5.64,0,0,1-1-1.67c0-.25.21-.4.64-.45S42.3,25,42.82,25s1,0,1.5,0a3,3,0,0,0,1.06-.09,2,2,0,0,0,.73-.84,14.55,14.55,0,0,0,.8-1.53,14,14,0,0,0,.64-1.63,4.5,4.5,0,0,0,.26-1.19,1.36,1.36,0,0,0-.23-.93.72.72,0,0,1-.22-.54,8.86,8.86,0,0,1,.45-2.82,8.75,8.75,0,0,0,.45-2.81A1.51,1.51,0,0,0,48.1,12a2.35,2.35,0,0,1-.23-.64,1.15,1.15,0,0,0,.39-.83V5.82a.57.57,0,0,0-.64-.64h-6.4l-.45.2a3.19,3.19,0,0,0-.55,1.31A7.86,7.86,0,0,0,40,8.54a5.1,5.1,0,0,0,.26,1.7,1.22,1.22,0,0,0,1,.9,6.29,6.29,0,0,0,1.24,0L44.1,11a6.67,6.67,0,0,1,1.56.06,1.58,1.58,0,0,1,1.06.58,2.2,2.2,0,0,1-1,.16q-.87,0-1.89,0t-2,0l-1.28,0c-.22,0-.43.28-.64.86a15.69,15.69,0,0,0-.58,1.95A19.23,19.23,0,0,0,39,16.7a13.06,13.06,0,0,0-.13,1.35,1.65,1.65,0,0,1-.07.57,7.3,7.3,0,0,1-.67,1.48c-.28.47-.54.94-.8,1.4a36.74,36.74,0,0,1-4.77,6.72,18,18,0,0,1-6.75,4.61l-.19-.13a5.46,5.46,0,0,1,.48-1.15c.23-.42.5-.86.8-1.31l.86-1.31a8.48,8.48,0,0,0,.68-1.22,33.16,33.16,0,0,0,2.36-6.37A48.75,48.75,0,0,0,32,14.85c.26-2.18.42-4.37.48-6.59s.1-4.48.1-6.79c0-.38.21-.57.64-.57a7.9,7.9,0,0,1,2.68.48q1.35.48,2.76,1.05c.93.39,1.92.74,2.94,1.06A10.64,10.64,0,0,0,44.8,4l1.79,0a2.81,2.81,0,0,0,1.67-.48,5.85,5.85,0,0,0,.7-.71q.45-.51,1-1c.36-.37.7-.69,1-1a1.26,1.26,0,0,1,.71-.42,3.54,3.54,0,0,1,1.09.74c.59.49,1.27,1,2,1.63s1.44,1.18,2.08,1.76,1.05,1,1.22,1.12V6a3,3,0,0,0-.39.22,4.63,4.63,0,0,1-.54.29c-.19.08-.46.21-.8.38a3,3,0,0,0-.42,1.83c0,1,0,2.14-.06,3.55s-.07,3-.16,4.64A34.12,34.12,0,0,1,55,22a25.05,25.05,0,0,1-1.5,4.83,12,12,0,0,1-2.72,4,3.37,3.37,0,0,1-.58.48.72.72,0,0,0-.32.61,2,2,0,0,0,.86,1.44,17,17,0,0,0,1.89,1.38l1.86,1.18c.55.37.83.65.83.87a.57.57,0,0,1-.64.64H34.37a.56.56,0,0,0-.64.64V55.74a.56.56,0,0,0,.64.64H46.53a1.65,1.65,0,0,0,1.18-.67,14,14,0,0,0,1.19-1.53c.38-.58.74-1.16,1.08-1.73a9.82,9.82,0,0,1,.9-1.31ZM7.55,46.14H23.74l.2.2-.2.25H7.55l-.25-.25Zm34.88-.38.83-1c.39-.47.79-1,1.22-1.44s.82-.95,1.18-1.38a5.58,5.58,0,0,1,.74-.77.27.27,0,0,1,.19-.06.22.22,0,0,0,.19-.07q.33.19,1.38,1c.7.52,1.43,1.06,2.18,1.64s1.41,1.12,2,1.63.9.83.9,1l-.13.19-.45.19H35.39c-.3,0-.35-.08-.16-.25a1.27,1.27,0,0,1,.55-.32,10.19,10.19,0,0,1,3.07-.2C40,45.91,41,46,42,46ZM40.26,18.5a4.42,4.42,0,0,1,1-.1c.55,0,1.16,0,1.82,0s1.27,0,1.83.06a7.41,7.41,0,0,1,1,.13.15.15,0,0,1-.13.16.87.87,0,0,0-.25.1,5.15,5.15,0,0,1-1.63.12c-.58,0-1.12-.06-1.64-.06l-.48,0a4.09,4.09,0,0,1-.7,0,2.12,2.12,0,0,1-.61-.13C40.34,18.72,40.26,18.62,40.26,18.5Z"/></g></g></svg>