<svg xmlns="http://www.w3.org/2000/svg" viewBox="0 0 59.19 59.33"><defs><style>.cls-1{fill:#5e525e;}</style></defs><g id="图层_2" data-name="图层 2"><g id="图层_1-2" data-name="图层 1"><path class="cls-1" d="M.19,17.54c.34,0,.9,0,1.67,0s1.64,0,2.62,0l3.07,0c1.07,0,2.06,0,3,0l2.37.06a9.56,9.56,0,0,1,1.24.1c-.08,0-.23.11-.44.19a1.45,1.45,0,0,1-.45.13H.19L0,17.73Zm19,20c1.11,0,2.19,0,3.26.13a21.17,21.17,0,0,1,3.26.51,21,21,0,0,0,2.44.48,20.29,20.29,0,0,0,2.49.16q.64,0,1.35-1a14.56,14.56,0,0,0,1.37-2.56,36.48,36.48,0,0,0,1.28-3.49c.41-1.28.78-2.51,1.12-3.68s.63-2.24.87-3.2.39-1.66.48-2.08c0-.17.1-.45.19-.83s.18-.78.29-1.19.2-.78.28-1.12a3.37,3.37,0,0,0,.13-.64,1.72,1.72,0,0,0-.19-.73.62.62,0,0,0-.58-.42h-10a.32.32,0,1,1,0-.64H45.7c.46,0,1-.34,1.47-1A25,25,0,0,0,48.67,14c.49-.83.95-1.58,1.38-2.27s.77-1,1-1a7.54,7.54,0,0,1,1.35,1l2.68,2.14c1,.79,1.88,1.54,2.69,2.24a15.25,15.25,0,0,1,1.35,1.25c.08.26.06.43-.07.51a2.39,2.39,0,0,1-.8.1L56.42,18Q55.3,18,54,18l-2.47,0H48.26c-.26,0-.51.18-.74.54a5.85,5.85,0,0,0-.61,1.28,11.67,11.67,0,0,0-.41,1.48c-.11.49-.19.84-.23,1.05-.17.94-.31,1.87-.41,2.79a13.84,13.84,0,0,1-.61,2.72A22.68,22.68,0,0,1,43.87,31c-.62,1.21-1.24,2.45-1.85,3.71s-1.17,2.47-1.64,3.65a8.39,8.39,0,0,0-.7,3c0,.21,0,.34.1.38a2.91,2.91,0,0,0,.35.19l4.7,2.08a29.42,29.42,0,0,1,4.71,2.63,14.82,14.82,0,0,1,3.64,3.55,8.25,8.25,0,0,1,1.48,4.93,4.48,4.48,0,0,1-1,3,3.5,3.5,0,0,1-2.84,1.19,7.66,7.66,0,0,1-1.6-.16,3.94,3.94,0,0,1-1.41-.67,10.44,10.44,0,0,1-2.37-2.18c-.68-.85-1.39-1.66-2.11-2.43-.22-.22-.73-.67-1.54-1.38L39.23,50.3c-.89-.76-1.74-1.45-2.53-2a4.64,4.64,0,0,0-1.44-.9h-.83a4.56,4.56,0,0,0-1,.7l-.93.84a12.55,12.55,0,0,1-2.08,1.56l-2.21,1.32a51.41,51.41,0,0,1-9.57,4.35A62.81,62.81,0,0,1,8.45,58.62c-.64.09-1.29.2-1.95.32a10.27,10.27,0,0,1-2,.2,1.94,1.94,0,0,1-.86-.1c-.06-.06.1-.27.48-.61A9.91,9.91,0,0,1,6.62,56.9l2.72-1.28q3.14-1.48,5.57-2.56t4.64-2.31a35.13,35.13,0,0,0,4.39-2.88,41.42,41.42,0,0,0,4.67-4.29.73.73,0,0,1,0-.22.55.55,0,0,0,0-.16c0-.3-.3-.61-.77-.93a16,16,0,0,0-1.76-1c-.7-.36-1.46-.72-2.27-1.06l-2.27-1c-.7-.3-1.31-.58-1.82-.86s-.79-.5-.84-.67ZM32.64,2.3a3,3,0,0,1-1,.77,4.57,4.57,0,0,0-1.06.71A6.44,6.44,0,0,0,30.05,5q-.42,1.09-.9,2.43c-.32.9-.62,1.75-.89,2.56s-.46,1.35-.55,1.6c-.25.73-.69,2-1.31,3.68s-1.34,3.7-2.18,5.89S22.5,25.63,21.54,28s-1.9,4.56-2.82,6.56a55.74,55.74,0,0,1-2.56,5c-.79,1.35-1.44,2.08-1.95,2.21a2.75,2.75,0,0,1-1,.1c-.34,0-.69,0-1,0H10.88c-.68,0-1.39,0-2.11-.1a11.33,11.33,0,0,1-1.95-.32c-.58-.15-.87-.37-.87-.67a7.76,7.76,0,0,1,.61-2.4C7,37.28,7.49,36,8.13,34.66s1.34-2.86,2.11-4.42,1.53-3.06,2.27-4.51,1.41-2.79,2-4,1-2.19,1.31-2.91c.64-1.63,1.22-3.28,1.76-5s1.05-3.38,1.57-5.09q.12-.45.57-1.89c.3-1,.62-1.95,1-3a27.75,27.75,0,0,1,1.06-2.72C22.09.4,22.4,0,22.66,0c.51,0,1.25,0,2.24.13s2,.22,3.07.41a22.12,22.12,0,0,1,2.94.74A3.37,3.37,0,0,1,32.64,2.3Z"/></g></g></svg>