<svg xmlns="http://www.w3.org/2000/svg" viewBox="0 0 64 64"><defs><style>.cls-1{fill:#fff;}.cls-2{fill:none;}</style></defs><g id="图层_2" data-name="图层 2"><g id="图层_1-2" data-name="图层 1"><path class="cls-1" d="M31.58,39.46a53.42,53.42,0,0,0,9.48-13.38A85.24,85.24,0,0,0,47.84,7.26,21.86,21.86,0,0,0,51.3,9.57a15.94,15.94,0,0,0,3.32,1.28q.84.2.84.51c0,.21-.32.43-1,.64-.3.09-.83.82-1.57,2.21a59.19,59.19,0,0,0-2.53,5.53q-1.15,2.82-2.53,5.7a65.24,65.24,0,0,1-3.13,5.76A56.42,56.42,0,0,1,40.67,37a59.21,59.21,0,0,1-5.31,5.76A43.91,43.91,0,0,0,47.65,49.6a43.82,43.82,0,0,0,13.82,2.34c-.64.64-1.17,1.21-1.6,1.72a11.31,11.31,0,0,0-1.12,1.64,14.51,14.51,0,0,0-.86,1.82c-.26.64-.51,1.41-.77,2.3A71.89,71.89,0,0,1,42.27,54a48.17,48.17,0,0,1-10.88-7.52q-3.64,2.82-6.81,5c-2.12,1.46-4.12,2.77-6,3.94s-3.7,2.22-5.41,3.14-3.37,1.73-5,2.46A12.7,12.7,0,0,0,6,57.79,14.23,14.23,0,0,0,2.53,55,46.94,46.94,0,0,0,9.7,53a67.42,67.42,0,0,0,6.88-2.94,63.6,63.6,0,0,0,6.17-3.49,46.3,46.3,0,0,0,5-3.65A78.19,78.19,0,0,1,19,30.27a104.92,104.92,0,0,1-8.26-19.1,13,13,0,0,0,2.85-.58A12.1,12.1,0,0,0,16,9.5a117.88,117.88,0,0,0,6.63,17.16A47.23,47.23,0,0,0,31.58,39.46Zm.32-17.6q-1.33-5.19-2.81-9.38a59,59,0,0,0-3.27-7.65L31.2,3q1.79,4.23,3.36,8.1c1,2.58,2.14,5.34,3.3,8.28Z"/><rect class="cls-2" width="64" height="64"/></g></g></svg>