<svg xmlns="http://www.w3.org/2000/svg" viewBox="0 0 64 64"><defs><style>.cls-1{fill:#fff;}.cls-2{fill:none;}</style></defs><g id="图层_2" data-name="图层 2"><g id="图层_1-2" data-name="图层 1"><path class="cls-1" d="M14.69,21.73a74.67,74.67,0,0,0-8.39.57V16.42a32.71,32.71,0,0,0,3.62.35c1.39.06,3,.12,4.77.16,0-2,0-3.69-.07-5.19S14.53,9,14.46,7.87s-.14-2-.22-2.78-.17-1.43-.26-2a26.24,26.24,0,0,0,3.24.61c.91.11,1.8.18,2.65.23q2.88.06,1,1.92a3.39,3.39,0,0,0-.93,1.21,4.37,4.37,0,0,0-.22,1.54v8.32c1.92,0,3.63-.1,5.12-.16a38.1,38.1,0,0,0,3.9-.35V22.3a84.9,84.9,0,0,0-9-.57v9.66c3-.85,5.72-1.73,8.06-2.62-.12,1-.2,1.89-.22,2.72a22.08,22.08,0,0,0,.1,2.65c-1.24.3-2.53.63-3.88,1s-2.69.78-4.06,1.24V54.3A10.73,10.73,0,0,1,19.39,57a3.06,3.06,0,0,1-1.34,1.79A9.34,9.34,0,0,1,15,59.94a47.58,47.58,0,0,1-5.48.76,13.32,13.32,0,0,0-.38-3.1,15.71,15.71,0,0,0-1.28-3.42,25.06,25.06,0,0,0,3.52.41,5,5,0,0,0,2.08-.29,1.73,1.73,0,0,0,1-1,4.51,4.51,0,0,0,.26-1.66V38.18A41.65,41.65,0,0,0,10.3,40.1a36.12,36.12,0,0,0-3.55,2,16.72,16.72,0,0,0-.7-3.8A15.21,15.21,0,0,0,4.58,35q4.61-.84,10.11-2.24Zm21.5,13.63a55.18,55.18,0,0,1-.89,7.36,47.68,47.68,0,0,1-1.92,7,43.9,43.9,0,0,1-2.92,6.46,36.07,36.07,0,0,1-3.74,5.57,11.56,11.56,0,0,0-2.56-1.89,19.92,19.92,0,0,0-2.94-1.31,31.06,31.06,0,0,0,7.42-11.2A42.68,42.68,0,0,0,31.2,31.78V18.53q0-1.73-.06-2.82a20.06,20.06,0,0,0-.26-2.17l2.05.12c.72.05,1.61.08,2.65.1s2.35,0,3.91,0H51.17q2.3,0,3.84,0c1,0,1.86,0,2.53-.1l1.88-.12c-.08.59-.16,1.24-.22,2s-.1,1.72-.1,3V31.71c0,1.41,0,2.79.1,4.13s.14,2.76.22,4.26H54.05V35.36ZM54.05,31V18.14H36.26V31ZM42.91,12.58a23.75,23.75,0,0,0-1.09-4.42,21.13,21.13,0,0,0-2-4.22l5.63-1.73c.6,1.36,1.16,2.77,1.7,4.22s1,2.9,1.37,4.35Z"/><rect class="cls-2" width="64" height="64"/></g></g></svg>